<?xml version="1.0" encoding="iso-8859-1"?>
<!-- Generator: Adobe Illustrator 19.0.0, SVG Export Plug-In . SVG Version: 6.00 Build 0)  -->
<svg version="1.1" id="Layer_1" xmlns="http://www.w3.org/2000/svg" xmlns:xlink="http://www.w3.org/1999/xlink" x="0px" y="0px"
	 viewBox="0 0 493.224 493.224" style="enable-background:new 0 0 493.224 493.224;" xml:space="preserve">
<ellipse style="fill:#1C2826;" cx="246.612" cy="79.504" rx="102.304" ry="79.504"/>
<polygon style="fill:#966450;" points="325.092,453.224 169.892,453.224 162.228,285.224 332.756,285.224 "/>
<path style="fill:#BC8C79;" d="M456.516,329.08L340.06,288.112l2.456,0.72L327.3,282.28c-6.088,19.848-39.84,40.848-80.688,40.848
	c-40.856,0-74.6-21.128-80.68-40.984l-15.24,6.368l2.464-1.08L36.708,329.08L14.612,493.224H44.06h150.168h45.52h13.736h47.648
	h148.04h29.44L456.516,329.08z"/>
<path style="fill:#A87963;" d="M46.612,493.224H194.22h45.52h13.736h47.648h148.04h29.448L456.516,329.08L340.06,288.112l2.456,0.72
	L327.3,282.28c-6.088,19.848-39.84,40.848-80.688,40.848c-40.856,0-74.6-21.128-80.68-40.984l-15.24,6.368l2.464-1.08L37.988,329.08
	"/>
<path style="fill:#5FC46F;" d="M102.612,493.224h91.608h45.52h13.736h47.648h148.04h29.448L456.516,329.08L340.06,288.112
	l2.456,0.72L327.3,282.28c-6.088,27.512-39.84,40.848-80.688,40.848c-40.856,0-74.6-13.472-80.68-40.984l-15.24,6.368l2.464-1.08
	L36.708,329.08"/>
<path style="fill:#46AA5B;" d="M102.612,493.224h91.608h45.52h13.736h47.648h148.04h29.448L456.516,329.08L340.06,288.112
	l2.456,0.72L327.3,282.28c-6.088,27.512-39.84,40.848-80.688,40.848c-40.856,0-74.6-13.472-80.68-40.984l-15.24,6.368l1.472,0.304"
	/>
<g>
	<polygon style="fill:#1C57AD;" points="342.428,288.44 342.428,288.232 340.068,287.424 	"/>
	<path style="fill:#1C57AD;" d="M342.612,288.44l-15.216-6.336c-6.088,27.512-39.888,40.936-80.736,40.936
		c-40.856,0-72.176-20.216-80.704-40.936l-12.888,5.352l-2.456,9.76v196.008h43.608h45.52h13.736h47.648h41.488V288.44z"/>
</g>
<path style="fill:#0C4993;" d="M238.612,493.224h14.864h47.648h41.488V288.44l-15.216-6.336
	c-14.152,27.728-42.528,39.168-82.36,40.92"/>
<polyline style="fill:#A87963;" points="414.612,493.224 449.164,493.224 478.612,493.224 456.516,329.08 "/>
<polygon style="fill:#966450;" points="305.292,302.824 191.308,291.136 197.404,205.224 297.588,205.224 "/>
<polygon style="fill:#845342;" points="305.292,302.824 259.5,316.52 189.7,205.224 297.588,205.224 "/>
<path style="fill:#A87963;" d="M323.108,142.288c0-67.096-36.496-94.24-76.496-94.504v-0.032v0.016v-0.016v0.032
	c-40,0.256-76.496,27.408-76.496,94.496s36.496,127.76,76.496,129.208v0.136c0,0,0-0.056,0-0.064c0,0.008,0,0.064,0,0.064v-0.136
	C286.612,270.04,323.108,209.384,323.108,142.288z"/>
<path style="fill:#966450;" d="M246.612,269.224v2.4c0,0,0-0.056,0-0.064c0,0.008,0,0.064,0,0.064v-0.136
	c40-1.456,76.496-62.112,76.496-129.2s-36.496-94.24-76.496-94.504v-0.032v0.016v-0.016v-2.528"/>
<path style="fill:#77502A;" d="M169.884,121.936c-4.152-1.824-3.312-29.448,0.336-37.776c3.664-8.328,10.008-5.928,14.136-4.104
	c4.168,1.816,22.944,19.904,16.24,26.048"/>
<g>
	<path style="fill:#00233F;" d="M204.268,221.632c-0.184-0.208-0.296-0.352-0.296-0.352S204.052,221.472,204.268,221.632z"/>
	<path style="fill:#00233F;" d="M290.708,221.632c0.184-0.208,0.296-0.352,0.296-0.352S290.924,221.472,290.708,221.632z"/>
</g>
<g>
	<path style="fill:#1C2826;" d="M261.732,85.784c0,0,7.664,39.272,60.344,45.976c0,0,32.584-73.76-47.896-85.248
		C193.708,35.016,261.732,85.784,261.732,85.784z"/>
	<path style="fill:#1C2826;" d="M283.764,77.168c0,0-33.528,69.936-107.296,53.64c0,0-29.712-37.36,16.28-74.728
		c45.976-37.36,87.712-14.688,91.544,4.48C288.116,79.72,283.764,77.168,283.764,77.168z"/>
	<path style="fill:#1C2826;" d="M320.74,149.432c0.312,2.592-1.032,7.792-3.192,15.792h10.96c0.144-8,0.128-9.92,0.016-13.992
		c-0.6-23.904,7.76-36.032,2.992-44.392c-4.792-8.36-16.152-31.192-16.152-31.192s-5.976,56.344,2.4,67.128
		C317.772,142.768,320.164,144.056,320.74,149.432z"/>
	<path style="fill:#1C2826;" d="M164.7,165.224h10.976c-2.168-8-3.504-13.2-3.184-15.792c0.552-5.376,2.952-6.704,2.952-6.704
		c8.392-10.784,2.416-67.088,2.416-67.088s-11.36,22.736-16.152,31.096c-4.784,8.36,3.592,20.6,2.992,44.504
		C164.588,155.32,164.572,157.224,164.7,165.224z"/>
	<circle style="fill:#1C2826;" cx="167.732" cy="133.464" r="19.792"/>
	<circle style="fill:#1C2826;" cx="151.732" cy="86.856" r="13.416"/>
	<circle style="fill:#1C2826;" cx="153.036" cy="108.568" r="19.8"/>
	<circle style="fill:#1C2826;" cx="155.604" cy="72.808" r="19.792"/>
	<circle style="fill:#1C2826;" cx="157.516" cy="60.824" r="19.8"/>
	<circle style="fill:#1C2826;" cx="165.652" cy="41.664" r="19.8"/>
	<circle style="fill:#1C2826;" cx="179.7" cy="34.64" r="19.8"/>
	<circle style="fill:#1C2826;" cx="149.852" cy="84.936" r="19.8"/>
	<circle style="fill:#1C2826;" cx="157.516" cy="116.864" r="19.8"/>
	<circle style="fill:#1C2826;" cx="325.484" cy="133.464" r="19.792"/>
	<circle style="fill:#1C2826;" cx="341.444" cy="86.856" r="13.416"/>
	<circle style="fill:#1C2826;" cx="340.188" cy="108.568" r="19.8"/>
	<circle style="fill:#1C2826;" cx="337.652" cy="72.808" r="19.792"/>
	<circle style="fill:#1C2826;" cx="335.732" cy="60.824" r="19.8"/>
	<circle style="fill:#1C2826;" cx="327.572" cy="41.664" r="19.8"/>
	<circle style="fill:#1C2826;" cx="313.492" cy="34.64" r="19.8"/>
	<path style="fill:#1C2826;" d="M323.572,84.936c0,10.936,8.872,19.8,19.784,19.8c10.944,0,19.824-8.856,19.824-19.8
		s-8.872-19.808-19.824-19.808C332.444,65.128,323.572,74,323.572,84.936z"/>
	<circle style="fill:#1C2826;" cx="335.732" cy="116.864" r="19.8"/>
	<polygon style="fill:#1C2826;" points="184.98,181.224 166.612,181.224 166.612,173.224 175.612,173.224 	"/>
	<polygon style="fill:#1C2826;" points="308.244,181.224 326.612,181.224 326.612,173.224 317.612,173.224 	"/>
</g>
<circle style="fill:#EF8A11;" cx="355.956" cy="414.664" r="34.496"/>
<path style="fill:#CC6D05;" d="M380.348,390.28c13.472,13.472,13.472,35.312,0,48.784c-13.48,13.472-35.32,13.472-48.776,0"/>
<g>
	<path style="fill:#994C00;" d="M328.86,393.352c5.088,5.672,8.192,13.128,8.192,21.32s-3.112,15.656-8.192,21.32
		c1.032,1.304,2.168,2.52,3.368,3.68c6.064-6.584,9.768-15.368,9.768-25s-3.704-18.408-9.768-25
		C331.036,390.824,329.892,392.048,328.86,393.352z"/>
	<path style="fill:#994C00;" d="M374.844,414.672c0-8.192,3.112-15.648,8.184-21.32c-1.032-1.304-2.144-2.52-3.36-3.68
		c-6.056,6.592-9.76,15.368-9.76,25c0,9.344,3.48,18.152,9.776,24.984c1.208-1.144,2.304-2.36,3.336-3.656
		C377.764,430.12,374.844,422.624,374.844,414.672z"/>
	<path style="fill:#994C00;" d="M321.46,413.224c0,0.832-0.6,4.752,0.624,8h67.736c0.632-4.184,0.632-7.168,0.632-8
		s-0.072,0-0.136,0H321.58C321.532,413.224,321.46,412.392,321.46,413.224z"/>
	<path style="fill:#994C00;" d="M350.612,380.304v68.744c0,0.064,3.168,0.12,4.008,0.12c0.824,0,3.992-0.056,3.992-0.12v-68.744
		c0-0.064-3.168-0.136-3.992-0.136C353.78,380.168,350.612,380.24,350.612,380.304z"/>
</g>
<g>
</g>
<g>
</g>
<g>
</g>
<g>
</g>
<g>
</g>
<g>
</g>
<g>
</g>
<g>
</g>
<g>
</g>
<g>
</g>
<g>
</g>
<g>
</g>
<g>
</g>
<g>
</g>
<g>
</g>
</svg>
