<?xml version="1.0" encoding="iso-8859-1"?>
<!-- Generator: Adobe Illustrator 19.0.0, SVG Export Plug-In . SVG Version: 6.00 Build 0)  -->
<svg version="1.1" id="Layer_1" xmlns="http://www.w3.org/2000/svg" xmlns:xlink="http://www.w3.org/1999/xlink" x="0px" y="0px"
	 viewBox="0 0 466.6 466.6" style="enable-background:new 0 0 466.6 466.6;" xml:space="preserve">
<ellipse style="fill:#720808;" cx="232.984" cy="325.48" rx="96.48" ry="72"/>
<path style="fill:#042635;" d="M115.816,224.584C93.528,246.872,80.8,271.384,83.96,284l-0.112,0.128l0.144,0.016
	c0,0,0.016,0.104,0.032,0.16l0.112-0.128c12.624,3.16,37.128-9.568,59.408-31.856c22.296-22.28,29.768-41.544,25.168-52.728
	l0.08-0.088c0,0-0.08-0.016-0.112-0.032c0,0-0.032-0.096-0.056-0.144l-0.088,0.088C157.384,194.808,138.104,202.304,115.816,224.584
	z"/>
<circle style="fill:#B70909;" cx="173.304" cy="196.04" r="18.496"/>
<path style="fill:#8C0C0C;" d="M173.304,177.512c10.216,0,18.496,8.28,18.496,18.496s-8.28,18.496-18.496,18.496"/>
<path style="fill:#042635;" d="M350.152,224.584c22.288,22.288,35.016,46.8,31.856,59.416l0.112,0.128
	c-0.048,0-0.088,0.008-0.144,0.016c0,0-0.016,0.104-0.032,0.16l-0.112-0.128c-12.624,3.16-37.128-9.568-59.408-31.856
	c-22.296-22.28-29.784-41.544-25.168-52.728l-0.08-0.088c0.04-0.008,0.08-0.016,0.112-0.032l0.056-0.144l0.088,0.088
	C308.584,194.808,327.864,202.304,350.152,224.584z"/>
<circle style="fill:#B70909;" cx="292.664" cy="196.04" r="18.496"/>
<path style="fill:#8C0C0C;" d="M292.664,177.512c-10.216,0-18.496,8.28-18.496,18.496s8.28,18.496,18.496,18.496"/>
<polygon style="fill:#CC2323;" points="433.928,334.392 280.984,287.152 280.984,274.6 184.984,274.6 184.984,287.16 
	32.032,334.392 39.776,466.6 39.776,466.6 40.984,466.6 424.984,466.6 426.872,466.6 426.872,466.6 "/>
<polygon style="fill:#B70909;" points="433.928,334.392 280.984,287.152 280.984,274.6 184.984,274.6 184.984,287.16 
	32.032,334.392 102.912,466.6 102.912,466.6 41.68,466.6 424.984,466.6 426.872,466.6 426.872,466.6 "/>
<polyline style="fill:#8C0C0C;" points="240.984,466.6 41.68,466.6 424.984,466.6 426.872,466.6 426.872,466.6 434.568,334.392 
	280.984,287.152 280.984,274.6 184.984,274.6 184.984,287.16 32.032,334.392 "/>
<path style="fill:#042635;" d="M337.648,133.456c0,35.344-51.264,64-104.672,64c-53.376,0-104.656-28.656-104.656-64
	s51.28-64,104.656-64C286.384,69.456,337.648,98.112,337.648,133.456z"/>
<g>
	<rect x="184.984" y="186.6" style="fill:#F9BDA0;" width="96" height="112"/>
	<polygon style="fill:#F9BDA0;" points="282.48,303.408 232.984,447.736 183.48,303.408 232.984,222.752 	"/>
</g>
<polygon style="fill:#EAA78C;" points="280.984,280.136 280.984,186.6 185.96,186.6 234.192,401.208 "/>
<path style="fill:#FCCCB9;" d="M307.944,102.112c0,72.24-36.624,137.616-74.944,137.616s-74.96-65.376-74.96-137.616
	S194.68,17.824,233,17.824S307.944,29.872,307.944,102.112z"/>
<path style="fill:#F9BDA0;" d="M233,17.824c38.32,0,74.944,12.048,74.944,84.288S271.32,239.728,233,239.728"/>
<g>
	<path style="fill:#042635;" d="M243.416,13.072c0,0-69.656,53.328,89.92,117.568c0,0,3.064-70.688-23-101.504
		c-26.08-30.8-66.44-27-66.44-27L243.416,13.072z"/>
	<path style="fill:#042635;" d="M268.368,3.96c0,0,64.168,71.112-135.672,132.048c0,0-11.784-75.976,18.984-108.528
		C182.44-5.072,237.6,0.336,237.6,0.336L268.368,3.96z"/>
</g>
<g>
	<polygon style="fill:#8C0C0C;" points="183,301.464 152.664,337.464 122.968,307.768 169.664,273.464 	"/>
	<polygon style="fill:#8C0C0C;" points="282.968,301.464 313.304,337.464 343,307.768 296.304,273.464 	"/>
	<rect x="168.984" y="346.6" style="fill:#8C0C0C;" width="128" height="120"/>
</g>
<circle style="fill:#F2D52A;" cx="187.504" cy="374.28" r="6.496"/>
<path style="fill:#EFA42B;" d="M182.912,369.664c2.528-2.536,6.656-2.536,9.184,0c2.544,2.536,2.544,6.656,0,9.192"/>
<circle style="fill:#F2D52A;" cx="187.504" cy="410.392" r="6.496"/>
<path style="fill:#EFA42B;" d="M182.912,405.792c2.528-2.536,6.656-2.536,9.184,0c2.544,2.536,2.544,6.656,0,9.192"/>
<circle style="fill:#F2D52A;" cx="187.504" cy="446.52" r="6.496"/>
<path style="fill:#EFA42B;" d="M182.912,441.936c2.528-2.544,6.656-2.544,9.184,0c2.544,2.528,2.544,6.656,0,9.184"/>
<g>
	<path style="fill:#FFA412;" d="M320.6,374.384c0,0,11.904,22.6-8.32,29.336c-20.216,6.744-23.384,16.056-21.008,23.488
		c2.384,7.448,12.192,13.088,19.336,2.088c7.128-11-3.88-16.656-11.6-6.832c0,0,3.856-9.216,11.88-5.944
		c8.024,3.264,1.8,22-12.792,20.216c-14.56-1.792-13.968-29.448,4.176-40.152c18.136-10.696,16.352-23.776,10.704-27.648
		c-5.656-3.856-14.88,10.704-4.76,12.792c0,0-15.32-2.208-6.256-12.792c9.968-11.592,13.384-5.36,15.168-1.784
		C318.912,370.712,320.6,374.384,320.6,374.384z"/>
	<circle style="fill:#FFA412;" cx="288.744" cy="440.744" r="1.032"/>
	<circle style="fill:#FFA412;" cx="283.544" cy="448.616" r="2.384"/>
	<circle style="fill:#FFA412;" cx="278.176" cy="453.64" r="0.592"/>
	<path style="fill:#FFA412;" d="M271.952,457.832c0,0.32,0.256,0.584,0.576,0.584c0.352,0,0.608-0.264,0.608-0.584
		c0-0.328-0.256-0.6-0.608-0.6C272.208,457.232,271.952,457.504,271.952,457.832z"/>
	<circle style="fill:#FFA412;" cx="301.384" cy="426.6" r="1.488"/>
	<circle style="fill:#FFA412;" cx="309.56" cy="377.408" r="2.232"/>
	<path style="fill:#FFA412;" d="M304.352,387.072c0,0-4.944-0.592-7.328-7.936c0,0-2.784,7.936,1.792,8.528
		C303.376,388.256,304.352,387.072,304.352,387.072z"/>
	<path style="fill:#FFA412;" d="M301.176,391.24l-5.936-1c0,0,1.984,4.16,3.168,3.168S301.176,391.24,301.176,391.24z"/>
	<path style="fill:#FFA412;" d="M257.792,388.72c0,0.496,0.408,0.896,0.896,0.896h15.456c0.504,0,0.896-0.408,0.896-0.896l0,0
		c0-0.496-0.392-0.888-0.896-0.888h-15.456C258.2,387.824,257.792,388.224,257.792,388.72L257.792,388.72z"/>
	<path style="fill:#FFA412;" d="M256.792,393.104c0,0.496,0.408,0.896,0.896,0.896h15.456c0.504,0,0.896-0.408,0.896-0.896l0,0
		c0-0.496-0.392-0.888-0.896-0.888h-15.456C257.192,392.216,256.792,392.616,256.792,393.104L256.792,393.104z"/>
	<path style="fill:#FFA412;" d="M255.416,397.512c0,0.496,0.408,0.896,0.896,0.896h15.456c0.504,0,0.896-0.408,0.896-0.896l0,0
		c0-0.496-0.392-0.888-0.896-0.888h-15.456C255.816,396.624,255.416,397.024,255.416,397.512L255.416,397.512z"/>
	<path style="fill:#FFA412;" d="M253.792,401.2c0,0.496,0.408,0.896,0.896,0.896h15.456c0.504,0,0.896-0.408,0.896-0.896l0,0
		c0-0.496-0.392-0.888-0.896-0.888h-15.456C254.192,400.312,253.792,400.712,253.792,401.2L253.792,401.2z"/>
</g>
<g>
</g>
<g>
</g>
<g>
</g>
<g>
</g>
<g>
</g>
<g>
</g>
<g>
</g>
<g>
</g>
<g>
</g>
<g>
</g>
<g>
</g>
<g>
</g>
<g>
</g>
<g>
</g>
<g>
</g>
</svg>
