<?xml version="1.0" encoding="iso-8859-1"?>
<!-- Generator: Adobe Illustrator 19.0.0, SVG Export Plug-In . SVG Version: 6.00 Build 0)  -->
<svg version="1.1" id="Layer_1" xmlns="http://www.w3.org/2000/svg" xmlns:xlink="http://www.w3.org/1999/xlink" x="0px" y="0px"
	 viewBox="0 0 466.6 466.6" style="enable-background:new 0 0 466.6 466.6;" xml:space="preserve">
<polygon style="fill:#FCCCB9;" points="434.248,334.392 281.304,287.152 281.304,274.6 185.304,274.6 185.304,287.16 
	32.352,334.392 40.104,466.6 40.104,466.6 41.304,466.6 425.304,466.6 427.424,466.6 427.424,466.6 "/>
<polygon style="fill:#F9BDA0;" points="434.248,334.392 281.304,311.152 281.304,274.6 185.304,274.6 185.304,311.16 
	32.352,334.392 99.512,466.6 99.512,466.6 42,466.6 425.304,466.6 427.424,466.6 427.424,466.6 "/>
<g>
	<polygon style="fill:#042635;" points="348.808,250.6 117.8,250.6 134.296,138.6 332.296,138.6 	"/>
	<path style="fill:#042635;" d="M337.968,133.456c0,35.344-51.264,64-104.672,64c-53.376,0-104.656-28.656-104.656-64
		s51.28-64,104.656-64C286.704,69.456,337.968,98.112,337.968,133.456z"/>
</g>
<rect x="185.304" y="186.6" style="fill:#F9BDA0;" width="96" height="112"/>
<polygon style="fill:#EAA78C;" points="280.824,288.68 280.336,186.6 186.28,186.6 234.032,321.944 "/>
<path style="fill:#FCCCB9;" d="M308.264,102.112c0,72.24-36.624,137.616-74.944,137.616s-74.96-65.376-74.96-137.616
	S195,17.824,233.32,17.824S308.264,29.872,308.264,102.112z"/>
<path style="fill:#F9BDA0;" d="M233.32,17.824c38.32,0,74.944,12.048,74.944,84.288S271.64,239.728,233.32,239.728"/>
<g>
	<path style="fill:#042635;" d="M243.736,13.072c0,0-69.656,53.328,89.92,117.568c0,0,3.064-70.688-23-101.504
		c-26.08-30.8-66.44-27-66.44-27L243.736,13.072z"/>
	<path style="fill:#042635;" d="M268.688,3.96c0,0,64.168,71.112-135.672,132.048c0,0-11.784-75.976,18.984-108.528
		c30.76-32.552,85.92-27.144,85.92-27.144L268.688,3.96z"/>
</g>
<path style="fill:#197791;" d="M102.016,466.6h131.872c0.344,0,0.568-1.672,0.568-3.2c0-20.16-69.776-51.84-106.496-51.84
	s-26.496,31.368-26.496,51.52C101.464,464.608,101.688,466.6,102.016,466.6z"/>
<path style="fill:#042635;" d="M102.016,466.6h131.872c0.344,0,0.568-1.672,0.568-3.2c0-20.16-69.776-43.84-106.496-43.84
	s-26.496,23.368-26.496,43.52C101.464,464.608,101.688,466.6,102.016,466.6z"/>
<path style="fill:#197791;" d="M364.584,466.6h-131.88c-0.328,0-0.56-1.672-0.56-3.2c0-20.16,69.784-51.84,106.504-51.84
	s26.496,31.368,26.496,51.52C365.144,464.608,364.92,466.6,364.584,466.6z"/>
<path style="fill:#042635;" d="M364.584,466.6h-131.88c-0.328,0-0.56-1.672-0.56-3.2c0-20.16,69.784-43.84,106.504-43.84
	s26.496,23.368,26.496,43.52C365.144,464.608,364.92,466.6,364.584,466.6z"/>
<path style="fill:#905DC1;" d="M235.768,141.648c0,13.76-18.92,24.912-42.296,24.912c-23.36,0-42.296-33.952-42.296-47.72
	s-8.952-33.192,11.248-21.008C199.608,120.288,235.768,127.888,235.768,141.648z"/>
<path style="fill:#5F3699;" d="M235.768,141.648c0,13.76-18.92,24.912-42.296,24.912c-23.36,0-42.296-33.952-42.296-47.72"/>
<path style="fill:#FFFFFF;" d="M218.624,141.768c0,6.808-11.096,12.328-24.752,12.328c-13.672,0-24.768-16.792-24.768-23.584
	c0-6.816-5.232-16.448,6.592-10.408C197.472,131.2,218.624,134.96,218.624,141.768z"/>
<path style="fill:#EAEAEA;" d="M218.624,141.768c0,6.808-11.096,12.328-24.752,12.328c-13.672,0-24.768-16.792-24.768-23.584"/>
<path style="fill:#905DC1;" d="M230.84,141.648c0,13.76,18.92,24.912,42.296,24.912c23.36,0,42.296-33.952,42.296-47.72
	s8.952-33.192-11.248-21.008C267,120.288,230.84,127.888,230.84,141.648z"/>
<path style="fill:#5F3699;" d="M230.84,141.648c0,13.76,18.92,24.912,42.296,24.912c23.36,0,42.296-33.952,42.296-47.72"/>
<path style="fill:#FFFFFF;" d="M247.984,141.768c0,6.808,11.096,12.328,24.768,12.328s24.752-16.792,24.752-23.584
	c0-6.816,5.248-16.448-6.576-10.408C269.136,131.2,247.984,134.96,247.984,141.768z"/>
<path style="fill:#EAEAEA;" d="M247.984,141.768c0,6.808,11.096,12.328,24.768,12.328s24.752-16.792,24.752-23.584"/>
<g>
</g>
<g>
</g>
<g>
</g>
<g>
</g>
<g>
</g>
<g>
</g>
<g>
</g>
<g>
</g>
<g>
</g>
<g>
</g>
<g>
</g>
<g>
</g>
<g>
</g>
<g>
</g>
<g>
</g>
</svg>
