<?xml version="1.0" encoding="iso-8859-1"?>
<!-- Generator: Adobe Illustrator 19.0.0, SVG Export Plug-In . SVG Version: 6.00 Build 0)  -->
<svg version="1.1" id="Layer_1" xmlns="http://www.w3.org/2000/svg" xmlns:xlink="http://www.w3.org/1999/xlink" x="0px" y="0px"
	 viewBox="0 0 496 496" style="enable-background:new 0 0 496 496;" xml:space="preserve">
<polygon style="fill:#15848C;" points="310.248,271.496 467.104,325.92 490.16,496 255.168,496 "/>
<polygon style="fill:#65DBD8;" points="185.744,271.496 28.896,325.92 5.84,496 240.84,496 "/>
<polygon style="fill:#4BB7B7;" points="161.728,377.728 28.896,325.92 5.84,496 240.84,496 "/>
<path style="fill:#00233F;" d="M332.088,100c0,40.12-30.216,76-67.504,76h-33.176c-37.272,0-67.504-35.88-67.504-76l0,0
	c0-40.136,30.224-76,67.504-76h33.176C301.872,24,332.088,59.864,332.088,100L332.088,100z"/>
<polygon style="fill:#F9BDA0;" points="308.336,304 187.664,304 195.712,200 300.296,200 "/>
<polygon style="fill:#E28F71;" points="308.336,304 247.8,304 187.664,200 300.296,200 "/>
<path style="fill:#FCCCB9;" d="M329.464,121.36c0,70.872-35.704,135-81.456,135c-45.768,0-81.488-64.128-81.488-135
	c0-70.88,35.72-82.68,81.488-82.68C293.76,38.68,329.464,50.48,329.464,121.36z"/>
<path style="fill:#F9BDA0;" d="M248.008,38.68c45.752,0,81.456,11.8,81.456,82.68c0,70.872-35.704,135-81.456,135"/>
<polygon style="fill:#2F9DA3;" points="432.024,341 327.104,290.08 324.12,260.552 311.432,261.128 248.008,261.264 
	184.568,261.096 171.872,260.464 168.888,289.904 63.976,341 36.576,496 193.312,496 240.84,496 255.168,496 304.904,496 
	459.424,496 "/>
<g>
	<polyline style="fill:#258E8E;" points="192,496 240.84,496 255.168,496 304.904,496 459.424,496 432.024,341 327.104,290.08 
		324.12,260.552 311.432,261.128 248.008,261.264 183.912,261.456 	"/>
</g>
<polyline style="fill:#15848C;" points="327.104,289.896 324.12,260.464 311.432,261.088 248.008,261.24 184.568,261.088 
	171.872,260.464 "/>
<g>
	<path style="fill:#00233F;" d="M167,110.616c-4.336-1.896-3.472-14.736,0.344-23.424c3.832-8.704,10.456-14.2,14.768-12.296
		c4.344,1.904,7.936,12.784,0.928,19.192"/>
	<path style="fill:#00233F;" d="M328.984,110.432c4.344-1.912,3.52-14.744-0.28-23.432c-3.816-8.68-10.408-14.168-14.752-12.256
		c-4.328,1.912-7.96,12.808-0.952,19.192"/>
</g>
<path style="fill:#4BB7B7;" d="M248,93.712c32.496,0,64-3.2,80-8.36V59.296C328,40.192,315.512,0,296.416,0h-96.824
	C180.496,0,168,40.192,168,59.296v26.056C184,90.504,215.504,93.712,248,93.712z"/>
<path style="fill:#65DBD8;" d="M246.608,93.528c32.496,0,65.392-3.024,81.392-8.176V59.296C328,40.192,315.512,0,296.416,0h-96.824
	c-19.096,0-34.368,38.68-34.368,85.568l0,0C181.216,85.568,214.112,93.528,246.608,93.528z"/>
<path style="fill:#4BB7B7;" d="M165.216,85.568c21.128,5.16,48.888,7.96,81.392,7.96S312,90.504,328,85.352V59.296
	C328,40.192,315.512,0,296.416,0H200"/>
<path style="fill:#2F9DA3;" d="M246.712,93.352c32.496,0,65.288-2.848,81.288-8V59.296C328,40.192,315.512,0,296.416,0H200"/>
<path style="fill:#15848C;" d="M246.504,93.712c32.496,0,68.088-3.936,84.088-9.096l0,0C329.464,32.648,315.512,0,296.416,0"/>
<g>
	<path style="fill:#FFE266;" d="M168,68.024v6.664c16,5.16,47.504,8.36,80,8.36s64-3.2,80-8.36v-6.664c-16,5.16-47.504,8.36-80,8.36
		S184,73.176,168,68.024z"/>
	<path style="fill:#FFE266;" d="M327.336,260c0,1.096-0.888,4-2,4h-154.68c-1.096,0-1.984-2.904-1.984-4l0,0
		c0-1.096,0.888-4,1.984-4h154.688C326.448,256,327.336,258.904,327.336,260L327.336,260z"/>
	<path style="fill:#FFE266;" d="M327.336,292c0,1.096-0.888,4-2,4h-154.68c-1.096,0-1.984-2.904-1.984-4l0,0
		c0-1.096,0.888-4,1.984-4h154.688C326.448,288,327.336,290.904,327.336,292L327.336,292z"/>
</g>
<path style="fill:#15848C;" d="M350.64,357.128C339.984,363.816,298.12,368.8,248,368.8s-91.984-4.984-102.64-11.672
	c-1.704,1.08-2.688,2.184-2.688,3.336c0,8.288,47.16,49.672,105.328,49.672s105.328-41.384,105.328-49.672
	C353.328,359.312,352.336,358.2,350.64,357.128z"/>
<circle style="fill:#FFE266;" cx="149.496" cy="358.712" r="12"/>
<path style="fill:#EFCA30;" d="M161.496,358.712c0,6.624-5.376,12-12,12s-12-5.376-12-12"/>
<circle style="fill:#FFE266;" cx="346.48" cy="358.712" r="12"/>
<path style="fill:#EFCA30;" d="M358.496,358.712c0,6.624-5.376,12-12,12s-12-5.376-12-12"/>
<path style="fill:#FFE266;" d="M350.64,356.04c-10.656,6.688-52.512,11.672-102.64,11.672s-91.984-4.984-102.64-11.672
	c-1.704,1.08-2.688,2.184-2.688,3.336c0,8.288,47.16,15,105.328,15s105.328-6.712,105.328-15
	C353.328,358.224,352.336,357.12,350.64,356.04z"/>
<path style="fill:#15848C;" d="M350.64,397.8c-10.656,6.688-52.512,11.672-102.64,11.672s-91.984-4.984-102.64-11.672
	c-1.704,1.08-2.688,2.184-2.688,3.336c0,8.288,47.16,49.672,105.328,49.672s105.328-41.384,105.328-49.672
	C353.328,399.984,352.336,398.872,350.64,397.8z"/>
<circle style="fill:#FFE266;" cx="149.496" cy="399.384" r="12"/>
<path style="fill:#EFCA30;" d="M161.496,399.384c0,6.624-5.376,12-12,12s-12-5.376-12-12"/>
<circle style="fill:#FFE266;" cx="346.48" cy="399.384" r="12"/>
<path style="fill:#EFCA30;" d="M358.496,399.384c0,6.624-5.376,12-12,12s-12-5.376-12-12"/>
<path style="fill:#FFE266;" d="M350.64,396.712c-10.656,6.688-52.512,11.672-102.64,11.672s-91.984-4.984-102.64-11.672
	c-1.704,1.08-2.688,2.184-2.688,3.336c0,8.288,47.16,15,105.328,15s105.328-6.712,105.328-15
	C353.328,398.896,352.336,397.792,350.64,396.712z"/>
<path style="fill:#15848C;" d="M350.64,438.472c-10.656,6.688-52.512,11.672-102.64,11.672s-91.984-4.984-102.64-11.672
	c-1.704,1.08-2.688,2.184-2.688,3.336c0,8.288,47.16,49.672,105.328,49.672s105.328-41.384,105.328-49.672
	C353.328,440.656,352.336,439.544,350.64,438.472z"/>
<circle style="fill:#FFE266;" cx="149.496" cy="440.08" r="12"/>
<path style="fill:#EFCA30;" d="M161.496,440.056c0,6.624-5.376,12-12,12s-12-5.376-12-12"/>
<circle style="fill:#FFE266;" cx="346.48" cy="440.08" r="12"/>
<path style="fill:#EFCA30;" d="M358.496,440.056c0,6.624-5.376,12-12,12s-12-5.376-12-12"/>
<path style="fill:#FFE266;" d="M350.64,437.384c-10.656,6.688-52.512,11.672-102.64,11.672s-91.984-4.984-102.64-11.672
	c-1.704,1.08-2.688,2.184-2.688,3.336c0,8.288,47.16,15,105.328,15s105.328-6.712,105.328-15
	C353.328,439.568,352.336,438.464,350.64,437.384z"/>
<g>
</g>
<g>
</g>
<g>
</g>
<g>
</g>
<g>
</g>
<g>
</g>
<g>
</g>
<g>
</g>
<g>
</g>
<g>
</g>
<g>
</g>
<g>
</g>
<g>
</g>
<g>
</g>
<g>
</g>
</svg>
