<?xml version="1.0" encoding="iso-8859-1"?>
<!-- Generator: Adobe Illustrator 19.0.0, SVG Export Plug-In . SVG Version: 6.00 Build 0)  -->
<svg version="1.1" id="Layer_1" xmlns="http://www.w3.org/2000/svg" xmlns:xlink="http://www.w3.org/1999/xlink" x="0px" y="0px"
	 viewBox="0 0 496 496" style="enable-background:new 0 0 496 496;" xml:space="preserve">
<path style="fill:#3D1F03;" d="M357.448,206.512c0,68.872-49,84.904-109.448,84.904s-109.448-16.032-109.448-84.904
	S187.552,81.808,248,81.808S357.448,137.64,357.448,206.512z"/>
<g>
	<rect x="56" y="408" style="fill:#F9BDA0;" width="384" height="88"/>
	<rect x="200" y="216" style="fill:#F9BDA0;" width="96" height="200"/>
</g>
<polygon style="fill:#EAA78C;" points="296,311.056 296,216 201.208,216 249.328,350.92 "/>
<path style="fill:#FCCCB9;" d="M322.584,133.92c0,71.88-36.44,136.928-74.568,136.928S173.432,205.8,173.432,133.92
	s36.456-83.864,74.584-83.864S322.584,62.04,322.584,133.92z"/>
<g>
	<path style="fill:#F9BDA0;" d="M248.016,50.056c38.128,0,74.568,11.992,74.568,83.864s-36.44,136.928-74.568,136.928"/>
	<polygon style="fill:#F9BDA0;" points="203.952,317.192 48.552,365.032 52.216,496 244.536,451.552 	"/>
</g>
<polyline style="fill:#FCCCB9;" points="48.552,365.032 52.216,496 244.536,451.552 "/>
<polygon style="fill:#F9BDA0;" points="292.064,317.192 447.456,365.032 443.784,496 251.448,451.552 "/>
<polyline style="fill:#EAA78C;" points="447.456,365.032 443.784,496 251.448,451.552 "/>
<path style="fill:#663D0C;" d="M231.128,36.192c0,0,23.144,114.512,116.72,126.112c0,0,3.048-70.336-22.88-100.992
	c-25.952-30.648-66.104-26.864-66.104-26.864L231.128,36.192z"/>
<path style="fill:#894D0C;" d="M283.208,36.256c0,0,18.872,89.728-134.992,131.384c0,0-11.72-75.6,18.888-107.992
	s85.496-27,85.496-27L283.208,36.256z"/>
<path style="fill:#663D0C;" d="M252.592,32.656l30.616,3.608c0,0,18.872,89.728-134.992,131.384"/>
<rect x="56" y="408" style="fill:#4BB7B7;" width="384" height="88"/>
<rect x="56" y="416" style="fill:#0B696B;" width="384" height="80"/>
<polygon style="fill:#65DBD8;" points="242.048,496 194.08,317.304 48,362.456 52.216,496 "/>
<polygon style="fill:#4BB7B7;" points="242.048,496 194.08,317.304 48,362.456 68.136,496 "/>
<polygon style="fill:#2F9DA3;" points="242.048,496 194.08,317.304 48,362.456 99.976,496 "/>
<polygon style="fill:#15848C;" points="242.048,496 117.104,486.04 48,362.456 99.976,496 "/>
<polygon style="fill:#2F9DA3;" points="253.952,496 301.92,317.304 448,362.456 443.784,496 "/>
<polygon style="fill:#15848C;" points="253.952,496 387.072,477.424 448,362.456 443.784,496 "/>
<g>
	<path style="fill:#FFE266;" d="M372.04,356c0,1.12-2.064,4-4.632,4h-54.4c-2.568,0-4.648-2.88-4.648-4l0,0c0-1.12,2.08-4,4.648-4
		h54.4C369.976,352,372.04,354.88,372.04,356L372.04,356z"/>
	<path style="fill:#FFE266;" d="M372.04,372c0,1.12-2.064,4-4.632,4h-54.4c-2.568,0-4.648-2.88-4.648-4l0,0c0-1.12,2.08-4,4.648-4
		h54.4C369.976,368,372.04,370.88,372.04,372L372.04,372z"/>
	<path style="fill:#FFE266;" d="M187.64,356c0,1.12-2.08,4-4.648,4h-54.4c-2.568,0-4.632-2.88-4.632-4l0,0c0-1.12,2.064-4,4.632-4
		h54.4C185.56,352,187.64,354.88,187.64,356L187.64,356z"/>
	<path style="fill:#FFE266;" d="M187.64,372c0,1.12-2.08,4-4.648,4h-54.4c-2.568,0-4.632-2.88-4.632-4l0,0c0-1.12,2.064-4,4.632-4
		h54.4C185.56,368,187.64,370.88,187.64,372L187.64,372z"/>
</g>
<path style="fill:#4BB7B7;" d="M248,89.104c32.336,0,64-3.184,80-8.32V54.856C328,35.856,315.168,0,296.168,0h-96.336
	C180.832,0,168,35.856,168,54.856v25.928C184,85.912,215.664,89.104,248,89.104z"/>
<path style="fill:#65DBD8;" d="M249.24,89.104c32.336,0,62.76-3.184,78.76-8.32V54.856C328,35.856,315.168,0,296.168,0h-96.336
	c-19,0-34.32,32.32-34.32,82.496l0,0C181.512,87.632,216.904,89.104,249.24,89.104z"/>
<path style="fill:#4BB7B7;" d="M165.512,82.496c21.024,5.136,48.912,7.464,81.248,7.464S312,85.912,328,80.784V54.856
	C328,35.856,315.168,0,296.168,0H200"/>
<path style="fill:#2F9DA3;" d="M246.76,89.96c32.336,0,65.24-4.048,81.24-9.176V54.856C328,35.856,315.168,0,296.168,0H200"/>
<path style="fill:#15848C;" d="M246.76,89.96c32.336,0,65.24-4.048,81.24-9.176V54.856C328,35.856,315.168,0,296.168,0"/>
<path style="fill:#FFE266;" d="M168,63.544v6.632c16,5.136,47.664,8.32,80,8.32s64-3.184,80-8.32v-6.632
	c-16,5.128-47.664,8.32-80,8.32S184,68.672,168,63.544z"/>
<path style="fill:#15848C;" d="M330.408,401.176c-8.552,5.368-42.168,9.368-82.4,9.368c-40.248,0-73.864-4-82.416-9.368
	c-1.368,0.864-2.16,1.76-2.16,2.672c0,6.664,37.856,39.88,84.576,39.88c46.704,0,84.56-33.224,84.56-39.88
	C332.568,402.936,331.776,402.04,330.408,401.176z"/>
<circle style="fill:#FFE266;" cx="168.88" cy="402.48" r="9.632"/>
<path style="fill:#EFCA30;" d="M178.544,402.448c0,5.328-4.312,9.64-9.624,9.64c-5.336,0-9.64-4.312-9.64-9.64"/>
<circle style="fill:#FFE266;" cx="327.088" cy="402.48" r="9.632"/>
<path style="fill:#EFCA30;" d="M336.72,402.448c0,5.328-4.312,9.64-9.624,9.64s-9.64-4.312-9.64-9.64"/>
<path style="fill:#FFE266;" d="M330.408,400.304c-8.552,5.368-42.168,9.368-82.4,9.368c-40.248,0-73.864-4-82.416-9.368
	c-1.368,0.864-2.16,1.752-2.16,2.68c0,6.656,37.856,12.04,84.576,12.04c46.704,0,84.56-5.392,84.56-12.04
	C332.568,402.056,331.776,401.168,330.408,400.304z"/>
<path style="fill:#15848C;" d="M330.408,428.04c-8.552,5.368-42.168,9.368-82.4,9.368c-40.248,0-73.864-4-82.416-9.368
	c-1.368,0.864-2.16,1.752-2.16,2.672c0,6.664,37.856,39.888,84.576,39.888c46.704,0,84.56-33.224,84.56-39.888
	C332.568,429.8,331.776,428.904,330.408,428.04z"/>
<circle style="fill:#FFE266;" cx="168.88" cy="429.312" r="9.632"/>
<path style="fill:#EFCA30;" d="M178.544,429.312c0,5.328-4.312,9.64-9.624,9.64c-5.336,0-9.64-4.32-9.64-9.64"/>
<circle style="fill:#FFE266;" cx="327.088" cy="429.312" r="9.632"/>
<path style="fill:#EFCA30;" d="M336.72,429.312c0,5.328-4.312,9.64-9.624,9.64s-9.64-4.32-9.64-9.64"/>
<path style="fill:#FFE266;" d="M330.408,427.168c-8.552,5.368-42.168,9.376-82.4,9.376c-40.248,0-73.864-4-82.416-9.376
	c-1.368,0.872-2.16,1.76-2.16,2.68c0,6.656,37.856,12.04,84.576,12.04c46.704,0,84.56-5.384,84.56-12.04
	C332.568,428.92,331.776,428.032,330.408,427.168z"/>
<path style="fill:#15848C;" d="M330.408,454.904c-8.552,5.368-42.168,9.368-82.4,9.368c-40.248,0-73.864-4-82.416-9.368
	c-1.368,0.864-2.16,1.76-2.16,2.672C163.432,464.24,201.28,496,248,496c46.704,0,84.568-31.76,84.568-38.416
	C332.568,456.664,331.776,455.768,330.408,454.904z"/>
<circle style="fill:#FFE266;" cx="168.88" cy="456.16" r="9.632"/>
<path style="fill:#EFCA30;" d="M178.544,456.168c0,5.328-4.312,9.64-9.624,9.64c-5.336,0-9.64-4.312-9.64-9.64"/>
<circle style="fill:#FFE266;" cx="327.088" cy="456.16" r="9.632"/>
<path style="fill:#EFCA30;" d="M336.72,456.168c0,5.328-4.312,9.64-9.624,9.64s-9.64-4.312-9.64-9.64"/>
<path style="fill:#FFE266;" d="M330.408,454.024c-8.552,5.368-42.168,9.376-82.4,9.376c-40.248,0-73.864-4-82.416-9.376
	c-1.368,0.872-2.16,1.76-2.16,2.68c0,6.656,37.856,12.04,84.576,12.04c46.704,0,84.56-5.384,84.56-12.04
	C332.568,455.784,331.776,454.896,330.408,454.024z"/>
<g>
</g>
<g>
</g>
<g>
</g>
<g>
</g>
<g>
</g>
<g>
</g>
<g>
</g>
<g>
</g>
<g>
</g>
<g>
</g>
<g>
</g>
<g>
</g>
<g>
</g>
<g>
</g>
<g>
</g>
</svg>
