<?xml version="1.0" encoding="iso-8859-1"?>
<!-- Generator: Adobe Illustrator 19.0.0, SVG Export Plug-In . SVG Version: 6.00 Build 0)  -->
<svg version="1.1" id="Layer_1" xmlns="http://www.w3.org/2000/svg" xmlns:xlink="http://www.w3.org/1999/xlink" x="0px" y="0px"
	 viewBox="0 0 496.384 496.384" style="enable-background:new 0 0 496.384 496.384;" xml:space="preserve">
<path style="fill:#F26B0F;" d="M202.992,222.688c0,0-36.496,10.432-16.944,45.624s-39.112,6.52-27.376,41.72
	c11.728,35.208-27.376-6.52-9.128,35.208c18.24,41.704,79.52,49.52,83.432,49.52c3.912,0,9.128-74.312,9.128-74.312l-9.128-76.904
	L202.992,222.688z"/>
<polygon style="fill:#0B3C5E;" points="445.2,364.576 296.192,318.392 296.192,304.192 200.192,304.192 200.192,318.408 
	51.184,364.576 61.024,496.384 64.192,496.104 61.144,496.192 432.192,496.192 432.192,495.648 435.76,496.344 "/>
<polygon style="fill:#00233F;" points="445.2,364.576 296.192,318.392 296.192,304.192 200.192,304.192 200.192,318.408 
	51.184,364.672 121.432,496.192 123.48,496.192 61.144,496.192 432.192,496.192 432.192,495.648 435.76,496.344 "/>
<polyline style="fill:#000102;" points="258.504,495.912 61.024,496.192 435.76,496.192 432.192,495.552 435.76,496.344 
	444.896,364.552 296.192,318.392 296.192,304.192 200.192,304.192 200.192,318.408 51.184,364.48 "/>
<ellipse style="fill:#C94E11;" cx="248.192" cy="168.12" rx="94.512" ry="62.576"/>
<g>
	<rect x="200.192" y="216.192" style="fill:#F9BDA0;" width="96" height="112"/>
	<polygon style="fill:#F9BDA0;" points="296.584,334.28 248.192,475.392 199.792,334.28 248.032,233.2 	"/>
</g>
<polygon style="fill:#EAA78C;" points="296.192,311.536 296.192,216.192 202.216,216.192 249.912,427.976 "/>
<path style="fill:#FCCCB9;" d="M321.488,137.472c0,70.632-35.816,134.552-73.28,134.552s-73.296-63.92-73.296-134.552
	s35.832-82.416,73.296-82.416S321.488,66.84,321.488,137.472z"/>
<path style="fill:#F9BDA0;" d="M248.208,55.056c37.464,0,73.28,11.784,73.28,82.416s-35.816,134.552-73.28,134.552"/>
<g>
	<path style="fill:#F26B0F;" d="M258.392,50.416c0,0-68.104,52.136,87.92,114.936c0,0-20.472-69.112-45.952-99.232
		c-25.496-30.12-41.496-26.4-41.496-26.4L258.392,50.416z"/>
	<path style="fill:#F26B0F;" d="M282.784,41.504c0,0,62.736,69.52-132.656,129.112c0,0,19.768-74.288,49.848-106.12
		c30.072-31.832,52.72-26.536,52.72-26.536L282.784,41.504z"/>
</g>
<g>
	<polygon style="fill:#000102;" points="199.32,332.384 169.656,367.584 140.624,338.56 186.28,305.016 	"/>
	<polygon style="fill:#000102;" points="297.064,332.384 326.728,367.584 355.76,338.56 310.104,305.016 	"/>
	<path style="fill:#000102;" d="M330.808,92.192c0,13.736-1.592,28-13.208,28H178.768c-11.616,0-13.192-14.264-13.192-28l0,0
		c0-13.752,9.4-28,21.008-28h123.192C321.392,64.192,330.808,78.44,330.808,92.192L330.808,92.192z"/>
	<ellipse style="fill:#000102;" cx="190.24" cy="56.352" rx="40.472" ry="35.544"/>
</g>
<path style="fill:#0B3C5E;" d="M149.768,56.368c0-19.632,18.112-35.552,40.472-35.552c22.336,0,40.472,15.92,40.472,35.552"/>
<ellipse style="fill:#000102;" cx="306.112" cy="56.352" rx="40.472" ry="35.544"/>
<path style="fill:#0B3C5E;" d="M265.68,56.368c0-19.632,18.128-35.552,40.48-35.552c22.344,0,40.464,15.92,40.464,35.552"/>
<path style="fill:#000102;" d="M317.448,48.592c0,21.736-39.872,39.344-69.744,39.344c-29.872,0-69.744-17.608-69.744-39.344
	C177.96,26.872,217.824,0,247.704,0C277.576,0,317.448,26.872,317.448,48.592z"/>
<path style="fill:#0B3C5E;" d="M177.96,48.592C177.96,26.872,217.824,0,247.704,0c29.872,0,69.744,26.872,69.744,48.592"/>
<path style="fill:#B7A7A1;" d="M248.192,380.432c-11.432,0-22.568-0.8-33.328-2.216l33.328,97.176l33.328-97.176
	C270.76,379.64,259.624,380.432,248.192,380.432z"/>
<path style="fill:#9E8C86;" d="M248.192,475.392l33.328-97.176c-10.76,1.424-21.896,2.216-33.328,2.216"/>
<rect x="208.192" y="408.192" style="fill:#000102;" width="80" height="88"/>
<g>
	<circle style="fill:#D6D6D6;" cx="273.392" cy="428.672" r="6.112"/>
	<circle style="fill:#D6D6D6;" cx="273.392" cy="467.152" r="6.112"/>
</g>
<g>
</g>
<g>
</g>
<g>
</g>
<g>
</g>
<g>
</g>
<g>
</g>
<g>
</g>
<g>
</g>
<g>
</g>
<g>
</g>
<g>
</g>
<g>
</g>
<g>
</g>
<g>
</g>
<g>
</g>
</svg>
