<?xml version="1.0" encoding="iso-8859-1"?>
<!-- Generator: Adobe Illustrator 19.0.0, SVG Export Plug-In . SVG Version: 6.00 Build 0)  -->
<svg version="1.1" id="Layer_1" xmlns="http://www.w3.org/2000/svg" xmlns:xlink="http://www.w3.org/1999/xlink" x="0px" y="0px"
	 viewBox="0 0 495.296 495.296" style="enable-background:new 0 0 495.296 495.296;" xml:space="preserve">
<rect x="159.648" y="271.296" style="fill:#000102;" width="176" height="56"/>
<rect x="167.648" y="287.296" style="fill:#F9BDA0;" width="160" height="168"/>
<path style="fill:#0B3C5E;" d="M461.176,329.368l-118.464-41.152l2.504-6.808l-15.496-6.528c-6.176,28-40.528,49.432-82.072,49.432
	c-41.56,0-75.896-21.472-82.064-49.472l-15.52,6.496l2.512,6.712L34.12,329.368L11.648,495.296H41.6h152.744h46.32h13.968h48.464
	h150.6h29.952L461.176,329.368z"/>
<path style="fill:#00233F;" d="M15.648,495.296H41.6h152.744h46.32h13.968h48.464h150.6h29.952l-22.472-165.928l-118.464-41.152
	l2.504-6.808l-15.496-6.528c-6.176,28-40.528,49.432-82.072,49.432c-41.56,0-75.896-21.472-82.064-49.472l-15.52,6.496l0.512,7.064"
	/>
<path style="fill:#000102;" d="M239.648,495.296h14.984h48.464h150.6h29.952l-22.472-165.928l-118.464-41.152l2.504-6.808
	l-15.496-6.528c-6.176,28-41.032,49.784-82.584,49.784"/>
<polygon style="fill:#F9BDA0;" points="307.328,303.296 189.728,303.296 197.584,207.296 299.496,207.296 "/>
<polygon style="fill:#E28F71;" points="307.344,305.144 260.752,322.48 189.744,207.296 299.504,207.296 "/>
<path style="fill:#FCCCB9;" d="M325.464,140.408c0-68.248-29.816-95.864-77.816-96.144v3.032c0,0,0.264,0,0.008,0
	c-0.272,0-0.008,0-0.008,0v-3.032c-48,0.28-77.816,27.896-77.816,96.144c0,68.248,29.816,129.96,77.816,131.424v0.136
	c0,0,0-0.056,0-0.064c0,0.008,0,0.064,0,0.064v-0.136C295.648,270.368,325.464,208.656,325.464,140.408z"/>
<g>
	<path style="fill:#F9BDA0;" d="M247.648,271.296v0.672c0,0,0-0.056,0-0.064c0,0.008,0,0.064,0,0.064v-0.136
		c48-1.472,77.816-63.176,77.816-131.432c0-68.24-29.816-95.856-77.816-96.136v3.032c0,0,0.264,0,0.008,0c-0.272,0-0.008,0-0.008,0
		l0,0"/>
	
		<rect x="192.199" y="42.652" transform="matrix(-0.9123 -0.4094 0.4094 -0.9123 438.2332 258.3874)" style="fill:#F9BDA0;" width="109.155" height="79.26"/>
</g>
<g>
	<path style="fill:#00233F;" d="M204.576,221.128c-0.192-0.224-0.304-0.368-0.304-0.368S204.352,220.968,204.576,221.128z"/>
	<path style="fill:#00233F;" d="M292.496,221.128c0.2-0.224,0.304-0.368,0.304-0.368S292.728,220.968,292.496,221.128z"/>
</g>
<g>
	<path style="fill:#BC700C;" d="M168.704,127.504c-4.216-1.848-3.384-22.16,0.336-30.624c3.728-8.48,10.184-21.64,14.392-19.784
		c4.232,1.856,7.736,20.248,0.912,26.504"/>
	<path style="fill:#BC700C;" d="M326.568,127.32c4.232-1.864,3.44-22.168-0.28-30.624c-3.712-8.464-10.144-21.608-14.376-19.744
		c-4.216,1.864-7.752,20.272-0.928,26.496"/>
</g>
<rect x="175.648" y="295.296" style="fill:#00233F;" width="144" height="200"/>
<g>
	<path style="fill:#000102;" d="M330.264,75.296c0,11.568-1.584,20-13.16,20H178.72c-11.576,0-13.16-8.432-13.16-20l0,0
		c0-11.576,9.376-20,20.952-20h122.792C320.88,55.296,330.264,63.72,330.264,75.296L330.264,75.296z"/>
	<ellipse style="fill:#000102;" cx="190.144" cy="47.456" rx="40.32" ry="29.936"/>
</g>
<path style="fill:#0B3C5E;" d="M149.816,47.488c0-16.536,18.048-29.944,40.336-29.944c22.28,0,40.336,13.408,40.336,29.944"/>
<ellipse style="fill:#000102;" cx="305.648" cy="47.456" rx="40.32" ry="29.936"/>
<path style="fill:#0B3C5E;" d="M265.344,47.488c0-16.536,18.064-29.944,40.336-29.944s40.328,13.408,40.328,29.944"/>
<path style="fill:#000102;" d="M316.952,40.936c0,18.296-39.736,33.136-69.52,33.136S177.92,59.24,177.92,40.936
	S217.648,0,247.432,0C277.216,0,316.952,22.64,316.952,40.936z"/>
<path style="fill:#0B3C5E;" d="M177.92,40.936C177.92,22.64,217.648,0,247.432,0s69.52,22.64,69.52,40.936"/>
<g>
	<circle style="fill:#D6D6D6;" cx="287.728" cy="348.248" r="6.096"/>
	<circle style="fill:#D6D6D6;" cx="287.728" cy="386.576" r="6.096"/>
	<circle style="fill:#D6D6D6;" cx="287.728" cy="424.896" r="6.096"/>
	<circle style="fill:#D6D6D6;" cx="287.728" cy="463.232" r="6.096"/>
</g>
<path style="fill:#7C4615;" d="M201.088,238.544c-0.192-0.36-0.304-0.616-0.304-0.616S200.864,238.304,201.088,238.544z"/>
<path style="fill:#77502A;" d="M247.648,201.32c-8-0.696-24.04,0.456-33.12,18.688c-9.64,19.248-12.6,19.448-13.48,18.536
	c1.416,2.4,7.552,10.36,23.128-2.592c11.136-9.256,15.472-10.48,23.472-10.088V201.32z"/>
<path style="fill:#7C4615;" d="M294.192,238.544c0.208-0.36,0.32-0.616,0.32-0.616S294.416,238.304,294.192,238.544z"/>
<path style="fill:#5E3A1C;" d="M247.648,201.32c8-0.696,24,0.456,33.112,18.688c9.64,19.248,12.616,19.448,13.472,18.536
	c-1.4,2.4-7.576,10.36-23.12-2.592c-11.136-9.256-15.464-10.48-23.464-10.088V201.32z"/>
<g>
</g>
<g>
</g>
<g>
</g>
<g>
</g>
<g>
</g>
<g>
</g>
<g>
</g>
<g>
</g>
<g>
</g>
<g>
</g>
<g>
</g>
<g>
</g>
<g>
</g>
<g>
</g>
<g>
</g>
</svg>
