<?xml version="1.0" encoding="iso-8859-1"?>
<!-- Generator: Adobe Illustrator 19.0.0, SVG Export Plug-In . SVG Version: 6.00 Build 0)  -->
<svg version="1.1" id="Layer_1" xmlns="http://www.w3.org/2000/svg" xmlns:xlink="http://www.w3.org/1999/xlink" x="0px" y="0px"
	 viewBox="0 0 492.208 492.208" style="enable-background:new 0 0 492.208 492.208;" xml:space="preserve">
<polygon style="fill:#E28F71;" points="325.936,451.2 168.064,451.2 160.272,283.584 333.728,283.584 "/>
<path style="fill:#1D98CE;" d="M459.624,326.632L341.16,285.664l2.496,1.08l-15.472-6.48c-6.184,20.184-40.528,41.648-82.08,41.648
	c-41.56,0-75.888-21.464-82.072-41.648l-15.504,6.488l2.504-1.08l-118.448,40.96l-22.48,165.576h29.952h152.752h46.312h13.968
	h48.472h150.592h29.952L459.624,326.632z"/>
<g>
	<path style="fill:#1982BC;" d="M101.648,492.208h91.16h46.312h13.968h48.472h150.592h29.952l-22.48-165.568L341.16,285.672
		l2.496,1.08l-15.472-6.488c-6.184,27.984-40.528,41.648-82.08,41.648c-41.56,0-75.888-13.664-82.072-41.648l-15.504,6.488
		l2.504-1.08l-118.448,40.96"/>
	<path style="fill:#1982BC;" d="M239.12,492.208h13.968h48.472h150.592h29.952l-22.48-165.568L341.16,285.672l2.496,1.08
		l-15.472-6.488c-6.184,20.184-40.528,41.648-82.08,41.648"/>
</g>
<polyline style="fill:#1466A3;" points="415.456,492.208 452.152,492.208 482.104,492.208 459.624,326.632 "/>
<polygon style="fill:#F9BDA0;" points="305.792,303.176 189.848,285.224 196.04,205.752 297.952,205.752 "/>
<polygon style="fill:#E28F71;" points="305.8,303.176 259.216,318.024 188.208,205.752 297.96,205.752 "/>
<path style="fill:#FCCCB9;" d="M324.696,138.032c0-68.24-33.984-95.872-77.816-96.144v-0.024c-0.256,0-0.512,0.016-0.776,0.016
	c-0.272,0-0.528-0.016-0.792-0.016v0.032c-43.832,0.264-77.816,27.896-77.816,96.144s33.984,129.952,77.816,131.432v0.136
	c0.256,0,0.512-0.064,0.792-0.072c0.256,0.008,0.512,0.072,0.776,0.072v-0.144C290.712,267.984,324.696,206.28,324.696,138.032z"/>
<path style="fill:#F9BDA0;" d="M245.32,269.464v0.136c0.256,0,0.512-0.064,0.792-0.072c0.256,0.008,0.512,0.072,0.776,0.072v-0.136
	c43.832-1.48,77.816-63.176,77.816-131.432c0-68.24-33.984-95.872-77.816-96.144v-0.024c-0.256,0-0.512,0.016-0.776,0.016
	c-0.272,0-0.528-0.016-0.792-0.016v0.032"/>
<path style="fill:#77502A;" d="M168.056,117.32c-4.216-1.84-3.376-29.952,0.336-38.416c3.728-8.488,10.176-6.048,14.384-4.184
	c4.232,1.856,23.336,20.248,16.512,26.504"/>
<g>
	<path style="fill:#00233F;" d="M203.032,218.736c-0.192-0.208-0.304-0.36-0.304-0.36S202.808,218.592,203.032,218.736z"/>
	<path style="fill:#00233F;" d="M290.952,218.736c0.192-0.208,0.304-0.36,0.304-0.36S291.184,218.592,290.952,218.736z"/>
</g>
<path style="fill:#B77F0F;" d="M261.48,80.552c0,0,36.536,27.288,61.392,46.784c0,0,33.144-75.048-48.728-86.736
	C192.28,28.904,261.48,80.552,261.48,80.552z"/>
<path style="fill:#F2B946;" d="M283.896,71.784c0,0-50.68,15.104-109.152,54.576c0,0-30.216-38.016,16.56-76.016
	c46.776-38.016,97.456-25.336,101.352-5.848C296.568,63.984,283.896,71.784,283.896,71.784z"/>
<path style="fill:#D39D24;" d="M292.656,44.496c3.904,19.496-8.768,27.288-8.768,27.288s-50.68,15.104-109.152,54.576"/>
<path style="fill:#60656D;" d="M193.264,240.392c-22.936,0-41.584-18.648-41.584-41.576V7.8c0-4.312,3.488-7.8,7.8-7.8
	s7.8,3.488,7.8,7.8v191.016c0,14.328,11.656,25.984,25.992,25.984c4.296,0,7.8,3.496,7.8,7.8
	C201.056,236.912,197.56,240.392,193.264,240.392z"/>
<rect x="151.704" y="12.328" style="fill:#F4750C;" width="15.592" height="14.304"/>
<polyline style="fill:#DB4A09;" points="151.672,26.632 167.272,26.632 167.272,12.328 "/>
<rect x="151.704" y="34.016" style="fill:#F4750C;" width="15.592" height="14.296"/>
<polyline style="fill:#DB4A09;" points="151.672,48.312 167.272,48.312 167.272,34.016 "/>
<rect x="151.704" y="55.696" style="fill:#F4750C;" width="15.592" height="14.304"/>
<polyline style="fill:#DB4A09;" points="151.672,70 167.272,70 167.272,55.696 "/>
<g>
	<path style="fill:#434851;" d="M193.264,224.8c-14.336,0-25.992-11.656-25.992-25.984V7.8c0-3.856-2.832-6.896-6.496-7.536v224.184
		c7.616,9.624,19.264,15.944,32.488,15.944c4.296,0,7.8-3.488,7.8-7.8C201.056,228.288,197.56,224.8,193.264,224.8z"/>
	<path style="fill:#434851;" d="M214.696,242.968c-0.32,0.016-0.632,0.096-0.976,0.096c-7.136,0-12.912-5.784-12.912-12.912
		s5.784-12.912,12.912-12.912c0.344,0,0.656,0.072,0.976,0.104v-12.92c-0.336-0.016-0.632-0.104-0.976-0.104
		c-14.264,0-25.832,11.552-25.832,25.832c0,14.264,11.56,25.824,25.832,25.824c0.344,0,0.64-0.072,0.976-0.088V242.968z"/>
</g>
<path style="fill:#55888E;" d="M158.176,151.696c0-25.296,39.704-30.216,88.68-30.216s88.688,4.92,88.688,30.216
	c0,25.288-39.712,45.8-88.688,45.8S158.176,176.984,158.176,151.696z"/>
<path style="fill:#3A666D;" d="M246.856,121.48c48.976,0,88.688,4.92,88.688,30.216c0,25.288-39.712,45.8-88.688,45.8"/>
<path style="fill:#7FBCBF;" d="M246.856,125.064c47.792,0,86.624,4.736,88.496,28.464c0.048-0.616,0.184-1.208,0.184-1.832
	c0-25.296-39.712-30.216-88.688-30.216s-88.68,4.92-88.68,30.216c0,0.616,0.136,1.208,0.176,1.832
	C160.224,129.8,199.056,125.064,246.856,125.064z"/>
<path style="fill:#7CD3DD;" d="M177.184,154.8c0-15.24,31.184-18.2,69.672-18.2c38.496,0,69.68,2.96,69.68,18.2
	c0,15.224-31.184,27.592-69.68,27.592C208.368,182.392,177.184,170.024,177.184,154.8z"/>
<g>
	<path style="fill:#ABF0F4;" d="M275.256,137.384L231,181.648c5.104,0.472,10.4,0.744,15.856,0.744c1.384,0,2.728-0.048,4.088-0.08
		l42.776-42.776C288.272,138.536,282.064,137.84,275.256,137.384z"/>
	<path style="fill:#ABF0F4;" d="M254.36,136.632c-2.472-0.024-4.96-0.04-7.504-0.04c-7.152,0-14.064,0.096-20.552,0.36l-34.64,34.64
		c5.6,2.872,12.592,5.312,20.608,7.144L254.36,136.632z"/>
	<path style="fill:#ABF0F4;" d="M296.592,140.088l-42.136,42.144c34.912-1.504,62.08-13.224,62.08-27.432
		C316.536,147.272,308.928,142.752,296.592,140.088z"/>
</g>
<path style="fill:#F4750C;" d="M175.056,158.936c0,2.576-2.08,4.664-4.656,4.664h-22.832c-2.576,0-4.664-2.088-4.664-4.664v-9.616
	c0-2.568,2.088-4.664,4.664-4.664H170.4c2.576,0,4.656,2.096,4.656,4.664V158.936z"/>
<path style="fill:#DB4A09;" d="M170.4,144.656h-5.704c-0.752,6.672-7.12,11.904-14.976,11.904c-2.472,0-4.768-0.56-6.824-1.48v3.848
	c0,2.576,2.088,4.664,4.664,4.664h22.832c2.576,0,4.656-2.088,4.656-4.664v-9.616C175.056,146.752,172.976,144.656,170.4,144.656z"
	/>
<g>
	<path style="fill:#434851;" d="M151.672,158.52c0,0.808-0.656,1.464-1.464,1.464l0,0c-0.816,0-1.472-0.656-1.472-1.464v-8.776
		c0-0.808,0.656-1.464,1.472-1.464l0,0c0.808,0,1.464,0.656,1.464,1.464V158.52z"/>
	<path style="fill:#434851;" d="M157.52,158.52c0,0.808-0.648,1.464-1.464,1.464l0,0c-0.808,0-1.464-0.656-1.464-1.464v-8.776
		c0-0.808,0.656-1.464,1.464-1.464l0,0c0.816,0,1.464,0.656,1.464,1.464V158.52z"/>
</g>
<path style="fill:#F4750C;" d="M318.656,149.32c0-2.568,2.08-4.664,4.648-4.664h22.848c2.568,0,4.656,2.096,4.656,4.664v9.616
	c0,2.576-2.088,4.664-4.656,4.664h-22.848c-2.568,0-4.648-2.088-4.648-4.664V149.32z"/>
<path style="fill:#DB4A09;" d="M323.304,163.608h5.72c0.736-6.672,7.112-11.904,14.968-11.904c2.464,0,4.768,0.56,6.824,1.48v-3.848
	c0-2.568-2.088-4.664-4.656-4.664h-22.856c-2.568,0-4.648,2.096-4.648,4.664v9.616C318.656,161.52,320.736,163.608,323.304,163.608z
	"/>
<g>
	<path style="fill:#434851;" d="M342.04,149.744c0-0.808,0.656-1.464,1.472-1.464l0,0c0.808,0,1.464,0.656,1.464,1.464v8.776
		c0,0.808-0.656,1.464-1.464,1.464l0,0c-0.816,0-1.472-0.656-1.472-1.464V149.744z"/>
	<path style="fill:#434851;" d="M336.2,149.744c0-0.808,0.648-1.464,1.464-1.464l0,0c0.816,0,1.464,0.656,1.464,1.464v8.776
		c0,0.808-0.648,1.464-1.464,1.464l0,0c-0.816,0-1.464-0.656-1.464-1.464V149.744z"/>
</g>
<path style="fill:#F4750C;" d="M267,192.352c0,7.032-12.496,16.832-21.048,16.832c-8.52,0-21.024-9.808-21.024-16.832
	c0-7.04,12.496-29.168,21.024-29.168C254.504,163.192,267,185.312,267,192.352z"/>
<path style="fill:#DB4A09;" d="M245.952,163.192c8.544,0,21.048,22.128,21.048,29.168c0,7.032-12.496,16.832-21.048,16.832"/>
<path style="fill:#FC8D3A;" d="M245.952,167.328c7.744,0,18.688,18.112,20.696,26.76c0.16-0.576,0.352-1.192,0.352-1.736
	c0-7.04-12.496-29.168-21.048-29.168c-8.52,0-21.024,22.128-21.024,29.168c0,0.536,0.2,1.16,0.344,1.736
	C227.288,185.44,238.24,167.328,245.952,167.328z"/>
<path style="fill:#515191;" d="M317.912,366.2c1.288-2.336,2.752-4.384,4.36-6.168c-8.064-9.048-19.264-10.84-28.584-5.68
	l19.264,34.84C312.256,381.8,313.944,373.36,317.912,366.2z"/>
<g>
	<polygon style="fill:#3F3F72;" points="322.256,406.064 322.272,406.064 322.256,406.048 	"/>
	<path style="fill:#3F3F72;" d="M322.272,406.064v-0.016V406.064z"/>
	<path style="fill:#3F3F72;" d="M331.576,389.2l19.256-34.84c-9.32-5.168-20.544-3.368-28.56,5.68
		c1.576,1.784,3.04,3.832,4.336,6.168C330.568,373.36,332.256,381.8,331.576,389.2z"/>
	<path style="fill:#3F3F72;" d="M212.4,416.664c-10.872,5.432-14.304,20.6-5.488,38.184c8.8,17.568,26.488,30.88,37.352,25.432
		L212.4,416.664z"/>
</g>
<path style="fill:#A6A6E2;" d="M141.376,406.096c0,30.912,30.576,55.96,80.536,55.96c49.976,0,100.384-25.048,100.384-55.96H141.376
	z"/>
<path style="fill:#8F8FCC;" d="M147.608,406.096c0,29.84,29.528,54.048,77.76,54.048c48.256,0,96.928-24.2,96.928-54.048H147.608z"
	/>
<path style="fill:#7B7BBA;" d="M154.304,406.096c0,28.712,28.4,51.952,74.8,51.952c46.384,0,93.192-23.24,93.192-51.952H154.304z"/>
<path style="fill:#6965A8;" d="M160.952,406.096c0,27.576,27.28,49.92,71.824,49.92s89.52-22.344,89.52-49.92H160.952z"/>
<path style="fill:#515191;" d="M176.088,406.096c0,24.992,24.72,45.24,65.096,45.24s81.12-20.248,81.12-45.24H176.088z"/>
<path style="fill:#3F3F72;" d="M205.456,406.096c0,19.968,19.752,36.136,52.016,36.136s64.832-16.168,64.832-36.136H205.456z"/>
<path style="fill:#6965A8;" d="M326.6,366.2c-1.296-2.336-2.76-4.384-4.336-6.168c-1.608,1.784-3.072,3.832-4.36,6.168
	c-3.96,7.168-5.656,15.6-4.96,23l9.304,16.848l0.016,0.016v-0.016l9.304-16.848C332.256,381.8,330.568,373.36,326.6,366.2z"/>
<path style="fill:#515191;" d="M236.944,416.664c-9.968,15.088-3.096,37.192,21.32,53.288c24.408,16.112,57.12,20.128,67.072,5.008
	L236.944,416.664z"/>
<path style="fill:#3F3F72;" d="M250.688,425.72c-6.856,10.408-2.144,25.632,14.68,36.736c16.832,11.104,39.368,13.856,46.216,3.44
	L250.688,425.72z"/>
<circle style="fill:#FFFFFF;" cx="197.408" cy="414.984" r="2.616"/>
<rect x="190.396" y="364.86" transform="matrix(0.7066 -0.7076 0.7076 0.7066 -205.4119 249.2594)" style="fill:#19DAF4;" width="14.96" height="14.952"/>
<g>
	<polyline style="fill:#0FBCD3;" points="212.84,364.416 220.328,364.416 220.328,371.928 	"/>
	<polyline style="fill:#0FBCD3;" points="182.888,382.048 175.376,382.048 175.376,389.552 	"/>
</g>
<polyline style="fill:#00899B;" points="190.992,352.984 197.864,346.12 204.744,352.984 "/>
<polyline style="fill:#0FBCD3;" points="193.216,335.168 197.864,330.512 202.52,335.168 "/>
<polyline style="fill:#00899B;" points="193.216,399.408 197.864,394.768 202.52,399.408 "/>
<g>
	<circle style="fill:#A6A6E2;" cx="270.984" cy="418.024" r="2.496"/>
	<circle style="fill:#A6A6E2;" cx="281.776" cy="418.024" r="2.496"/>
	<circle style="fill:#A6A6E2;" cx="292.616" cy="418.024" r="2.496"/>
</g>
<g>
</g>
<g>
</g>
<g>
</g>
<g>
</g>
<g>
</g>
<g>
</g>
<g>
</g>
<g>
</g>
<g>
</g>
<g>
</g>
<g>
</g>
<g>
</g>
<g>
</g>
<g>
</g>
<g>
</g>
</svg>
