<?xml version="1.0" encoding="iso-8859-1"?>
<!-- Generator: Adobe Illustrator 19.0.0, SVG Export Plug-In . SVG Version: 6.00 Build 0)  -->
<svg version="1.1" id="Layer_1" xmlns="http://www.w3.org/2000/svg" xmlns:xlink="http://www.w3.org/1999/xlink" x="0px" y="0px"
	 viewBox="0 0 495.416 495.416" style="enable-background:new 0 0 495.416 495.416;" xml:space="preserve">
<path style="fill:#BF1008;" d="M382.42,195.832c0,64.816-59.872,48.456-133.728,48.456s-133.728,16.36-133.728-48.456
	s59.872-143.2,133.728-143.2C322.548,52.632,382.42,131.016,382.42,195.832z"/>
<path style="fill:#820B0B;" d="M382.42,195.832c0,64.816-59.872,151.816-133.728,151.816s-133.728-87-133.728-151.816
	S174.836,95.704,248.692,95.704S382.42,131.016,382.42,195.832z"/>
<path style="fill:#680202;" d="M382.42,195.832c0,64.816-59.872,117.36-133.728,117.36s-133.728-52.544-133.728-117.36
	S174.836,95.704,248.692,95.704S382.42,131.016,382.42,195.832z"/>
<path style="fill:#4C0000;" d="M382.42,195.832c0,64.816-59.872,82.912-133.728,82.912s-133.728-18.096-133.728-82.912
	S174.836,95.704,248.692,95.704S382.42,131.016,382.42,195.832z"/>
<rect x="63.708" y="399.416" style="fill:#F9BDA0;" width="368" height="96"/>
<path style="fill:#542F08;" d="M168.3,313.736c-10.192-19.736-14.64-139.448-15.928-142c-1.264-2.56,4.664-7.544,4.664-7.544
	l71.696-14.68l4.336,99.344l-26.784,31.104"/>
<path style="fill:#3D1F03;" d="M152.372,171.736c-1.264-2.56,4.664-7.544,4.664-7.544l71.696-14.68l4.336,99.344l-26.784,31.104
	l4.04,34.416"/>
<path style="fill:#542F08;" d="M327.124,313.736c10.192-19.736,14.648-139.448,15.928-142c1.272-2.56-4.656-7.544-4.656-7.544
	l-71.696-14.68l-4.336,99.344l26.784,31.104"/>
<path style="fill:#3D1F03;" d="M343.052,171.736c1.272-2.56-4.656-7.544-4.656-7.544l-71.696-14.68l-4.336,99.344l26.784,31.104
	l-4.04,34.416"/>
<rect x="199.708" y="223.416" style="fill:#F9BDA0;" width="96" height="192"/>
<polygon style="fill:#EAA78C;" points="295.708,313.096 295.708,223.416 202.796,223.416 249.94,352.152 "/>
<path style="fill:#FCCCB9;" d="M319.308,143.048c0,69.008-34.984,131.456-71.584,131.456s-71.6-62.448-71.6-131.456
	c0-69,35-80.512,71.6-80.512S319.308,74.048,319.308,143.048z"/>
<g>
	<path style="fill:#F9BDA0;" d="M247.724,62.536c36.608,0,71.584,11.512,71.584,80.512c0,69.008-34.984,131.456-71.584,131.456"/>
	<polygon style="fill:#F9BDA0;" points="205.42,318.984 56.236,364.912 63.868,493.688 244.388,447.968 	"/>
</g>
<polyline style="fill:#FCCCB9;" points="56.236,364.912 63.868,493.688 244.388,447.968 "/>
<polygon style="fill:#F9BDA0;" points="290.012,318.984 439.188,364.912 431.548,493.688 251.012,447.968 "/>
<polyline style="fill:#EAA78C;" points="439.188,364.912 431.548,493.688 251.012,447.968 "/>
<path style="fill:#663D0C;" d="M231.508,49.232c0,0,22.216,109.944,112.056,121.064c0,0,2.92-67.52-21.968-96.952
	c-24.912-29.416-63.464-25.784-63.464-25.784L231.508,49.232z"/>
<path style="fill:#894D0C;" d="M281.508,49.288c0,0,18.112,86.136-129.592,126.128c0,0-11.256-72.576,18.128-103.664
	s82.072-25.928,82.072-25.928L281.508,49.288z"/>
<path style="fill:#663D0C;" d="M252.116,45.824l29.392,3.464c0,0,18.112,86.136-129.592,126.128"/>
<rect x="63.708" y="399.416" style="fill:#B72D08;" width="368" height="96"/>
<rect x="63.708" y="415.416" style="fill:#931B03;" width="368" height="80"/>
<polygon style="fill:#D82727;" points="241.988,495.416 195.94,321.48 55.708,366.016 59.748,495.416 "/>
<g>
	<polygon style="fill:#BF1008;" points="241.988,495.416 195.94,321.48 55.708,366.016 75.036,495.416 	"/>
	<polygon style="fill:#BF1008;" points="241.988,495.416 195.94,321.48 55.708,366.016 105.604,495.416 	"/>
</g>
<polygon style="fill:#A50A0A;" points="241.988,495.416 120.7,475.6 55.708,366.016 105.604,495.416 "/>
<polygon style="fill:#BF1008;" points="253.428,495.416 299.476,321.48 439.708,366.016 435.668,495.416 "/>
<polygon style="fill:#A50A0A;" points="253.428,495.416 392.924,468.912 439.708,366.016 435.668,495.416 "/>
<path style="fill:#D82727;" d="M347.66,94.76c0,29.416-48.536,25.168-98.968,25.168c-50.448,0-98.968,4.248-98.968-25.168
	c0-29.424,48.512-74.96,98.968-74.96C299.124,19.808,347.66,65.344,347.66,94.76z"/>
<path style="fill:#BF1008;" d="M248.7,19.808c50.432,0,98.968,45.536,98.968,74.96c0,29.416-48.536,25.168-98.968,25.168
	c-50.448,0-98.968,4.248-98.968-25.168"/>
<path style="fill:#820B0B;" d="M248.7,19.808c50.432,0,98.968,45.536,98.968,74.96c0,29.416-48.536,25.168-98.968,25.168"/>
<path style="fill:#D82727;" d="M333.692,115.112c0,4.936-38.048,16.896-85,16.896c-46.96,0-85.016-11.968-85.016-16.896
	c0-4.944,38.056-31.872,85.016-31.872C295.644,83.24,333.692,110.168,333.692,115.112z"/>
<path style="fill:#BF1008;" d="M333.692,115.112c0,4.936-38.048,16.896-85,16.896c-46.96,0-85.016-11.968-85.016-16.896
	c0-4.944,38.056-8.952,85.016-8.952C295.644,106.16,333.692,110.168,333.692,115.112z"/>
<path style="fill:#820B0B;" d="M333.692,115.112c0,4.936-38.048,16.896-85,16.896c-46.96,0-85.016-11.968-85.016-16.896
	c0-4.944,38.056,6.336,85.016,6.336C295.644,121.44,333.692,110.168,333.692,115.112z"/>
<polygon style="fill:#FFE266;" points="229.684,63.416 217.948,29.08 248.7,0 279.436,28.632 267.692,63.416 "/>
<polygon style="fill:#E8C42D;" points="229.684,63.416 217.948,29.08 248.7,35.016 279.436,28.632 267.692,63.416 "/>
<g>
	<polygon style="fill:#D3AE11;" points="229.684,63.416 247.524,49.888 248.7,0 279.436,28.632 267.692,63.416 	"/>
	<circle style="fill:#D3AE11;" cx="248.668" cy="40.632" r="10.984"/>
</g>
<path style="fill:#B78C04;" d="M240.924,32.864c4.28-4.288,11.248-4.28,15.528,0c4.296,4.304,4.288,11.248,0.008,15.528"/>
<g>
	
		<ellipse transform="matrix(-0.5256 -0.8508 0.8508 -0.5256 138.0567 308.9941)" style="fill:#BF1008;" cx="155.185" cy="116.003" rx="8.913" ry="11.465"/>
	
		<ellipse transform="matrix(-0.5254 0.8509 -0.8509 -0.5254 620.7094 -114.1852)" style="fill:#BF1008;" cx="342.201" cy="116.025" rx="8.904" ry="11.472"/>
</g>
<g>
	<path style="fill:#350101;" d="M152.02,337.952c1.032,3.368-15.296,3.712-36.488,10.232c-21.176,6.488-39.176,16.68-40.208,13.32
		c-1.024-3.368,15.304-19.008,36.48-25.504C132.972,329.496,150.988,334.6,152.02,337.952z"/>
	<path style="fill:#350101;" d="M343.396,337.952c-1.032,3.368,15.296,3.712,36.488,10.232c21.176,6.488,39.176,16.68,40.208,13.32
		c1.024-3.368-15.304-19.008-36.48-25.504C362.444,329.496,344.428,334.6,343.396,337.952z"/>
	<path style="fill:#350101;" d="M327.708,461.08c0,5.984-7.472,10.336-13.432,10.336H181.132c-5.968,0-13.424-4.352-13.424-10.336
		v-20.784c0-5.968,7.456-8.88,13.424-8.88h133.144c5.96,0,13.432,2.912,13.432,8.88V461.08z"/>
</g>
<path style="fill:#0F0000;" d="M327.708,439.416v21.664c0,5.984-7.472,10.336-13.432,10.336H181.132
	c-5.968,0-13.424-4.352-13.424-10.336v-13.664"/>
<g>
	<circle style="fill:#BF1008;" cx="208.268" cy="451.656" r="2.624"/>
	<circle style="fill:#BF1008;" cx="221.444" cy="451.656" r="2.624"/>
	<circle style="fill:#BF1008;" cx="234.572" cy="451.656" r="2.624"/>
	<circle style="fill:#BF1008;" cx="247.708" cy="451.656" r="2.632"/>
	<circle style="fill:#BF1008;" cx="260.836" cy="451.656" r="2.632"/>
	<circle style="fill:#BF1008;" cx="273.948" cy="451.656" r="2.624"/>
	<circle style="fill:#BF1008;" cx="287.116" cy="451.656" r="2.624"/>
</g>
<g>
	<circle style="fill:#D3AE11;" cx="186.588" cy="367.976" r="5.24"/>
	<circle style="fill:#D3AE11;" cx="198.492" cy="404.824" r="5.248"/>
	<circle style="fill:#D3AE11;" cx="308.828" cy="367.976" r="5.248"/>
	<circle style="fill:#D3AE11;" cx="296.908" cy="404.824" r="5.248"/>
</g>
<g>
</g>
<g>
</g>
<g>
</g>
<g>
</g>
<g>
</g>
<g>
</g>
<g>
</g>
<g>
</g>
<g>
</g>
<g>
</g>
<g>
</g>
<g>
</g>
<g>
</g>
<g>
</g>
<g>
</g>
</svg>
