<?xml version="1.0" encoding="iso-8859-1"?>
<!-- Generator: Adobe Illustrator 19.0.0, SVG Export Plug-In . SVG Version: 6.00 Build 0)  -->
<svg version="1.1" id="Layer_1" xmlns="http://www.w3.org/2000/svg" xmlns:xlink="http://www.w3.org/1999/xlink" x="0px" y="0px"
	 viewBox="0 0 466.616 466.616" style="enable-background:new 0 0 466.616 466.616;" xml:space="preserve">
<ellipse style="fill:#042635;" cx="232.992" cy="264.304" rx="85.504" ry="78.496"/>
<polygon style="fill:#F91E77;" points="433.936,334.392 280.992,287.152 280.992,274.6 184.992,274.6 184.992,287.16 32.04,334.392 
	39.744,466.6 40.992,466.6 40.992,466.6 424.992,466.6 426.872,466.616 426.872,466.616 "/>
<polygon style="fill:#E80C60;" points="433.936,334.392 280.992,287.152 280.992,274.6 184.992,274.6 184.992,287.16 32.04,334.392 
	105.616,466.6 105.616,466.6 41.688,466.6 424.992,466.6 426.872,466.616 426.872,466.616 "/>
<polyline style="fill:#CE0D4E;" points="240.992,466.6 41.688,466.6 424.992,466.6 426.872,466.616 426.872,466.616 
	434.576,334.392 280.992,287.152 280.992,274.6 184.992,274.6 184.992,287.16 32.04,334.392 "/>
<path style="fill:#042635;" d="M337.656,133.456c0,35.344-51.264,64-104.672,64c-53.376,0-104.656-28.656-104.656-64
	s51.28-64,104.656-64C286.392,69.456,337.656,98.112,337.656,133.456z"/>
<g>
	<path style="fill:#FFB90B;" d="M323.248,125.336c0,6.256-5.104,20.12-11.408,20.12c-6.28,0-11.344-13.856-11.344-20.12
		c0-6.288,5.064-11.384,11.344-11.384C318.152,113.952,323.248,119.048,323.248,125.336z"/>
	<path style="fill:#FFB90B;" d="M300.496,171.976c0-6.256,5.064-20.12,11.344-20.12c6.304,0,11.408,13.856,11.408,20.12
		c0,6.288-5.104,11.384-11.408,11.384C305.56,183.36,300.496,178.264,300.496,171.976z"/>
</g>
<g>
	<path style="fill:#FF6E0B;" d="M336.416,140.2c-4.456,4.456-17.832,10.624-22.264,6.168c-4.432-4.432,1.744-17.816,6.168-22.248
		c4.448-4.456,11.64-4.456,16.096,0C340.84,128.56,340.84,135.768,336.416,140.2z"/>
	<path style="fill:#FF6E0B;" d="M287.344,157.104c4.44-4.432,17.816-10.608,22.264-6.168c4.432,4.432-1.752,17.816-6.168,22.248
		c-4.464,4.456-11.656,4.456-16.096,0C282.904,168.752,282.904,161.544,287.344,157.104z"/>
</g>
<g>
	<path style="fill:#FFB90B;" d="M335.184,160.04c-6.264,0-20.128-5.12-20.128-11.408c0-6.28,13.856-11.336,20.128-11.336
		c6.28,0,11.384,5.056,11.384,11.336C346.568,154.92,341.472,160.04,335.184,160.04z"/>
	<path style="fill:#FFB90B;" d="M288.56,137.296c6.232,0,20.12,5.056,20.12,11.336c0,6.288-13.88,11.408-20.12,11.408
		c-6.296,0-11.4-5.12-11.4-11.408C277.16,142.352,282.264,137.296,288.56,137.296z"/>
</g>
<g>
	<path style="fill:#FF6E0B;" d="M320.32,173.184c-4.432-4.44-10.6-17.824-6.168-22.248c4.432-4.44,17.816,1.744,22.264,6.168
		c4.432,4.44,4.432,11.64,0,16.08C331.96,177.64,324.768,177.64,320.32,173.184z"/>
	<path style="fill:#FF6E0B;" d="M303.44,124.12c4.424,4.44,10.6,17.824,6.168,22.248c-4.456,4.456-17.832-1.72-22.264-6.168
		c-4.44-4.44-4.44-11.64,0-16.08C291.784,119.672,298.976,119.672,303.44,124.12z"/>
</g>
<g>
	<rect x="184.992" y="186.6" style="fill:#F9BDA0;" width="96" height="112"/>
	<polygon style="fill:#F9BDA0;" points="282.488,303.408 232.992,447.736 183.488,303.408 233,204.6 	"/>
</g>
<polygon style="fill:#EAA78C;" points="280.992,280.136 280.992,186.6 185.968,186.6 234.2,401.208 "/>
<path style="fill:#FCCCB9;" d="M307.952,102.112c0,72.24-36.624,137.616-74.944,137.616s-74.96-65.376-74.96-137.616
	s36.64-84.288,74.96-84.288S307.952,29.872,307.952,102.112z"/>
<path style="fill:#F9BDA0;" d="M233.008,17.824c38.32,0,74.944,12.048,74.944,84.288s-36.624,137.616-74.944,137.616"/>
<g>
	<path style="fill:#042635;" d="M243.424,13.072c0,0-35.312,20.408,78.72,106.36c0,0,14.264-59.48-11.8-90.288
		c-26.08-30.8-66.44-27-66.44-27L243.424,13.072z"/>
	<path style="fill:#042635;" d="M268.376,3.96c0,0,64.16,71.112-135.672,132.048c0,0-11.784-75.976,18.984-108.528
		c30.76-32.552,85.92-27.144,85.92-27.144L268.376,3.96z"/>
</g>
<g>
	
		<rect x="177.021" y="298.998" transform="matrix(-0.9484 0.3172 -0.3172 -0.9484 470.305 683.4467)" style="fill:#FFA10B;" width="5" height="162.014"/>
	
		<rect x="283.976" y="298.93" transform="matrix(0.9487 0.3162 -0.3162 0.9487 134.833 -71.0924)" style="fill:#FFA10B;" width="5.016" height="162.009"/>
</g>
<polygon style="fill:#042635;" points="232.992,446.2 258.92,370.6 207.064,370.6 "/>
<g>
	<path style="fill:#FFB90B;" d="M71.456,338.424c0,2.624-2.144,8.448-4.8,8.448c-2.624,0-4.752-5.824-4.752-8.448
		c0-2.64,2.128-4.776,4.752-4.776C69.312,333.648,71.456,335.776,71.456,338.424z"/>
	<path style="fill:#FFB90B;" d="M61.904,358c0-2.632,2.128-8.448,4.752-8.448c2.656,0,4.8,5.816,4.8,8.448s-2.144,4.776-4.8,4.776
		C64.032,362.768,61.904,360.632,61.904,358z"/>
	<path style="fill:#FFB90B;" d="M76.464,352.984c-2.624,0-8.448-2.152-8.448-4.784s5.824-4.76,8.448-4.76
		c2.648,0,4.784,2.128,4.784,4.76S79.112,352.984,76.464,352.984z"/>
	<path style="fill:#FFB90B;" d="M56.888,343.44c2.624,0,8.44,2.128,8.44,4.76s-5.816,4.784-8.44,4.784
		c-2.64,0-4.784-2.152-4.784-4.784S54.248,343.44,56.888,343.44z"/>
	<path style="fill:#FFB90B;" d="M114.416,338.424c0,2.624-2.152,8.448-4.784,8.448c-2.64,0-4.768-5.824-4.768-8.448
		c0-2.64,2.128-4.776,4.768-4.776C112.264,333.648,114.416,335.776,114.416,338.424z"/>
	<path style="fill:#FFB90B;" d="M104.864,358c0-2.632,2.128-8.448,4.768-8.448c2.632,0,4.784,5.816,4.784,8.448
		s-2.152,4.776-4.784,4.776C106.992,362.768,104.864,360.632,104.864,358z"/>
	<path style="fill:#FFB90B;" d="M119.44,352.984c-2.64,0-8.464-2.152-8.464-4.784s5.824-4.76,8.464-4.76
		c2.632,0,4.776,2.128,4.776,4.76S122.072,352.984,119.44,352.984z"/>
	<path style="fill:#FFB90B;" d="M99.856,343.44c2.616,0,8.448,2.128,8.448,4.76s-5.832,4.784-8.448,4.784
		c-2.648,0-4.8-2.152-4.8-4.784S97.208,343.44,99.856,343.44z"/>
	<path style="fill:#FFB90B;" d="M157.384,338.424c0,2.624-2.144,8.448-4.784,8.448c-2.648,0-4.776-5.824-4.776-8.448
		c0-2.64,2.128-4.776,4.776-4.776C155.24,333.648,157.384,335.776,157.384,338.424z"/>
	<path style="fill:#FFB90B;" d="M147.824,358c0-2.632,2.128-8.448,4.776-8.448c2.64,0,4.784,5.816,4.784,8.448
		s-2.144,4.776-4.784,4.776C149.952,362.768,147.824,360.632,147.824,358z"/>
	<path style="fill:#FFB90B;" d="M162.392,352.984c-2.624,0-8.448-2.152-8.448-4.784s5.824-4.76,8.448-4.76
		c2.64,0,4.784,2.128,4.784,4.76S165.032,352.984,162.392,352.984z"/>
	<path style="fill:#FFB90B;" d="M142.824,343.44c2.632,0,8.448,2.128,8.448,4.76s-5.816,4.784-8.448,4.784
		c-2.64,0-4.784-2.152-4.784-4.784S140.176,343.44,142.824,343.44z"/>
	<path style="fill:#FFB90B;" d="M91.664,373.384c0,2.632-2.144,8.456-4.792,8.456c-2.624,0-4.752-5.824-4.752-8.456
		s2.128-4.776,4.752-4.776C89.52,368.608,91.664,370.752,91.664,373.384z"/>
	<path style="fill:#FFB90B;" d="M82.128,392.968c0-2.632,2.128-8.456,4.752-8.456c2.648,0,4.792,5.824,4.792,8.456
		s-2.144,4.776-4.792,4.776C84.248,397.744,82.128,395.6,82.128,392.968z"/>
	<path style="fill:#FFB90B;" d="M96.68,387.952c-2.624,0-8.448-2.152-8.448-4.784c0-2.64,5.824-4.768,8.448-4.768
		c2.632,0,4.776,2.128,4.776,4.768C101.456,385.8,99.312,387.952,96.68,387.952z"/>
	<path style="fill:#FFB90B;" d="M77.112,378.408c2.608,0,8.448,2.128,8.448,4.768c0,2.632-5.832,4.784-8.448,4.784
		c-2.648,0-4.784-2.152-4.784-4.784C72.328,380.528,74.464,378.408,77.112,378.408z"/>
	<path style="fill:#FFB90B;" d="M134.624,373.384c0,2.632-2.136,8.456-4.784,8.456c-2.632,0-4.76-5.824-4.76-8.456
		s2.128-4.776,4.76-4.776C132.496,368.608,134.624,370.752,134.624,373.384z"/>
	<path style="fill:#FFB90B;" d="M125.088,392.968c0-2.632,2.128-8.456,4.76-8.456c2.648,0,4.784,5.824,4.784,8.456
		s-2.136,4.776-4.784,4.776C127.208,397.744,125.088,395.6,125.088,392.968z"/>
	<path style="fill:#FFB90B;" d="M139.648,387.952c-2.624,0-8.464-2.152-8.464-4.784c0-2.64,5.832-4.768,8.464-4.768
		c2.64,0,4.776,2.128,4.776,4.768C144.424,385.8,142.288,387.952,139.648,387.952z"/>
	<path style="fill:#FFB90B;" d="M120.072,378.408c2.624,0,8.448,2.128,8.448,4.768c0,2.632-5.824,4.784-8.448,4.784
		c-2.632,0-4.784-2.152-4.784-4.784C115.288,380.528,117.44,378.408,120.072,378.408z"/>
	<path style="fill:#FFB90B;" d="M71.456,411.728c0,2.624-2.144,8.448-4.8,8.448c-2.624,0-4.752-5.824-4.752-8.448
		c0-2.64,2.128-4.784,4.752-4.784C69.312,406.944,71.456,409.088,71.456,411.728z"/>
	<path style="fill:#FFB90B;" d="M61.904,431.304c0-2.624,2.128-8.456,4.752-8.456c2.656,0,4.8,5.832,4.8,8.456
		c0,2.632-2.144,4.776-4.8,4.776C64.032,436.08,61.904,433.936,61.904,431.304z"/>
	<path style="fill:#FFB90B;" d="M76.464,426.288c-2.624,0-8.448-2.152-8.448-4.784c0-2.64,5.824-4.768,8.448-4.768
		c2.648,0,4.784,2.128,4.784,4.768C81.24,424.136,79.112,426.288,76.464,426.288z"/>
	<path style="fill:#FFB90B;" d="M56.888,416.744c2.624,0,8.44,2.128,8.44,4.768c0,2.632-5.816,4.784-8.44,4.784
		c-2.64,0-4.784-2.152-4.784-4.784C52.112,418.864,54.248,416.744,56.888,416.744z"/>
	<path style="fill:#FFB90B;" d="M114.416,411.728c0,2.624-2.152,8.448-4.784,8.448c-2.64,0-4.768-5.824-4.768-8.448
		c0-2.64,2.128-4.784,4.768-4.784C112.264,406.944,114.416,409.088,114.416,411.728z"/>
	<path style="fill:#FFB90B;" d="M104.864,431.304c0-2.624,2.128-8.456,4.768-8.456c2.632,0,4.784,5.832,4.784,8.456
		c0,2.632-2.152,4.776-4.784,4.776C106.992,436.08,104.864,433.936,104.864,431.304z"/>
	<path style="fill:#FFB90B;" d="M119.44,426.288c-2.64,0-8.464-2.152-8.464-4.784c0-2.64,5.824-4.768,8.464-4.768
		c2.632,0,4.776,2.128,4.776,4.768C124.208,424.136,122.072,426.288,119.44,426.288z"/>
	<path style="fill:#FFB90B;" d="M99.856,416.744c2.616,0,8.448,2.128,8.448,4.768c0,2.632-5.832,4.784-8.448,4.784
		c-2.648,0-4.8-2.152-4.8-4.784C95.064,418.864,97.208,416.744,99.856,416.744z"/>
	<path style="fill:#FFB90B;" d="M157.384,411.728c0,2.624-2.144,8.448-4.784,8.448c-2.648,0-4.776-5.824-4.776-8.448
		c0-2.64,2.128-4.784,4.776-4.784C155.24,406.944,157.384,409.088,157.384,411.728z"/>
	<path style="fill:#FFB90B;" d="M147.824,431.304c0-2.624,2.128-8.456,4.776-8.456c2.64,0,4.784,5.832,4.784,8.456
		c0,2.632-2.144,4.776-4.784,4.776C149.952,436.08,147.824,433.936,147.824,431.304z"/>
	<path style="fill:#FFB90B;" d="M162.392,426.288c-2.624,0-8.448-2.152-8.448-4.784c0-2.64,5.824-4.768,8.448-4.768
		c2.64,0,4.784,2.128,4.784,4.768C167.168,424.136,165.032,426.288,162.392,426.288z"/>
	<path style="fill:#FFB90B;" d="M142.824,416.744c2.632,0,8.448,2.128,8.448,4.768c0,2.632-5.816,4.784-8.448,4.784
		c-2.64,0-4.784-2.152-4.784-4.784C138.04,418.864,140.176,416.744,142.824,416.744z"/>
	<path style="fill:#FFB90B;" d="M91.664,446.696c0,2.624-2.144,8.448-4.792,8.448c-2.624,0-4.752-5.824-4.752-8.448
		c0-2.64,2.128-4.784,4.752-4.784C89.52,441.912,91.664,444.056,91.664,446.696z"/>
	<path style="fill:#FFB90B;" d="M96.68,461.256c-2.624,0-8.448-2.152-8.448-4.784c0-2.64,5.824-4.768,8.448-4.768
		c2.632,0,4.776,2.128,4.776,4.768C101.456,459.104,99.312,461.256,96.68,461.256z"/>
	<path style="fill:#FFB90B;" d="M77.112,451.712c2.608,0,8.448,2.128,8.448,4.768c0,2.632-5.832,4.784-8.448,4.784
		c-2.648,0-4.784-2.152-4.784-4.784C72.328,453.832,74.464,451.712,77.112,451.712z"/>
	<path style="fill:#FFB90B;" d="M134.624,446.696c0,2.624-2.136,8.448-4.784,8.448c-2.632,0-4.76-5.824-4.76-8.448
		c0-2.64,2.128-4.784,4.76-4.784C132.496,441.912,134.624,444.056,134.624,446.696z"/>
	<path style="fill:#FFB90B;" d="M139.648,461.256c-2.624,0-8.464-2.152-8.464-4.784c0-2.64,5.832-4.768,8.464-4.768
		c2.64,0,4.776,2.128,4.776,4.768C144.424,459.104,142.288,461.256,139.648,461.256z"/>
	<path style="fill:#FFB90B;" d="M120.072,451.712c2.624,0,8.448,2.128,8.448,4.768c0,2.632-5.824,4.784-8.448,4.784
		c-2.632,0-4.784-2.152-4.784-4.784C115.288,453.832,117.44,451.712,120.072,451.712z"/>
	<path style="fill:#FFB90B;" d="M175.712,446.696c0,2.624-2.152,8.448-4.792,8.448c-2.632,0-4.76-5.824-4.76-8.448
		c0-2.64,2.128-4.784,4.76-4.784C173.56,441.912,175.712,444.056,175.712,446.696z"/>
	<path style="fill:#FFB90B;" d="M180.728,461.256c-2.632,0-8.464-2.152-8.464-4.784c0-2.64,5.832-4.768,8.464-4.768
		s4.776,2.128,4.776,4.768C185.496,459.104,183.36,461.256,180.728,461.256z"/>
	<path style="fill:#FFB90B;" d="M161.152,451.712c2.632,0,8.448,2.128,8.448,4.768c0,2.632-5.816,4.784-8.448,4.784
		c-2.64,0-4.792-2.152-4.792-4.784C156.36,453.832,158.504,451.712,161.152,451.712z"/>
	<path style="fill:#FFB90B;" d="M394.528,338.424c0,2.624,2.144,8.448,4.792,8.448c2.632,0,4.76-5.824,4.76-8.448
		c0-2.64-2.128-4.776-4.76-4.776C396.672,333.648,394.528,335.776,394.528,338.424z"/>
	<path style="fill:#FFB90B;" d="M404.08,358c0-2.632-2.128-8.448-4.76-8.448c-2.648,0-4.792,5.816-4.792,8.448
		s2.144,4.776,4.792,4.776C401.952,362.768,404.08,360.632,404.08,358z"/>
	<path style="fill:#FFB90B;" d="M389.52,352.984c2.624,0,8.448-2.152,8.448-4.784s-5.824-4.76-8.448-4.76
		c-2.648,0-4.784,2.128-4.784,4.76S386.872,352.984,389.52,352.984z"/>
	<path style="fill:#FFB90B;" d="M409.088,343.44c-2.616,0-8.448,2.128-8.448,4.76s5.832,4.784,8.448,4.784
		c2.648,0,4.792-2.152,4.792-4.784S411.736,343.44,409.088,343.44z"/>
	<path style="fill:#FFB90B;" d="M351.568,338.424c0,2.624,2.136,8.448,4.784,8.448c2.64,0,4.768-5.824,4.768-8.448
		c0-2.64-2.128-4.776-4.768-4.776C353.704,333.648,351.568,335.776,351.568,338.424z"/>
	<path style="fill:#FFB90B;" d="M361.12,358c0-2.632-2.128-8.448-4.768-8.448c-2.648,0-4.784,5.816-4.784,8.448
		s2.136,4.776,4.784,4.776C358.992,362.768,361.12,360.632,361.12,358z"/>
	<path style="fill:#FFB90B;" d="M346.552,352.984c2.616,0,8.456-2.152,8.456-4.784s-5.832-4.76-8.456-4.76
		c-2.64,0-4.776,2.128-4.776,4.76S343.912,352.984,346.552,352.984z"/>
	<path style="fill:#FFB90B;" d="M366.128,343.44c-2.616,0-8.448,2.128-8.448,4.76s5.832,4.784,8.448,4.784
		c2.656,0,4.784-2.152,4.784-4.784S368.784,343.44,366.128,343.44z"/>
	<path style="fill:#FFB90B;" d="M308.6,338.424c0,2.624,2.144,8.448,4.784,8.448s4.768-5.824,4.768-8.448
		c0-2.64-2.128-4.776-4.768-4.776S308.6,335.776,308.6,338.424z"/>
	<path style="fill:#FFB90B;" d="M318.152,358c0-2.632-2.128-8.448-4.768-8.448S308.6,355.368,308.6,358s2.144,4.776,4.784,4.776
		S318.152,360.632,318.152,358z"/>
	<path style="fill:#FFB90B;" d="M303.576,352.984c2.64,0,8.464-2.152,8.464-4.784s-5.824-4.76-8.464-4.76
		c-2.624,0-4.768,2.128-4.768,4.76S300.952,352.984,303.576,352.984z"/>
	<path style="fill:#FFB90B;" d="M323.16,343.44c-2.624,0-8.44,2.128-8.44,4.76s5.816,4.784,8.44,4.784
		c2.648,0,4.792-2.152,4.792-4.784S325.808,343.44,323.16,343.44z"/>
	<path style="fill:#FFB90B;" d="M374.32,373.384c0,2.632,2.144,8.456,4.792,8.456c2.624,0,4.752-5.824,4.752-8.456
		s-2.128-4.776-4.752-4.776C376.464,368.608,374.32,370.752,374.32,373.384z"/>
	<path style="fill:#FFB90B;" d="M383.856,392.968c0-2.632-2.128-8.456-4.752-8.456c-2.648,0-4.792,5.824-4.792,8.456
		s2.144,4.776,4.792,4.776C381.736,397.744,383.856,395.6,383.856,392.968z"/>
	<path style="fill:#FFB90B;" d="M369.304,387.952c2.624,0,8.448-2.152,8.448-4.784c0-2.64-5.824-4.768-8.448-4.768
		c-2.648,0-4.792,2.128-4.792,4.768C364.512,385.8,366.656,387.952,369.304,387.952z"/>
	<path style="fill:#FFB90B;" d="M388.872,378.408c-2.616,0-8.44,2.128-8.44,4.768c0,2.632,5.824,4.784,8.44,4.784
		c2.64,0,4.784-2.152,4.784-4.784C393.656,380.528,391.512,378.408,388.872,378.408z"/>
	<path style="fill:#FFB90B;" d="M331.352,373.384c0,2.632,2.144,8.456,4.776,8.456c2.656,0,4.768-5.824,4.768-8.456
		s-2.112-4.776-4.768-4.776C333.488,368.608,331.352,370.752,331.352,373.384z"/>
	<path style="fill:#FFB90B;" d="M340.888,392.968c0-2.632-2.112-8.456-4.768-8.456c-2.632,0-4.776,5.824-4.776,8.456
		s2.144,4.776,4.776,4.776C338.784,397.744,340.888,395.6,340.888,392.968z"/>
	<path style="fill:#FFB90B;" d="M326.336,387.952c2.624,0,8.448-2.152,8.448-4.784c0-2.64-5.824-4.768-8.448-4.768
		c-2.648,0-4.776,2.128-4.776,4.768C321.56,385.8,323.688,387.952,326.336,387.952z"/>
	<path style="fill:#FFB90B;" d="M345.912,378.408c-2.624,0-8.448,2.128-8.448,4.768c0,2.632,5.824,4.784,8.448,4.784
		c2.64,0,4.784-2.152,4.784-4.784C350.696,380.528,348.552,378.408,345.912,378.408z"/>
	<path style="fill:#FFB90B;" d="M394.528,411.728c0,2.624,2.144,8.448,4.792,8.448c2.632,0,4.76-5.824,4.76-8.448
		c0-2.64-2.128-4.784-4.76-4.784C396.672,406.944,394.528,409.088,394.528,411.728z"/>
	<path style="fill:#FFB90B;" d="M404.08,431.304c0-2.624-2.128-8.456-4.76-8.456c-2.648,0-4.792,5.832-4.792,8.456
		c0,2.632,2.144,4.776,4.792,4.776C401.952,436.08,404.08,433.936,404.08,431.304z"/>
	<path style="fill:#FFB90B;" d="M389.52,426.288c2.624,0,8.448-2.152,8.448-4.784c0-2.64-5.824-4.768-8.448-4.768
		c-2.648,0-4.784,2.128-4.784,4.768C384.744,424.136,386.872,426.288,389.52,426.288z"/>
	<path style="fill:#FFB90B;" d="M409.088,416.744c-2.616,0-8.448,2.128-8.448,4.768c0,2.632,5.832,4.784,8.448,4.784
		c2.648,0,4.792-2.152,4.792-4.784C413.872,418.864,411.736,416.744,409.088,416.744z"/>
	<path style="fill:#FFB90B;" d="M351.568,411.728c0,2.624,2.136,8.448,4.784,8.448c2.64,0,4.768-5.824,4.768-8.448
		c0-2.64-2.128-4.784-4.768-4.784C353.704,406.944,351.568,409.088,351.568,411.728z"/>
	<path style="fill:#FFB90B;" d="M361.12,431.304c0-2.624-2.128-8.456-4.768-8.456c-2.648,0-4.784,5.832-4.784,8.456
		c0,2.632,2.136,4.776,4.784,4.776C358.992,436.08,361.12,433.936,361.12,431.304z"/>
	<path style="fill:#FFB90B;" d="M346.552,426.288c2.616,0,8.456-2.152,8.456-4.784c0-2.64-5.832-4.768-8.456-4.768
		c-2.64,0-4.776,2.128-4.776,4.768C341.784,424.136,343.912,426.288,346.552,426.288z"/>
	<path style="fill:#FFB90B;" d="M366.128,416.744c-2.616,0-8.448,2.128-8.448,4.768c0,2.632,5.832,4.784,8.448,4.784
		c2.656,0,4.784-2.152,4.784-4.784C370.904,418.864,368.784,416.744,366.128,416.744z"/>
	<path style="fill:#FFB90B;" d="M308.6,411.728c0,2.624,2.144,8.448,4.784,8.448s4.768-5.824,4.768-8.448
		c0-2.64-2.128-4.784-4.768-4.784S308.6,409.088,308.6,411.728z"/>
	<path style="fill:#FFB90B;" d="M318.152,431.304c0-2.624-2.128-8.456-4.768-8.456s-4.784,5.832-4.784,8.456
		c0,2.632,2.144,4.776,4.784,4.776S318.152,433.936,318.152,431.304z"/>
	<path style="fill:#FFB90B;" d="M303.576,426.288c2.64,0,8.464-2.152,8.464-4.784c0-2.64-5.824-4.768-8.464-4.768
		c-2.624,0-4.768,2.128-4.768,4.768C298.816,424.136,300.952,426.288,303.576,426.288z"/>
	<path style="fill:#FFB90B;" d="M323.16,416.744c-2.624,0-8.44,2.128-8.44,4.768c0,2.632,5.816,4.784,8.44,4.784
		c2.648,0,4.792-2.152,4.792-4.784C327.944,418.864,325.808,416.744,323.16,416.744z"/>
	<path style="fill:#FFB90B;" d="M374.32,446.696c0,2.624,2.144,8.448,4.792,8.448c2.624,0,4.752-5.824,4.752-8.448
		c0-2.64-2.128-4.784-4.752-4.784C376.464,441.912,374.32,444.056,374.32,446.696z"/>
	<path style="fill:#FFB90B;" d="M369.304,461.256c2.624,0,8.448-2.152,8.448-4.784c0-2.64-5.824-4.768-8.448-4.768
		c-2.648,0-4.792,2.128-4.792,4.768C364.512,459.104,366.656,461.256,369.304,461.256z"/>
	<path style="fill:#FFB90B;" d="M388.872,451.712c-2.616,0-8.44,2.128-8.44,4.768c0,2.632,5.824,4.784,8.44,4.784
		c2.64,0,4.784-2.152,4.784-4.784C393.656,453.832,391.512,451.712,388.872,451.712z"/>
	<path style="fill:#FFB90B;" d="M331.352,446.696c0,2.624,2.144,8.448,4.776,8.448c2.656,0,4.768-5.824,4.768-8.448
		c0-2.64-2.112-4.784-4.768-4.784C333.488,441.912,331.352,444.056,331.352,446.696z"/>
	<path style="fill:#FFB90B;" d="M326.336,461.256c2.624,0,8.448-2.152,8.448-4.784c0-2.64-5.824-4.768-8.448-4.768
		c-2.648,0-4.776,2.128-4.776,4.768C321.56,459.104,323.688,461.256,326.336,461.256z"/>
	<path style="fill:#FFB90B;" d="M345.912,451.712c-2.624,0-8.448,2.128-8.448,4.768c0,2.632,5.824,4.784,8.448,4.784
		c2.64,0,4.784-2.152,4.784-4.784C350.696,453.832,348.552,451.712,345.912,451.712z"/>
	<path style="fill:#FFB90B;" d="M290.264,446.696c0,2.624,2.152,8.448,4.784,8.448c2.648,0,4.776-5.824,4.776-8.448
		c0-2.64-2.128-4.784-4.776-4.784C292.416,441.912,290.264,444.056,290.264,446.696z"/>
	<path style="fill:#FFB90B;" d="M285.256,461.256c2.632,0,8.448-2.152,8.448-4.784c0-2.64-5.816-4.768-8.448-4.768
		s-4.776,2.128-4.776,4.768C280.488,459.104,282.624,461.256,285.256,461.256z"/>
	<path style="fill:#FFB90B;" d="M304.832,451.712c-2.624,0-8.448,2.128-8.448,4.768c0,2.632,5.824,4.784,8.448,4.784
		c2.64,0,4.784-2.152,4.784-4.784C309.616,453.832,307.48,451.712,304.832,451.712z"/>
</g>
<g>
</g>
<g>
</g>
<g>
</g>
<g>
</g>
<g>
</g>
<g>
</g>
<g>
</g>
<g>
</g>
<g>
</g>
<g>
</g>
<g>
</g>
<g>
</g>
<g>
</g>
<g>
</g>
<g>
</g>
</svg>
