<?xml version="1.0" encoding="iso-8859-1"?>
<!-- Generator: Adobe Illustrator 19.0.0, SVG Export Plug-In . SVG Version: 6.00 Build 0)  -->
<svg version="1.1" id="Layer_1" xmlns="http://www.w3.org/2000/svg" xmlns:xlink="http://www.w3.org/1999/xlink" x="0px" y="0px"
	 viewBox="0 0 466.737 466.737" style="enable-background:new 0 0 466.737 466.737;" xml:space="preserve">
<g>
	<circle style="fill:#042635;" cx="287.741" cy="287.073" r="55"/>
	<path style="fill:#042635;" d="M337.637,133.465c0,35.344-51.264,64-104.672,64c-53.376,0-104.656-28.656-104.656-64
		s51.28-64,104.656-64C286.373,69.465,337.637,98.122,337.637,133.465z"/>
	<ellipse style="fill:#042635;" cx="206.301" cy="221.794" rx="70" ry="46.344"/>
</g>
<g>
	<rect x="41.245" y="370.737" style="fill:#F9BDA0;" width="384" height="96"/>
	<rect x="185.245" y="186.738" style="fill:#F9BDA0;" width="96" height="200"/>
	<rect x="185.245" y="274.737" style="fill:#F9BDA0;" width="96" height="128"/>
</g>
<polygon style="fill:#EAA78C;" points="281.245,280.145 281.245,186.738 185.949,186.738 234.317,321.273 "/>
<path style="fill:#FCCCB9;" d="M307.933,102.122c0,72.24-36.624,137.616-74.944,137.616s-74.96-65.376-74.96-137.616
	s36.64-84.288,74.96-84.288S307.933,29.882,307.933,102.122z"/>
<path style="fill:#F9BDA0;" d="M232.989,17.834c38.32,0,74.944,12.048,74.944,84.288s-36.624,137.616-74.944,137.616"/>
<polygon style="fill:#EAA78C;" points="185.245,287.378 32.509,334.393 41.245,466.737 229.493,421.353 "/>
<polyline style="fill:#FCCCB9;" points="32.509,334.393 41.245,466.737 229.493,421.353 "/>
<polygon style="fill:#F9BDA0;" points="277.261,286.313 433.429,334.393 429.741,466.737 236.429,421.353 "/>
<polyline style="fill:#EAA78C;" points="433.429,334.393 429.741,466.737 236.429,421.353 "/>
<g>
	<path style="fill:#042635;" d="M243.405,13.074c0,0-69.656,53.328,89.92,117.568c0,0,3.064-70.688-23-101.504
		c-26.08-30.8-66.44-27-66.44-27L243.405,13.074z"/>
	<path style="fill:#042635;" d="M268.357,3.962c0,0,89.064,86.832-135.672,132.048c0,0-11.784-75.976,18.984-108.528
		c30.752-32.56,85.92-27.144,85.92-27.144L268.357,3.962z"/>
</g>
<polygon style="fill:#0C537A;" points="425.245,466.737 101.741,466.737 86.245,410.737 425.245,410.737 "/>
<polyline style="fill:#042635;" points="425.245,410.737 425.245,466.737 105.245,466.737 "/>
<polygon style="fill:#FFA10B;" points="208.749,466.737 287.165,286.785 434.229,331.658 429.741,466.737 "/>
<polyline style="fill:#FF8908;" points="434.229,331.658 429.741,466.737 209.245,466.737 "/>
<polygon style="fill:#FF6E0B;" points="238.957,466.737 384.085,434.761 433.981,332.345 429.741,466.737 "/>
<g>
	<circle style="fill:#A02BBC;" cx="232.965" cy="119.57" r="6.504"/>
	<path style="fill:#A02BBC;" d="M174.581,185.93c-0.688,5.976-5.712,10.64-11.856,10.64c-6.632,0-12-5.376-12-12
		c0-1.24,0.24-2.416,0.584-3.536c-2.816,2.648-4.584,6.376-4.584,10.536c0,8.008,6.496,14.496,14.496,14.496
		s14.496-6.496,14.496-14.496C175.725,189.57,175.309,187.665,174.581,185.93z"/>
	<path style="fill:#A02BBC;" d="M291.365,185.93c0.688,5.976,5.704,10.64,11.856,10.64c6.616,0,12-5.376,12-12
		c0-1.24-0.24-2.416-0.592-3.536c2.808,2.648,4.592,6.376,4.592,10.536c0,8.008-6.496,14.496-14.496,14.496
		s-14.504-6.496-14.504-14.496C290.213,189.57,290.629,187.665,291.365,185.93z"/>
</g>
<g>
	<circle style="fill:#F9BDA0;" cx="102.245" cy="421.537" r="2.752"/>
	<circle style="fill:#F9BDA0;" cx="120.749" cy="421.537" r="2.752"/>
	<circle style="fill:#F9BDA0;" cx="139.245" cy="421.537" r="2.752"/>
	<circle style="fill:#F9BDA0;" cx="157.741" cy="421.537" r="2.752"/>
	<circle style="fill:#F9BDA0;" cx="176.245" cy="421.537" r="2.752"/>
	<circle style="fill:#F9BDA0;" cx="194.765" cy="421.537" r="2.752"/>
	<circle style="fill:#F9BDA0;" cx="213.245" cy="421.537" r="2.752"/>
</g>
<g>
</g>
<g>
</g>
<g>
</g>
<g>
</g>
<g>
</g>
<g>
</g>
<g>
</g>
<g>
</g>
<g>
</g>
<g>
</g>
<g>
</g>
<g>
</g>
<g>
</g>
<g>
</g>
<g>
</g>
</svg>
