<?xml version="1.0" encoding="iso-8859-1"?>
<!-- Generator: Adobe Illustrator 19.0.0, SVG Export Plug-In . SVG Version: 6.00 Build 0)  -->
<svg version="1.1" id="Layer_1" xmlns="http://www.w3.org/2000/svg" xmlns:xlink="http://www.w3.org/1999/xlink" x="0px" y="0px"
	 viewBox="0 0 496 496" style="enable-background:new 0 0 496 496;" xml:space="preserve">
<ellipse style="fill:#C68D1A;" cx="248" cy="292.248" rx="87.712" ry="28.752"/>
<polygon style="fill:#E28F71;" points="327.832,456 169.96,456 162.168,288 335.624,288 "/>
<path style="fill:#384C48;" d="M461.52,330.344l-118.464-41.016l2.496,1.064l-15.488-6.504
	c-6.184,20.192-40.528,41.656-82.08,41.656c-41.56,0-75.888-21.472-82.072-41.664l-15.504,6.496l2.504-1.08L34.48,330.344L12,496
	h29.952h152.752h46.312h13.968h48.472h150.592H484L461.52,330.344z"/>
<g>
	<path style="fill:#2F423F;" d="M104,496h90.704h46.312h13.968h48.472h150.592H484l-22.48-165.656l-118.464-41.016l2.496,1.064
		l-15.488-6.504c-12.12,27.472-44.696,34.28-86.24,34.28c-41.56,0-70.008-12.056-77.904-34.288l-15.504,6.496l2.504-1.08
		L34.704,330.344"/>
	<path style="fill:#2F423F;" d="M240,496h14.984h48.472h150.592H484l-22.48-165.656l-118.464-41.016l2.496,1.064l-15.488-6.504
		c-6.184,20.192-41.04,41.744-82.584,41.744"/>
</g>
<g>
	<path style="fill:#1C2826;" d="M461.52,330.256l-118.464-40.968l2.496,1.08l-15.488-6.496C320.696,308.568,283.248,321,241.704,321
		c-17,0-34.928-4.896-48.064-11.056L374.416,496h79.632h25.104l4.272-4.36L461.52,330.256z"/>
	<polyline style="fill:#1C2826;" points="416,496 454.048,496 484,496 460.84,330.432 	"/>
</g>
<polygon style="fill:#F9BDA0;" points="307.688,306.112 191.744,287.816 197.936,208 299.848,208 "/>
<polygon style="fill:#E28F71;" points="307.696,306.112 261.112,320.624 190.104,208 299.856,208 "/>
<path style="fill:#FCCCB9;" d="M325.816,141.656c0-68.248-29.816-95.864-77.816-96.144v-0.024v0.016v-0.016v0.032
	c-48,0.272-77.816,27.888-77.816,96.144S200,271.608,248,273.088v0.128c0,0,0-0.064,0-0.072c0,0.008,0,0.072,0,0.072v-0.128
	C296,271.608,325.816,209.904,325.816,141.656z"/>
<path style="fill:#F9BDA0;" d="M248,272v1.208c0,0,0-0.064,0-0.072c0,0.008,0,0.072,0,0.072v-0.128
	c48-1.48,77.816-63.176,77.816-131.432S296,45.792,248,45.512v-0.024v0.016v-0.016V48"/>
<path style="fill:#77502A;" d="M169.952,120.952c-4.216-1.848-3.376-29.952,0.336-38.424c3.728-8.488,10.176-6.048,14.384-4.184
	c4.232,1.856,23.336,20.248,16.512,26.504"/>
<g>
	<path style="fill:#00233F;" d="M204.928,222.368c-0.192-0.224-0.304-0.368-0.304-0.368S204.704,222.208,204.928,222.368z"/>
	<path style="fill:#00233F;" d="M292.848,222.368c0.192-0.224,0.304-0.368,0.304-0.368S293.08,222.208,292.848,222.368z"/>
</g>
<path style="fill:#77502A;" d="M185.848,112.776c0,0,6.08,18.224-2.456,29.168c0,0-2.44,1.216-3.016,6.696
	c-0.624,5.472,5.824,21.416,12.192,52.416c2.128,10.28,7.832,38.152,24.864,28.424l4.04,1.832c0,0-5.488,23.712,26.512,23.096v21.28
	c0,0-31.392,3.024-53.264-27.36c-21.904-30.392-23.296-73.536-22.68-97.856c0.624-24.32-7.704-36.496-2.832-45.016
	C174.088,96.952,185.848,112.776,185.848,112.776z"/>
<g>
	<path style="fill:#5E3A1C;" d="M310.152,112.776c0,0-6.08,18.224,2.44,29.168c0,0,2.44,1.216,3.032,6.696
		c0.624,5.472-5.824,21.416-12.192,52.416c-2.112,10.272-7.84,38.152-24.848,28.424l-4.04,1.832c0,0,5.472,23.712-26.528,23.096
		v21.28c0,0,31.408,3.024,53.264-27.36c21.888-30.392,23.28-73.536,22.68-97.856c-0.624-24.32,7.688-36.496,2.832-45.016
		C321.912,96.952,310.152,112.776,310.152,112.776z"/>
	<path style="fill:#5E3A1C;" d="M322.936,120.768c4.232-1.856,11.24-29.96,7.52-38.432c-3.712-8.456-10.144-6.016-14.376-4.152
		c-4.216,1.864-23.344,20.28-16.52,26.504"/>
</g>
<path style="fill:#77502A;" d="M285.792,75.408c0,0-34.112,71.144-109.152,54.576c0,0-30.216-38.016,16.56-76.016
	c46.776-38.016,97.456-25.344,101.352-5.84C298.464,67.608,285.792,75.408,285.792,75.408z"/>
<polygon style="fill:#896530;" points="343.808,274.24 248.04,298.192 152.184,273.768 145.048,80 356.368,80 "/>
<polygon style="fill:#C4A45B;" points="128.12,81.616 248.016,42.408 367.88,81.616 335.112,238.496 248.016,306.936 
	160.872,238.496 "/>
<polyline style="fill:#A88547;" points="248.016,42.408 367.88,81.616 335.112,238.496 248.016,306.936 "/>
<polygon style="fill:#C4A45B;" points="171.912,200.304 248,186.608 324.064,200.304 302.368,327.624 248,348.072 193.656,327.624 
	"/>
<polyline style="fill:#A88547;" points="248,186.608 324.064,200.304 302.368,335.416 248,363.656 193.656,335.416 "/>
<polygon style="fill:#EDEBD3;" points="181.008,288.416 178.064,327.624 248,348.072 317.96,327.624 315,288.432 248,276.36 "/>
<polygon style="fill:#9B7942;" points="298.24,58.832 248,109.072 248,160.04 330.256,242.296 335.112,238.496 367.872,81.616 "/>
<polygon style="fill:#C4A45B;" points="151.904,0.168 207.368,64.2 176.368,112.472 128.12,81.456 "/>
<polyline style="fill:#A88547;" points="176.368,112.472 128.12,81.456 151.904,0.168 "/>
<polygon style="fill:#C4A45B;" points="344.08,0.168 288.624,64.2 319.624,112.472 367.88,81.456 "/>
<polyline style="fill:#A88547;" points="319.624,112.472 367.88,81.456 344.08,0.168 "/>
<polygon style="fill:#5E6664;" points="208,176.072 176,166.248 176,148.424 208,158.256 "/>
<polyline style="fill:#2F423F;" points="208,160 208,176.072 179.632,167.368 "/>
<polygon style="fill:#5E6664;" points="288,176.072 320,166.248 320,148.424 288,158.256 "/>
<polyline style="fill:#2F423F;" points="293.16,174.672 320,166.248 320,152 "/>
<polygon style="fill:#5E6664;" points="248,97.016 304.48,47.776 256.832,2.92 248,2.104 248,1.832 248,1.968 248,1.832 248,2.104 
	239.128,2.92 191.856,47.776 248,97.016 248,98.112 248,58.584 248,98.112 "/>
<polyline style="fill:#2F423F;" points="248,96 248,98.112 248,66.384 248,66.928 248,97.016 304.48,47.776 256.832,2.92 248,2.104 
	248,1.832 248,1.968 248,1.832 248,0 "/>
<polygon style="fill:#C4A45B;" points="232,320.856 208,309.576 208,297.032 232,308.8 "/>
<polygon style="fill:#A88547;" points="264,320.856 288,309.576 288,297.032 264,308.8 "/>
<path style="fill:#FFD41F;" d="M244.816,443.76l31.336-31.328c-8.016-8-19.072-12.952-31.272-12.952
	c-24.48,0-44.28,19.832-44.28,44.28s19.808,44.272,44.28,44.272c12.2,0,23.256-4.944,31.272-12.944L244.816,443.76z"/>
<path style="fill:#FFC41D;" d="M200.592,443.76c0,24.456,19.808,44.272,44.28,44.272c12.2,0,23.256-4.944,31.272-12.944
	l-31.336-31.328l31.336-31.328"/>
<path style="fill:#EAAA0A;" d="M244.84,443.784l-31.28,31.28c1.032,1.056,2.136,2.032,3.264,2.952
	c0.44,0.368,0.928,0.688,1.384,1.048c0.68,0.52,1.368,1.056,2.088,1.52c0.592,0.408,1.2,0.744,1.808,1.112
	c0.648,0.376,1.248,0.776,1.904,1.12c0.624,0.336,1.28,0.624,1.92,0.928c0.664,0.312,1.32,0.648,2.016,0.928
	c0.616,0.256,1.256,0.472,1.888,0.696c0.736,0.256,1.456,0.544,2.184,0.768c0.632,0.184,1.288,0.336,1.92,0.496
	c0.776,0.184,1.512,0.392,2.28,0.544c0.728,0.152,1.488,0.24,2.232,0.336c0.68,0.112,1.36,0.232,2.04,0.296
	c1.376,0.128,2.768,0.192,4.168,0.192c0.144,0,0.28,0,0.424,0c1.392,0,2.776-0.064,4.152-0.176c0.672-0.072,1.352-0.192,2.024-0.304
	c0.76-0.096,1.504-0.184,2.256-0.336c0.744-0.16,1.496-0.352,2.232-0.544c0.656-0.168,1.32-0.312,1.968-0.496
	c0.712-0.216,1.416-0.496,2.128-0.752c0.64-0.224,1.312-0.448,1.968-0.712c0.64-0.272,1.272-0.592,1.92-0.904
	c0.664-0.304,1.352-0.6,1.992-0.96c0.6-0.32,1.184-0.696,1.784-1.04c0.648-0.392,1.312-0.768,1.936-1.184
	c0.648-0.432,1.272-0.928,1.912-1.4c0.512-0.4,1.064-0.752,1.568-1.168c1.112-0.912,2.184-1.88,3.224-2.92L244.84,443.784z"/>
<path style="fill:#3E4242;" d="M243.824,413.456c-0.976,0-1.84,0.384-2.496,1.024c0.784,0.096,1.376,0.728,1.376,1.536
	c0,0.864-0.704,1.568-1.568,1.568c-0.336,0-0.624-0.136-0.88-0.304c0.128,1.888,1.656,3.376,3.576,3.376
	c2,0,3.608-1.608,3.608-3.592C247.432,415.072,245.824,413.456,243.824,413.456z"/>
<path style="fill:#212626;" d="M241.128,417.584c-0.336,0-0.624-0.136-0.88-0.304c0.128,1.888,1.656,3.376,3.576,3.376
	c2,0,3.608-1.608,3.608-3.592"/>
<circle style="fill:#329908;" cx="265.2" cy="443.76" r="3.56"/>
<path style="fill:#236D00;" d="M267.728,441.24c1.384,1.4,1.384,3.648,0,5.032c-1.392,1.392-3.64,1.392-5.024,0"/>
<circle style="fill:#329908;" cx="278.536" cy="443.76" r="3.552"/>
<path style="fill:#236D00;" d="M281.048,441.24c1.392,1.4,1.392,3.648,0,5.032c-1.384,1.392-3.64,1.392-5.024,0"/>
<circle style="fill:#329908;" cx="291.856" cy="443.76" r="3.552"/>
<path style="fill:#236D00;" d="M294.376,441.24c1.384,1.4,1.384,3.648,0,5.032c-1.392,1.392-3.64,1.392-5.032,0"/>
<g>
</g>
<g>
</g>
<g>
</g>
<g>
</g>
<g>
</g>
<g>
</g>
<g>
</g>
<g>
</g>
<g>
</g>
<g>
</g>
<g>
</g>
<g>
</g>
<g>
</g>
<g>
</g>
<g>
</g>
</svg>
