<?xml version="1.0" encoding="iso-8859-1"?>
<!-- Generator: Adobe Illustrator 19.0.0, SVG Export Plug-In . SVG Version: 6.00 Build 0)  -->
<svg version="1.1" id="Layer_1" xmlns="http://www.w3.org/2000/svg" xmlns:xlink="http://www.w3.org/1999/xlink" x="0px" y="0px"
	 viewBox="0 0 502.624 502.624" style="enable-background:new 0 0 502.624 502.624;" xml:space="preserve">
<path style="fill:#00233F;" d="M168.152,297.677c0,6.904,2.72,13.144,7.08,17.84c13.624-5.984,41.144-10.096,72.92-10.096
	c31.8,0,59.312,4.112,72.936,10.096c4.344-4.704,7.064-10.936,7.064-17.84c0-12.768-9.112-23.408-21.2-25.8
	c-7.768-5.688-31.16-9.816-58.8-9.816c-27.624,0-51.016,4.128-58.8,9.816C177.28,274.269,168.152,284.909,168.152,297.677z"/>
<path style="fill:#FCCCB9;" d="M190.96,291.181c0,0-92.112,56.176-122.544,53.464c-30.456-2.704-70.072,54.112-47.072,90.648
	L0,499.557h251.304V299.989L190.96,291.181z"/>
<path style="fill:#F9BDA0;" d="M190.96,323.181c0,0-92.112,24.176-122.544,21.464c-30.456-2.704-54.072,62.112-31.072,98.648
	L0,499.557h251.304V299.989L190.96,323.181z"/>
<path style="fill:#FCCCB9;" d="M308.52,291.181c0,0,90.52,56.176,120.976,53.464c30.456-2.704,69.288,54.12,46.272,90.648
	l20.576,64.264h-245.04V299.989L308.52,291.181z"/>
<g>
	<path style="fill:#F9BDA0;" d="M308.52,323.181c0,0,90.52,24.176,120.976,21.464c30.456-2.704,53.288,62.12,30.272,98.648
		l36.576,56.264h-245.04V299.989L308.52,323.181z"/>
	<polygon style="fill:#F9BDA0;" points="309.408,339.557 188.736,339.557 196.8,211.557 301.376,211.557 	"/>
</g>
<polygon style="fill:#E8A489;" points="309.424,311.029 255.952,330.605 188.752,211.557 301.376,211.557 "/>
<path style="fill:#FCCCB9;" d="M331.144,141.061c0-70.024-39.84-98.36-79.84-98.648v-0.024v0.016v-0.016v0.032
	c-48,0.28-79.84,28.616-79.84,98.648s31.84,133.344,79.84,134.856v0.144v-0.072v0.072v-0.144
	C291.304,274.413,331.144,211.093,331.144,141.061z"/>
<path style="fill:#F9BDA0;" d="M251.304,275.557v0.504v-0.072v0.072v-0.144c40-1.504,79.84-64.832,79.84-134.856
	s-39.84-98.36-79.84-98.648v-0.024v0.016v-0.016v1.168"/>
<g>
	<path style="fill:#00233F;" d="M203.968,223.885c-0.2-0.224-0.312-0.376-0.312-0.376S203.736,223.725,203.968,223.885z"/>
	<path style="fill:#00233F;" d="M294.184,223.885c0.2-0.224,0.312-0.376,0.312-0.376S294.424,223.725,294.184,223.885z"/>
</g>
<g>
	<path style="fill:#00233F;" d="M272.936,83.557h-86h-12c0,0-39-4.36-14-38.36c0,0-4,17.832,14,7.832s32.672-73.92,99.672-40.256
		c34.472,17.328,36.328,54.224,30.328,62.224S272.936,83.557,272.936,83.557z"/>
	<path style="fill:#00233F;" d="M194.808,77.845c0,0,11.328,44.664-19.328,56c0,0-4.888,4-3.544,22c0,0-16.472-42.672-9.8-83.336
		l20.672,2.672L194.808,77.845z"/>
	<path style="fill:#00233F;" d="M301.512,77.845c0,0-11.328,44.664,19.328,56c0,0,9.344,4,8,22c0,0,12.016-42.672,5.344-83.336
		l-20.672,2.672L301.512,77.845z"/>
	<path style="fill:#00233F;" d="M271.936,28.845c0,0,31-18,42-2s27,40,20.496,55s-25.504,4.496-25.504,4.496l-20.496-15
		L271.936,28.845z"/>
	<path style="fill:#00233F;" d="M328.168,299.237c0-6.904-2.72-13.136-7.08-17.832c-13.624,5.984-41.144,10.088-72.92,10.088
		c-31.8,0-59.312-4.104-72.936-10.088c-4.344,4.704-7.064,10.928-7.064,17.832c0,12.768,9.112,23.416,21.2,25.8
		c7.768,5.688,31.16,9.816,58.8,9.816c27.624,0,51.016-4.128,58.8-9.816C319.048,322.653,328.168,312.005,328.168,299.237z"/>
</g>
<rect x="178.807" y="302.762" transform="matrix(-0.7071 0.7071 -0.7071 -0.7071 532.3445 395.8027)" style="fill:#EAEAEA;" width="10.784" height="10.784"/>
<polygon style="fill:#C1C1C1;" points="191.808,308.125 184.184,315.749 184.736,308.125 184.2,300.485 "/>
<rect x="200.136" y="302.721" transform="matrix(-0.7071 0.7071 -0.7071 -0.7071 568.7265 380.6508)" style="fill:#EAEAEA;" width="10.784" height="10.784"/>
<polygon style="fill:#C1C1C1;" points="213.136,308.125 205.512,315.749 206.064,308.125 205.512,300.485 "/>
<rect x="221.479" y="302.731" transform="matrix(-0.7071 0.7071 -0.7071 -0.7071 605.1718 365.5836)" style="fill:#EAEAEA;" width="10.784" height="10.792"/>
<polygon style="fill:#C1C1C1;" points="234.472,308.125 226.84,315.749 227.392,308.125 226.84,300.485 "/>
<rect x="242.783" y="302.755" transform="matrix(-0.7071 0.7071 -0.7071 -0.7071 641.557 350.5602)" style="fill:#EAEAEA;" width="10.784" height="10.792"/>
<polygon style="fill:#C1C1C1;" points="255.8,308.125 248.168,315.749 248.72,308.125 248.168,300.485 "/>
<rect x="264.112" y="302.754" transform="matrix(-0.7071 0.7071 -0.7071 -0.7071 677.9672 335.4767)" style="fill:#EAEAEA;" width="10.784" height="10.792"/>
<polygon style="fill:#C1C1C1;" points="277.128,308.125 269.496,315.749 270.048,308.125 269.496,300.485 "/>
<rect x="285.462" y="302.709" transform="matrix(-0.7078 0.7064 -0.7064 -0.7078 714.3726 320.7126)" style="fill:#EAEAEA;" width="10.792" height="10.784"/>
<polygon style="fill:#C1C1C1;" points="298.456,308.125 290.808,315.749 291.376,308.125 290.824,300.485 "/>
<rect x="306.745" y="302.719" transform="matrix(-0.7078 0.7064 -0.7064 -0.7078 750.7281 305.6951)" style="fill:#EAEAEA;" width="10.792" height="10.784"/>
<polygon style="fill:#C1C1C1;" points="319.784,308.125 312.136,315.749 312.704,308.125 312.152,300.485 "/>
<g>
	<polygon style="fill:#FCCCB9;" points="109.672,366.845 212.672,384.845 189.672,404.845 	"/>
	<polygon style="fill:#FCCCB9;" points="386.672,366.845 283.672,384.845 306.672,404.845 	"/>
</g>
<path style="fill:#00233F;" d="M284.784,475.557c-0.296,0-0.592,0-0.904,0c-10.2,0-19.152-4.304-25.728-11.208
	c-15.112-15.856-14.848-44.112-14.848-45.288v-84.216c0-2.208,1.784-4,4-4c2.2,0,4,1.792,4,4v84.336
	c0,0.376-0.16,26.256,12.64,39.664c5.128,5.368,11.976,8.712,20.072,8.712c0.232,0,0.472,0,0.688,0
	c30.544,0,45.64-37.408,68.392-93.032c2.496-6.128,5.112-12.744,7.832-19.288c21.856-52.64,43.72-79.744,64.984-80.296
	c13.096-0.36,24.84,9.448,34.312,29.24c6.752,14.112,13.888,21.704,20.656,22.024c8.296,0.232,14.232-9.632,14.312-9.736
	c1.144-1.888,3.608-2.52,5.488-1.384c1.888,1.136,2.512,3.592,1.376,5.488c-0.36,0.576-8.768,13.912-21.544,13.592
	c-10.032-0.48-19.28-9.04-27.504-26.208c-5.432-11.344-14.4-24.4-26.464-24.4c-0.144,0-0.28,0-0.424,0
	c-10.032,0-30.888,10.016-57.816,74.856c-2.72,6.544-5.312,13.208-7.816,19.328C336.528,436.349,320.624,475.557,284.784,475.557z"
	/>
<g>
</g>
<g>
</g>
<g>
</g>
<g>
</g>
<g>
</g>
<g>
</g>
<g>
</g>
<g>
</g>
<g>
</g>
<g>
</g>
<g>
</g>
<g>
</g>
<g>
</g>
<g>
</g>
<g>
</g>
</svg>
