<?xml version="1.0" encoding="iso-8859-1"?>
<!-- Generator: Adobe Illustrator 19.0.0, SVG Export Plug-In . SVG Version: 6.00 Build 0)  -->
<svg version="1.1" id="Layer_1" xmlns="http://www.w3.org/2000/svg" xmlns:xlink="http://www.w3.org/1999/xlink" x="0px" y="0px"
	 viewBox="0 0 484.336 484.336" style="enable-background:new 0 0 484.336 484.336;" xml:space="preserve">
<g>
	<polygon style="fill:#F9BDA0;" points="302.504,280.32 181.832,280.32 189.88,184.32 294.456,184.32 	"/>
	<polygon style="fill:#F9BDA0;" points="459.368,308.576 306.168,254.4 306.168,247.704 183.384,246.224 173.416,254.392 
		22.592,308.576 0,480.32 30.736,480.32 174.36,480.32 235,480.32 249.336,480.32 309.96,480.32 453.6,480.32 484.336,480.32 	"/>
</g>
<polygon style="fill:#E28F71;" points="302.504,283.48 254.944,309.456 181.832,184.32 294.456,184.32 "/>
<path style="fill:#FCCCB9;" d="M323.632,102.696c0,70.872-35.704,135-81.456,135c-45.768,0-81.488-64.128-81.488-135
	c0-70.88,35.72-98.68,81.488-98.68C287.928,4.016,323.632,31.816,323.632,102.696z"/>
<path style="fill:#F9BDA0;" d="M242.176,4.016c45.752,0,81.456,27.8,81.456,98.68c0,70.872-35.704,135-81.456,135"/>
<polygon style="fill:#FCCCB9;" points="128.944,400.072 23.064,309.496 0,480.32 235,480.32 "/>
<polyline style="fill:#ED1856;" points="2.168,480.32 30.736,480.32 174.36,480.32 235,480.32 249.336,480.32 309.96,480.32 
	453.6,480.32 484.336,480.32 459.368,308.576 306.168,254.4 306.168,248.32 "/>
<polyline style="fill:#CE0D4E;" points="34.168,480.32 174.36,480.32 235,480.32 249.336,480.32 309.96,480.32 453.6,480.32 
	484.336,480.32 459.368,308.576 306.168,254.4 306.168,248.32 "/>
<polyline style="fill:#AF0848;" points="178.168,480.32 235,480.32 249.336,480.32 309.96,480.32 453.6,480.32 484.336,480.32 
	459.368,308.576 306.168,254.4 306.168,248.32 "/>
<g>
	<circle style="fill:#BCACA6;" cx="228.648" cy="48.56" r="3.664"/>
	<circle style="fill:#BCACA6;" cx="228.648" cy="69.552" r="3.664"/>
	<circle style="fill:#BCACA6;" cx="228.648" cy="90.552" r="3.664"/>
	<circle style="fill:#BCACA6;" cx="255.672" cy="48.56" r="3.664"/>
	<circle style="fill:#BCACA6;" cx="255.672" cy="69.552" r="3.664"/>
	<circle style="fill:#BCACA6;" cx="255.672" cy="90.552" r="3.664"/>
</g>
<polygon style="fill:#FFB90B;" points="346.696,268.728 136.328,480.32 174.36,480.32 235,480.32 249.336,480.32 340.768,480.32 
	439.168,301.432 "/>
<polyline style="fill:#FF8908;" points="178.168,480.32 235,480.32 249.336,480.32 340.768,480.32 439.168,301.432 348.744,269.456 
	"/>
<g>
</g>
<g>
</g>
<g>
</g>
<g>
</g>
<g>
</g>
<g>
</g>
<g>
</g>
<g>
</g>
<g>
</g>
<g>
</g>
<g>
</g>
<g>
</g>
<g>
</g>
<g>
</g>
<g>
</g>
</svg>
