<?xml version="1.0" encoding="iso-8859-1"?>
<!-- Generator: Adobe Illustrator 19.0.0, SVG Export Plug-In . SVG Version: 6.00 Build 0)  -->
<svg version="1.1" id="Layer_1" xmlns="http://www.w3.org/2000/svg" xmlns:xlink="http://www.w3.org/1999/xlink" x="0px" y="0px"
	 viewBox="0 0 466.616 466.616" style="enable-background:new 0 0 466.616 466.616;" xml:space="preserve">
<path style="fill:#492A13;" d="M233.304,229.464c37.608,0,70.168-20.648,86.376,19.328c6.968-17.168,10.968-36.64,10.968-57.328
	c0-68.856-43.576-124.672-97.344-124.672c-53.752,0-97.328,55.816-97.328,124.672c0,20.688,4,40.16,10.968,57.328
	C163.144,208.816,195.712,229.464,233.304,229.464z"/>
<path style="fill:#963877;" d="M353.312,114.6c0,17.672-17.904,32-40,32h-160c-22.096,0-40-14.328-40-32v-48
	c0-17.672,17.904-32,40-32h160c22.096,0,40,14.328,40,32V114.6z"/>
<polygon style="fill:#5CCC6E;" points="434.256,334.392 281.312,287.152 281.312,274.6 185.312,274.6 185.312,287.16 32.36,334.392 
	40.112,466.616 40.112,466.616 41.312,466.6 425.312,466.6 427.432,466.6 427.432,466.6 "/>
<polygon style="fill:#46AA5B;" points="434.256,334.392 281.312,287.152 281.312,274.6 185.312,274.6 185.312,287.16 32.36,334.392 
	103.232,466.6 103.232,466.6 42.008,466.6 425.312,466.6 427.432,466.6 427.432,466.6 "/>
<path style="fill:#5E3A1C;" d="M337.976,133.456c0,35.344-51.264,64-104.672,64c-53.376,0-104.656-28.656-104.656-64
	s51.28-64,104.656-64C286.712,69.456,337.976,98.112,337.976,133.456z"/>
<rect x="185.312" y="178.6" style="fill:#F9BDA0;" width="96" height="112"/>
<polygon style="fill:#EAA78C;" points="281.312,280.136 281.312,186.6 186.288,186.6 234.52,337.208 "/>
<path style="fill:#FCCCB9;" d="M308.272,102.112c0,72.24-36.624,137.616-74.944,137.616s-74.96-65.376-74.96-137.616
	s36.64-84.288,74.96-84.288S308.272,29.872,308.272,102.112z"/>
<path style="fill:#F9BDA0;" d="M233.328,17.824c38.32,0,74.944,12.048,74.944,84.288s-36.624,137.616-74.944,137.616"/>
<path style="fill:#5E3A1C;" d="M243.744,13.072c0,0-69.656,53.328,89.92,117.568c0,0,3.064-70.688-23-101.504
	c-26.08-30.8-66.44-27-66.44-27L243.744,13.072z"/>
<path style="fill:#77502A;" d="M260.576,3.008c0,0,72.28,72.064-127.552,133c0,0-11.784-75.976,18.984-108.528
	c30.76-32.552,85.92-27.144,85.92-27.144L260.576,3.008z"/>
<path style="fill:#5E3A1C;" d="M237.928,0.336l21.008,2.144c46,8.624,105.496,159.424-125.912,133.528"/>
<path style="fill:#EAA78C;" d="M281.312,287.152V274.6h-96v12.56l-40.032,12.472c5.544,28.04,42.832,49.736,87.792,49.736
	s82.6-21.696,88.144-49.744L281.312,287.152z"/>
<path style="fill:#F49E14;" d="M153.312,155.6c0,8.28-6.72,15-15,15h-2c-8.28,0-15-6.72-15-15v-10c0-8.28,6.72-15,15-15h2
	c8.28,0,15,6.72,15,15V155.6z"/>
<path style="fill:#B76393;" d="M170.624,169.456c1.936,10.072-4.64,19.824-14.736,21.752l0,0
	c-10.064,1.944-19.784-4.664-21.736-14.736l-8.04-41.8c-1.928-10.08,4.656-19.8,14.712-21.736l0,0
	c10.088-1.944,19.808,4.64,21.752,14.72L170.624,169.456z"/>
<path style="fill:#963877;" d="M140.816,112.936L140.816,112.936c10.088-1.944,19.808,4.64,21.752,14.72l8.056,41.808
	c1.936,10.072-4.64,19.824-14.736,21.752l0,0c-10.064,1.944-19.784-4.664-21.736-14.736"/>
<path style="fill:#F49E14;" d="M345.312,145.6c0-8.28-6.72-15-15-15h-2c-8.28,0-15,6.72-15,15v10c0,8.28,6.72,15,15,15h2
	c8.28,0,15-6.72,15-15V145.6z"/>
<path style="fill:#B76393;" d="M296,169.456c-1.936,10.072,4.64,19.824,14.736,21.752l0,0c10.064,1.944,19.784-4.664,21.736-14.736
	l8.048-41.808c1.912-10.08-4.656-19.8-14.72-21.736l0,0c-10.08-1.944-19.8,4.64-21.76,14.72L296,169.456z"/>
<path style="fill:#963877;" d="M325.8,112.936L325.8,112.936c-10.08-1.944-19.8,4.64-21.76,14.72L296,169.464
	c-1.936,10.072,4.64,19.824,14.736,21.752l0,0c10.064,1.944,19.784-4.664,21.736-14.736"/>
<g>
	<path style="fill:#5CCC6E;" d="M213.208,407.728c0,23.464-16.784,42.48-37.48,42.48c-20.704,0-29.184-19.016-29.184-42.48
		s8.488-42.48,29.184-42.48C196.432,365.248,213.208,384.264,213.208,407.728z"/>
	<ellipse style="fill:#5CCC6E;" cx="214.88" cy="407.728" rx="29.152" ry="33.032"/>
	<path style="fill:#5CCC6E;" d="M213.208,417.856c0,23.472-16.784,42.488-37.48,42.488c-20.704,0-29.184-19.016-29.184-42.488
		c0-23.456,8.488-42.472,29.184-42.472C196.432,375.392,213.208,394.408,213.208,417.856z"/>
	<ellipse style="fill:#5CCC6E;" cx="214.88" cy="417.856" rx="29.152" ry="33.048"/>
</g>
<g>
	<path style="fill:#02243E;" d="M213.208,412.792c0,23.464-16.784,42.48-37.48,42.48c-20.704,0-29.184-19.016-29.184-42.48
		s8.488-42.48,29.184-42.48C196.432,370.32,213.208,389.336,213.208,412.792z"/>
	<ellipse style="fill:#02243E;" cx="214.88" cy="412.76" rx="29.152" ry="33.032"/>
</g>
<g>
	<path style="fill:#46AA5B;" d="M169.312,423.136c0,1.92-1.544,3.464-3.456,3.464h-1.096c-1.904,0-3.448-1.544-3.448-3.464v-25.08
		c0-1.912,1.544-3.456,3.456-3.456h1.096c1.904,0,3.448,1.544,3.448,3.464V423.136z"/>
	<circle style="fill:#46AA5B;" cx="204.856" cy="412.76" r="11.056"/>
</g>
<path style="fill:#5CCC6E;" d="M307.632,410.6c0,5.528,1.04,8-4.496,8h-65.68c-5.544,0-4.496-2.472-4.496-8l0,0
	c0-5.528-1.048-8,4.496-8h65.68C308.672,402.6,307.632,405.072,307.632,410.6L307.632,410.6z"/>
<path style="fill:#683409;" d="M307.632,414.6c0,5.536,1.04,12-4.496,12h-65.68c-5.544,0-4.496-6.464-4.496-12l0,0
	c0-5.528-1.048-12,4.496-12h65.68C308.672,402.6,307.632,409.072,307.632,414.6L307.632,414.6z"/>
<g>
	<path style="fill:#844414;" d="M247.144,418.496c0,0.384-0.312,0.688-0.696,0.688l0,0c-0.384,0-0.688-0.304-0.688-0.688v-11.408
		c0-0.384,0.304-0.688,0.688-0.688l0,0c0.384,0,0.696,0.304,0.696,0.688V418.496z"/>
	<path style="fill:#844414;" d="M259.472,418.496c0,0.384-0.304,0.688-0.688,0.688l0,0c-0.384,0-0.696-0.304-0.696-0.688v-11.408
		c0-0.384,0.312-0.688,0.696-0.688l0,0c0.384,0,0.688,0.304,0.688,0.688V418.496z"/>
	<path style="fill:#844414;" d="M271.808,418.496c0,0.384-0.312,0.688-0.704,0.688l0,0c-0.376,0-0.672-0.304-0.672-0.688v-11.408
		c0-0.384,0.296-0.688,0.672-0.688l0,0c0.392,0,0.704,0.304,0.704,0.688V418.496z"/>
	<path style="fill:#844414;" d="M284.136,418.496c0,0.384-0.304,0.688-0.696,0.688l0,0c-0.376,0-0.68-0.304-0.68-0.688v-11.408
		c0-0.384,0.304-0.688,0.68-0.688l0,0c0.392,0,0.696,0.304,0.696,0.688V418.496z"/>
	<path style="fill:#844414;" d="M296.464,418.496c0,0.384-0.312,0.688-0.688,0.688l0,0c-0.384,0-0.688-0.304-0.688-0.688v-11.408
		c0-0.384,0.304-0.688,0.688-0.688l0,0c0.376,0,0.688,0.304,0.688,0.688V418.496z"/>
</g>
<g>
	<circle style="fill:#46AA5B;" cx="252.552" cy="412.76" r="1.384"/>
	<circle style="fill:#46AA5B;" cx="276.512" cy="412.76" r="1.376"/>
</g>
<path style="fill:#02243E;" d="M321.312,424.232c0,5.728-4.648,10.368-10.384,10.368h-3.232c-5.736,0-10.384-4.64-10.384-10.368
	v-19.264c0-5.728,4.648-10.368,10.384-10.368h3.232c5.736,0,10.384,4.64,10.384,10.368V424.232z"/>
<g>
	<circle style="fill:#5CCC6E;" cx="305.872" cy="384.968" r="3.112"/>
	<circle style="fill:#5CCC6E;" cx="305.872" cy="440.624" r="3.112"/>
	<circle style="fill:#5CCC6E;" cx="315.552" cy="384.968" r="3.112"/>
	<circle style="fill:#5CCC6E;" cx="315.552" cy="440.624" r="3.112"/>
</g>
<g>
</g>
<g>
</g>
<g>
</g>
<g>
</g>
<g>
</g>
<g>
</g>
<g>
</g>
<g>
</g>
<g>
</g>
<g>
</g>
<g>
</g>
<g>
</g>
<g>
</g>
<g>
</g>
<g>
</g>
</svg>
