<?xml version="1.0" encoding="iso-8859-1"?>
<!-- Generator: Adobe Illustrator 19.0.0, SVG Export Plug-In . SVG Version: 6.00 Build 0)  -->
<svg version="1.1" id="Layer_1" xmlns="http://www.w3.org/2000/svg" xmlns:xlink="http://www.w3.org/1999/xlink" x="0px" y="0px"
	 viewBox="0 0 497.864 497.864" style="enable-background:new 0 0 497.864 497.864;" xml:space="preserve">
<path style="fill:#0C537A;" d="M376.932,366.664c0,145.072-57.312,70.672-128,70.672s-128,74.4-128-70.672S114.244,0,248.932,0
	S376.932,221.592,376.932,366.664z"/>
<path style="fill:#00233F;" d="M248.932,0c134.688,0,128,221.592,128,366.664s-57.312,70.672-128,70.672s-128,74.4-128-70.672"/>
<path style="fill:#7F8780;" d="M327.156,325.984c-18.472-14.12-46.64-23.152-78.224-23.152s-59.76,9.032-78.224,23.152
	L47.924,363.72l4.232,134.144h16h174.792h-0.072h12.112h-0.072h190.792l4.232-134.144L327.156,325.984z"/>
<path style="fill:#697069;" d="M144.932,497.864h98.016h-0.072h12.112h-0.072h190.792l4.232-134.144l-122.784-38.208
	c-18.472-14.12-46.64-22.912-78.224-22.912s-59.76,9.152-78.224,23.264L47.924,363.72"/>
<g>
	<rect x="200.932" y="217.864" style="fill:#0C537A;" width="96" height="144"/>
	<path style="fill:#0C537A;" d="M327.156,317.984c-18.472-14.12-46.64-15.152-78.224-15.152s-59.76,1.032-78.224,15.152
		l-50.376,23.864c21.456,20.864,70.936,35.488,128.6,35.488s107.152-14.616,128.6-35.488L327.156,317.984z"/>
</g>
<polygon style="fill:#00233F;" points="296.932,310.4 296.932,217.864 201.908,217.864 250.14,351.976 "/>
<path style="fill:#FCCCB9;" d="M323.892,132.376c0,72.24-36.624,137.616-74.944,137.616c-38.312,0-74.968-65.376-74.968-137.616
	s36.656-84.288,74.968-84.288C287.268,48.088,323.892,60.136,323.892,132.376z"/>
<path style="fill:#F9BDA0;" d="M248.948,48.088c38.32,0,74.944,12.048,74.944,84.288s-36.624,137.616-74.944,137.616"/>
<path style="fill:#0C537A;" d="M248.94,92.664c35.656,0,65.896,10.936,76.856,26.128c9.544-0.648,18.528-1.4,26.392-2.264
	c-0.736-56.384-53.52-104.296-105.704-104.296c-52.2,0-100.08,47.912-100.832,104.296c7.872,0.864,16.856,1.616,26.392,2.264
	C183.028,103.6,213.268,92.664,248.94,92.664z"/>
<path style="fill:#00233F;" d="M145.66,116.52c7.872,0.864,16.856,1.616,26.392,2.264c10.976-15.184,41.216-26.128,76.888-26.128
	c35.656,0,65.896,10.936,76.856,26.128c9.544-0.648,18.528-1.4,26.392-2.264c-0.736-56.384-53.52-104.296-105.704-104.296"/>
<g>
	<path style="fill:#F6FC00;" d="M262.788,445.84c-11.592,0-21.008-9.408-21.008-21c0-5.216,1.976-9.936,5.136-13.608
		c-9.736,1.824-17.136,10.344-17.136,20.608c0,11.592,9.416,21,21.008,21c6.376,0,12.016-2.904,15.856-7.392
		C265.396,445.688,264.116,445.84,262.788,445.84z"/>
	<polygon style="fill:#F6FC00;" points="259.292,418.624 262.012,424.12 268.068,425.008 263.684,429.288 264.724,435.336 
		259.292,432.48 253.852,435.336 254.9,429.288 250.492,425.008 256.572,424.12 	"/>
</g>
<g>
</g>
<g>
</g>
<g>
</g>
<g>
</g>
<g>
</g>
<g>
</g>
<g>
</g>
<g>
</g>
<g>
</g>
<g>
</g>
<g>
</g>
<g>
</g>
<g>
</g>
<g>
</g>
<g>
</g>
</svg>
