<?xml version="1.0" encoding="iso-8859-1"?>
<!-- Generator: Adobe Illustrator 19.0.0, SVG Export Plug-In . SVG Version: 6.00 Build 0)  -->
<svg version="1.1" id="Layer_1" xmlns="http://www.w3.org/2000/svg" xmlns:xlink="http://www.w3.org/1999/xlink" x="0px" y="0px"
	 viewBox="0 0 484.592 484.592" style="enable-background:new 0 0 484.592 484.592;" xml:space="preserve">
<rect x="154.94" y="263.688" style="fill:#545654;" width="174.672" height="96"/>
<rect x="162.22" y="270.496" style="fill:#F9BDA0;" width="161.992" height="172"/>
<path style="fill:#00233F;" d="M327.308,89.048c0,40.12-30.216,72.648-67.504,72.648h-33.168c-37.28,0-67.504-32.528-67.504-72.648
	l0,0c0-40.136,30.216-72.648,67.504-72.648h33.168C297.092,16.4,327.308,48.92,327.308,89.048L327.308,89.048z"/>
<polygon style="fill:#F9BDA0;" points="303.54,290.624 182.868,290.624 190.924,190.64 295.5,190.64 "/>
<polygon style="fill:#E28F71;" points="303.556,290.624 255.484,342.496 182.884,190.64 295.508,190.64 "/>
<path style="fill:#FCCCB9;" d="M324.684,110.656c0,70.872-35.704,135-81.456,135c-45.768,0-81.488-64.128-81.488-135
	c0-70.88,35.72-82.68,81.488-82.68C288.98,27.976,324.684,39.776,324.684,110.656z"/>
<path style="fill:#F9BDA0;" d="M243.228,27.976c45.752,0,81.456,11.8,81.456,82.68c0,70.872-35.704,135-81.456,135"/>
<g>
	<path style="fill:#00233F;" d="M162.212,99.92c-4.328-1.896-3.472-14.736,0.344-23.424c3.832-8.704,10.456-14.2,14.768-12.296
		c4.344,1.904,7.936,12.784,0.936,19.192"/>
	<path style="fill:#00233F;" d="M324.196,99.728c4.344-1.912,3.528-14.744-0.28-23.432c-3.816-8.68-10.408-14.168-14.752-12.256
		c-4.328,1.912-7.952,12.808-0.952,19.192"/>
	<path style="fill:#00233F;" d="M198.108,203.976c-0.2-0.224-0.312-0.376-0.312-0.376S197.868,203.824,198.108,203.976z"/>
	<path style="fill:#00233F;" d="M243.372,181.168c-7.784-0.424-23.36,0.288-32.168,11.456c-9.344,11.8-12.232,11.912-13.096,11.36
		c1.36,1.472,7.392,6.344,22.472-1.592c10.8-5.672,18.488-6.416,22.8-6.168v-15.056H243.372z"/>
	<path style="fill:#00233F;" d="M288.324,203.976c0.2-0.224,0.312-0.376,0.312-0.376S288.556,203.824,288.324,203.976z"/>
	<path style="fill:#00233F;" d="M243.076,181.168c7.768-0.424,23.344,0.288,32.16,11.456c9.344,11.8,12.248,11.912,13.096,11.36
		c-1.36,1.472-7.376,6.344-22.472-1.592c-10.784-5.672-18.488-6.416-22.784-6.168V181.168z"/>
</g>
<path style="fill:#8F9390;" d="M461.404,314.688l-121.552-42.032l2.568-6.888l-15.904-6.672
	c-6.344,28.736-41.584,50.752-84.216,50.752c-42.648,0-77.872-22.016-84.208-50.752l-15.92,6.672l2.576,6.888L23.196,314.688
	L0.132,484.592h30.736h156.736h47.528h14.328h49.736h154.528h30.736L461.404,314.688z"/>
<path style="fill:#7F8780;" d="M0.132,484.592h30.736h156.736h47.528h14.328h49.736h154.528h30.736l-23.064-169.904l-121.552-42.032
	l2.568-6.888l-15.896-6.672c-6.344,28.736-41.584,50.752-84.216,50.752c-42.648,0-77.872-22.016-84.208-50.752l-15.92,6.672
	l2.576,6.888"/>
<path style="fill:#697069;" d="M235.132,484.592h14.328h49.736h154.528h30.736l-23.064-169.904l-121.552-42.032l2.568-6.888
	l-15.896-6.672c-6.344,28.736-41.584,50.752-84.216,50.752"/>
<path style="fill:#8F9390;" d="M243.22,63c30.688,0,58.848,1.32,81.08,3.512C317.252,28.68,283.668,0,243.22,0
	s-74.032,28.688-81.08,66.512C184.38,64.32,212.532,63,243.22,63z"/>
<path style="fill:#7F8780;" d="M162.14,66.52c22.232-2.192,50.392-3.512,81.08-3.512s58.848,1.32,81.08,3.512
	c-7.048-37.832-40.632-66.512-81.08-66.512"/>
<path style="fill:#697069;" d="M243.22,63c30.688,0,58.848,1.32,81.08,3.512C317.252,28.68,283.668,0,243.22,0"/>
<g>
	<path style="fill:#F6FC00;" d="M256.156,381.496c-11.592,0-21.008-9.408-21.008-21c0-5.216,1.976-9.936,5.136-13.608
		c-9.736,1.832-17.136,10.344-17.136,20.608c0,11.592,9.416,21,21.008,21c6.376,0,12.016-2.904,15.856-7.392
		C258.764,381.344,257.484,381.496,256.156,381.496z"/>
	<polygon style="fill:#F6FC00;" points="252.66,354.28 255.38,359.784 261.436,360.672 257.052,364.952 258.092,371 252.66,368.136 
		247.22,371 248.268,364.952 243.86,360.672 249.94,359.784 	"/>
</g>
<rect x="229.299" y="229.709" transform="matrix(-0.7072 0.707 -0.707 -0.7072 585.2408 243.0426)" style="fill:#00233F;" width="25.992" height="25.992"/>
<polygon style="fill:#0C537A;" points="146.108,475.184 58.108,475.184 58.108,288.184 146.108,259.184 "/>
<g>
	<polyline style="fill:#00233F;" points="146.108,259.184 146.108,475.184 58.108,475.184 	"/>
	<rect x="66.78" y="294.184" style="fill:#00233F;" width="3.344" height="174"/>
	<rect x="79.244" y="294.184" style="fill:#00233F;" width="3.336" height="174"/>
	<rect x="91.748" y="294.184" style="fill:#00233F;" width="3.344" height="174"/>
	<rect x="104.244" y="294.184" style="fill:#00233F;" width="3.336" height="174"/>
	<rect x="116.748" y="294.184" style="fill:#00233F;" width="3.344" height="174"/>
	<rect x="129.244" y="294.184" style="fill:#00233F;" width="3.336" height="174"/>
</g>
<g>
</g>
<g>
</g>
<g>
</g>
<g>
</g>
<g>
</g>
<g>
</g>
<g>
</g>
<g>
</g>
<g>
</g>
<g>
</g>
<g>
</g>
<g>
</g>
<g>
</g>
<g>
</g>
<g>
</g>
</svg>
