<?xml version="1.0" encoding="iso-8859-1"?>
<!-- Generator: Adobe Illustrator 19.0.0, SVG Export Plug-In . SVG Version: 6.00 Build 0)  -->
<svg version="1.1" id="Layer_1" xmlns="http://www.w3.org/2000/svg" xmlns:xlink="http://www.w3.org/1999/xlink" x="0px" y="0px"
	 viewBox="0 0 466.712 466.712" style="enable-background:new 0 0 466.712 466.712;" xml:space="preserve">
<path style="fill:#C68D1A;" d="M352.024,284.704c0,98.672-57.544,178.664-118.656,178.664c-61.128,0-118.672-79.992-118.672-178.664
	S172.24,106.04,233.368,106.04C294.48,106.04,352.024,186.032,352.024,284.704z"/>
<polygon style="fill:#B76393;" points="434.304,334.392 281.36,287.152 281.36,274.6 185.36,274.6 185.36,287.16 32.408,334.336 
	40.16,466.6 40.16,466.6 41.36,466.6 425.36,466.6 427.472,466.712 427.472,466.712 "/>
<polygon style="fill:#99567A;" points="434.304,334.392 281.36,287.152 281.36,274.6 185.36,274.6 185.36,287.16 32.408,334.392 
	103.288,466.6 103.288,466.6 42.056,466.6 425.36,466.6 427.472,466.712 427.472,466.712 "/>
<polygon style="fill:#C68D1A;" points="348.864,250.6 117.856,250.6 134.352,138.6 332.352,138.6 "/>
<path style="fill:#AD7410;" d="M338.024,133.456c0,35.344-51.264,64-104.672,64c-53.376,0-104.656-28.656-104.656-64
	s51.28-64,104.656-64C286.76,69.456,338.024,98.112,338.024,133.456z"/>
<rect x="185.36" y="178.6" style="fill:#F9BDA0;" width="96" height="112"/>
<polygon style="fill:#EAA78C;" points="281.36,280.136 281.36,186.6 186.336,186.6 234.568,337.208 "/>
<path style="fill:#FCCCB9;" d="M308.32,102.112c0,72.24-36.624,137.616-74.944,137.616s-74.96-65.376-74.96-137.616
	s36.64-84.288,74.96-84.288S308.32,29.872,308.32,102.112z"/>
<path style="fill:#F9BDA0;" d="M233.376,17.824c38.32,0,74.944,12.048,74.944,84.288s-36.624,137.616-74.944,137.616"/>
<path style="fill:#C68D1A;" d="M243.792,13.072c0,0-69.656,53.328,89.92,117.568c0,0,3.064-70.688-23-101.504
	c-26.08-30.8-66.44-27-66.44-27L243.792,13.072z"/>
<path style="fill:#DD9922;" d="M255.128,2.248c0,0,77.784,72.824-122.056,133.76c0,0-11.784-75.976,18.984-108.528
	c30.76-32.552,85.92-27.144,85.92-27.144L255.128,2.248z"/>
<g>
	<path style="fill:#C68D1A;" d="M237.976,0.336l18.496,2.032c0,0,76.432,72.704-123.4,133.64"/>
	<polygon style="fill:#C68D1A;" points="273.36,96.072 146.384,127.336 210.136,58.6 273.36,58.6 	"/>
</g>
<path style="fill:#EAA78C;" d="M281.36,287.152V274.6h-96v12.56l-40.024,12.472c5.544,28.04,42.824,49.736,87.784,49.736
	s82.608-21.696,88.144-49.744L281.36,287.152z"/>
<circle style="fill:#BADADD;" cx="198.376" cy="133.208" r="20.488"/>
<path style="fill:#13475E;" d="M198.392,157.696c-13.504,0-24.496-10.984-24.496-24.488c0-13.504,10.992-24.496,24.496-24.496
	c13.496,0,24.48,10.984,24.48,24.496C222.864,146.712,211.888,157.696,198.392,157.696z M198.392,116.72
	c-9.096,0-16.496,7.4-16.496,16.496c0,9.088,7.4,16.488,16.496,16.488c9.088,0,16.48-7.4,16.48-16.488
	C214.864,124.112,207.48,116.72,198.392,116.72z"/>
<path style="fill:#13475E;" d="M177.36,138.6h-24c-2.208,0-4-1.792-4-4s1.792-4,4-4h24c2.208,0,4,1.792,4,4
	S179.568,138.6,177.36,138.6z"/>
<circle style="fill:#7DA7AA;" cx="268.32" cy="133.208" r="20.488"/>
<path style="fill:#13475E;" d="M268.336,157.696c-13.504,0-24.488-10.984-24.488-24.488c0-13.504,10.984-24.496,24.488-24.496
	s24.496,10.984,24.496,24.496C292.832,146.712,281.84,157.696,268.336,157.696z M268.336,116.72c-9.088,0-16.488,7.4-16.488,16.496
	c0,9.088,7.392,16.488,16.488,16.488s16.496-7.4,16.496-16.488C284.832,124.112,277.432,116.72,268.336,116.72z"/>
<g>
	<path style="fill:#13475E;" d="M313.36,138.6h-24c-2.208,0-4-1.792-4-4s1.792-4,4-4h24c2.208,0,4,1.792,4,4
		S315.568,138.6,313.36,138.6z"/>
	<path style="fill:#13475E;" d="M246.76,143.984c-2.208,0-4-1.792-4-4c0-5.176-4.208-9.4-9.392-9.4c-5.192,0-9.424,4.216-9.424,9.4
		c0,2.208-1.792,4-4,4s-4-1.792-4-4c0-9.592,7.816-17.4,17.424-17.4c9.592,0,17.392,7.808,17.392,17.4
		C250.76,142.192,248.968,143.984,246.76,143.984z"/>
</g>
<path style="fill:#B76393;" d="M252.808,375.04c-6.52,0-13.28,1.664-19.456,4.552c-6.152-2.888-12.912-4.552-19.424-4.552
	c-19.856,0-29.736,15.384-29.736,34.328c0,18.968,20.248,51.832,40.088,51.832c3.24,0,6.272-0.896,9.072-2.44
	c2.816,1.536,5.832,2.44,9.088,2.44c19.832,0,40.08-32.864,40.08-51.832C282.52,390.424,272.64,375.04,252.808,375.04z"/>
<path style="fill:#99567A;" d="M224.28,461.2c3.24,0,6.272-0.896,9.072-2.44c2.816,1.536,5.832,2.44,9.088,2.44
	c19.832,0,40.08-32.864,40.08-51.832c0-18.944-9.872-34.328-29.712-34.328c-6.52,0-13.28,1.664-19.456,4.552
	c-6.152-2.888-12.912-4.552-19.424-4.552"/>
<path style="fill:#C98BAE;" d="M233.352,458.768c2.816,1.536,5.832,2.44,9.088,2.44c19.832,0,40.08-32.864,40.08-51.832
	c0-18.944-9.872-34.328-29.712-34.328c-6.52,0-13.28,1.664-19.456,4.552"/>
<path style="fill:#FCF7C5;" d="M249.792,383.592c-5.504,0-11.224,1.336-16.44,3.64c-5.192-2.304-10.912-3.64-16.4-3.64
	c-16.768,0-25.112,12.312-25.112,27.512s17.096,41.544,33.856,41.544c2.736,0,5.288-0.72,7.648-1.952
	c2.376,1.232,4.928,1.952,7.656,1.952c16.776,0,33.864-26.344,33.864-41.544S266.528,383.592,249.792,383.592z"/>
<path style="fill:#EADFA0;" d="M233.352,450.704c2.376,1.232,4.928,1.952,7.656,1.952c16.776,0,33.864-26.344,33.864-41.544
	s-8.344-27.512-25.088-27.512c-5.504,0-11.224,1.336-16.44,3.64"/>
<path style="fill:#C98BAE;" d="M218.072,417.144v0.024l8.808,5.568l-1.832-9.808h-0.04c-0.088-0.592-0.304-1.168-0.672-1.68
	c-1.352-1.976-4.168-2.528-6.272-1.256c-2.104,1.28-2.704,3.904-1.336,5.888C217.096,416.408,217.552,416.832,218.072,417.144z"/>
<g>
	<path style="fill:#99567A;" d="M226.872,422.744l-1.832-9.808H225c-0.088-0.592-0.304-1.168-0.672-1.68
		c-1.352-1.976-4.168-2.528-6.272-1.256"/>
	<path style="fill:#99567A;" d="M248.64,417.144v0.024l-8.8,5.568l1.832-9.808h0.032c0.104-0.592,0.312-1.168,0.68-1.68
		c1.368-1.976,4.168-2.528,6.272-1.256c2.104,1.28,2.704,3.904,1.352,5.888C249.64,416.408,249.168,416.832,248.64,417.144z"/>
</g>
<g>
	<path style="fill:#C98BAE;" d="M239.848,422.744l1.832-9.808h0.032c0.104-0.592,0.312-1.168,0.68-1.68
		c1.368-1.976,4.168-2.528,6.272-1.256"/>
	<path style="fill:#C98BAE;" d="M233.36,383.208v-23.152c0,0,3.936-3.072,6.776,0l-3.936,21.512L233.36,383.208z"/>
</g>
<path style="fill:#B76393;" d="M230.968,376.712L230.968,376.712l0.08-0.04l0,0c1.664-5.376,2.8-11.968-0.512-15.448
	c-5.704-6.016-12.216,1.376-19.344-6.624h-0.016l-0.056,1.768l0.032,0.88"/>
<path style="fill:#C98BAE;" d="M229.44,378.512L229.44,378.512L229.44,378.512L229.44,378.512
	c-5.744,1.56-10.896,2.448-14.616-0.664c-6.384-5.344-3.8-12.472-6.84-19.16l2.128,0.656l0,0l0,0"/>
<g>
</g>
<g>
</g>
<g>
</g>
<g>
</g>
<g>
</g>
<g>
</g>
<g>
</g>
<g>
</g>
<g>
</g>
<g>
</g>
<g>
</g>
<g>
</g>
<g>
</g>
<g>
</g>
<g>
</g>
</svg>
