<?xml version="1.0" encoding="iso-8859-1"?>
<!-- Generator: Adobe Illustrator 19.0.0, SVG Export Plug-In . SVG Version: 6.00 Build 0)  -->
<svg version="1.1" id="Layer_1" xmlns="http://www.w3.org/2000/svg" xmlns:xlink="http://www.w3.org/1999/xlink" x="0px" y="0px"
	 viewBox="0 0 497.864 497.864" style="enable-background:new 0 0 497.864 497.864;" xml:space="preserve">
<path style="fill:#0C537A;" d="M408.932,366.664c0,145.072-89.312,70.672-160,70.672s-160,74.4-160-70.672S114.244,0,248.932,0
	S408.932,221.592,408.932,366.664z"/>
<path style="fill:#00233F;" d="M248.932,0c134.688,0,160,221.592,160,366.664s-89.312,70.672-160,70.672s-160,74.4-160-70.672"/>
<path style="fill:#0C537A;" d="M327.156,325.984c-18.472-14.12-46.64-23.152-78.224-23.152s-59.76,9.032-78.224,23.152
	L47.924,363.72l4.232,134.144h16h174.792h-0.072h12.112h-0.072h190.792l4.232-134.144L327.156,325.984z"/>
<path style="fill:#00233F;" d="M144.932,497.864h98.016h-0.072h12.112h-0.072h190.792l4.232-134.144l-122.784-38.208
	c-18.472-14.12-46.64-22.912-78.224-22.912s-59.76,9.152-78.224,23.264L47.924,363.72"/>
<g>
	<rect x="200.932" y="217.864" style="fill:#FFFFFF;" width="96" height="144"/>
	<path style="fill:#FFFFFF;" d="M327.156,317.984c-18.472-14.12-46.64-15.152-78.224-15.152s-59.76,1.032-78.224,15.152
		l-50.376,23.864c21.456,20.864,70.936,35.488,128.6,35.488s107.152-14.616,128.6-35.488L327.156,317.984z"/>
</g>
<polygon style="fill:#E8E8E8;" points="296.932,310.4 296.932,217.864 201.908,217.864 250.14,351.968 "/>
<path style="fill:#FCCCB9;" d="M323.892,132.376c0,72.24-36.624,137.616-74.944,137.616c-38.312,0-74.968-65.376-74.968-137.616
	s36.656-84.288,74.968-84.288C287.268,48.088,323.892,60.136,323.892,132.376z"/>
<path style="fill:#F9BDA0;" d="M248.948,48.088c38.32,0,74.944,12.048,74.944,84.288s-36.624,137.616-74.944,137.616"/>
<path style="fill:#663D0C;" d="M231.98,34.16c0,0,23.248,115.096,117.312,126.744c0,0,3.056-70.688-23.008-101.504
	c-26.08-30.8-66.448-27-66.448-27L231.98,34.16z"/>
<path style="fill:#894D0C;" d="M284.316,34.224c0,0,18.976,90.176-135.664,132.048c0,0-11.792-75.976,18.976-108.528
	c30.76-32.552,85.904-27.144,85.904-27.144L284.316,34.224z"/>
<path style="fill:#663D0C;" d="M253.532,30.6l30.784,3.624c0,0,18.976,90.176-135.664,132.048"/>
<path style="fill:#FFFFFF;" d="M248.924,121.336c34.976,0,75.608-1.768,103.264-4.816c-0.736-56.384-53.52-104.296-105.704-104.296
	c-52.2,0-100.08,47.912-100.832,104.296C173.324,119.568,213.956,121.336,248.924,121.336z"/>
<path style="fill:#E8E8E8;" d="M248.924,121.336c34.976,0,75.608-1.768,103.264-4.816c-0.736-56.384-53.52-104.296-105.704-104.296"
	/>
<polygon style="fill:#EDB720;" points="272.932,417.864 256.932,417.864 256.932,401.864 240.932,401.864 240.932,417.864 
	224.932,417.864 224.932,433.864 240.932,433.864 240.932,473.864 256.932,473.864 256.932,433.864 272.932,433.864 "/>
<g>
</g>
<g>
</g>
<g>
</g>
<g>
</g>
<g>
</g>
<g>
</g>
<g>
</g>
<g>
</g>
<g>
</g>
<g>
</g>
<g>
</g>
<g>
</g>
<g>
</g>
<g>
</g>
<g>
</g>
</svg>
