<?xml version="1.0" encoding="iso-8859-1"?>
<!-- Generator: Adobe Illustrator 19.0.0, SVG Export Plug-In . SVG Version: 6.00 Build 0)  -->
<svg version="1.1" id="Layer_1" xmlns="http://www.w3.org/2000/svg" xmlns:xlink="http://www.w3.org/1999/xlink" x="0px" y="0px"
	 viewBox="0 0 496 496" style="enable-background:new 0 0 496 496;" xml:space="preserve">
<rect x="56" y="400" style="fill:#F9BDA0;" width="384" height="96"/>
<g>
	<path style="fill:#CE3309;" d="M148.2,155.048c-1.336-2.672,4.864-7.896,4.864-7.896l75.064-15.368l4.528,104.008l-28.032,32.56"/>
	<path style="fill:#CE3309;" d="M347.816,155.048c1.336-2.672-4.864-7.896-4.864-7.896l-75.064-15.368l-4.536,104.008l28.04,32.56"
		/>
</g>
<polygon style="fill:#F9BDA0;" points="296,310.056 296,208 200,208 200,310.064 46.992,359.008 55.296,492.104 244.4,445.024 
	233.104,408 262.896,408 251.464,445.024 440.464,492.496 449.008,359.008 "/>
<polygon style="fill:#EAA78C;" points="296,303.04 296,208 200.976,208 249.216,343.352 "/>
<path style="fill:#FCCCB9;" d="M322.96,125.016c0,72.24-36.624,137.616-74.944,137.616s-74.96-65.376-74.96-137.616
	s36.64-84.288,74.96-84.288S322.96,52.776,322.96,125.016z"/>
<path style="fill:#F9BDA0;" d="M248.016,40.728c38.32,0,74.944,12.048,74.944,84.288s-36.624,137.616-74.944,137.616"/>
<polyline style="fill:#FCCCB9;" points="46.992,359.008 55.536,492.104 244.52,444.248 "/>
<polyline style="fill:#EAA78C;" points="449.008,359.008 440.464,492.104 251.464,444.248 "/>
<path style="fill:#E5370E;" d="M231.04,26.8c0,0,23.264,115.096,117.312,126.744c0,0,3.064-70.688-23-101.504
	c-26.08-30.8-66.44-27-66.44-27L231.04,26.8z"/>
<path style="fill:#F95130;" d="M283.384,26.856c0,0,18.968,90.176-135.672,132.048c0,0-11.784-75.976,18.984-108.528
	c30.752-32.552,85.92-27.144,85.92-27.144L283.384,26.856z"/>
<path style="fill:#E5370E;" d="M252.616,23.232l30.768,3.624c0,0,18.968,90.176-135.672,132.048"/>
<polygon style="fill:#7DD9EF;" points="242.016,496 193.808,312.864 46.992,359.008 51.224,496 "/>
<polyline style="fill:#EAA78C;" points="251.464,445.568 350.664,472 441.808,472 448.104,364.56 449.008,359.008 296.24,310.056 
	276.312,384 219.688,384 199.76,309.736 46.992,359.008 99.224,472 145.32,472 244.52,446.224 "/>
<polygon style="fill:#6DCBE8;" points="242.016,496 193.808,312.864 46.992,360.016 67.224,496 "/>
<polygon style="fill:#58B3D6;" points="302.192,310.848 276.312,408 219.688,408 193.808,310.848 46.992,359.008 99.224,496 
	242.016,496 241.944,496 254.056,496 253.976,496 444.776,496 449.008,359.008 "/>
<polyline style="fill:#4198C4;" points="387.976,493.92 253.976,496 444.776,496 449.008,360.016 "/>
<polygon style="fill:#7DD9EF;" points="312.496,72 183.504,72 167.504,0 328.496,0 "/>
<polygon style="fill:#6DCBE8;" points="174.608,32 183.504,72 312.496,72 321.392,32 "/>
<polyline style="fill:#58B3D6;" points="184,72 312.496,72 322.192,28.36 "/>
<polygon style="fill:#E5370E;" points="322.728,88 312.504,72 183.504,72 201.136,88 "/>
<g>
	<rect x="336" y="400" style="fill:#CE499E;" width="16" height="48"/>
	<rect x="320" y="416" style="fill:#CE499E;" width="48" height="16"/>
	<rect x="240" y="16" style="fill:#CE499E;" width="16" height="48"/>
	<rect x="224" y="32" style="fill:#CE499E;" width="48" height="16"/>
</g>
<g>
</g>
<g>
</g>
<g>
</g>
<g>
</g>
<g>
</g>
<g>
</g>
<g>
</g>
<g>
</g>
<g>
</g>
<g>
</g>
<g>
</g>
<g>
</g>
<g>
</g>
<g>
</g>
<g>
</g>
</svg>
