<?xml version="1.0" encoding="iso-8859-1"?>
<!-- Generator: Adobe Illustrator 19.0.0, SVG Export Plug-In . SVG Version: 6.00 Build 0)  -->
<svg version="1.1" id="Layer_1" xmlns="http://www.w3.org/2000/svg" xmlns:xlink="http://www.w3.org/1999/xlink" x="0px" y="0px"
	 viewBox="0 0 484.336 484.336" style="enable-background:new 0 0 484.336 484.336;" xml:space="preserve">
<polygon style="fill:#4198C4;" points="304.424,259.424 461.272,313.328 484.336,482.872 249.336,482.872 "/>
<polygon style="fill:#7DD9EF;" points="179.912,259.424 23.064,313.328 0,482.872 235,482.872 "/>
<polygon style="fill:#6DCBE8;" points="153.896,372.408 23.064,313.328 0,482.872 235,482.872 "/>
<polygon style="fill:#58B3D6;" points="426.192,328.936 304.424,261.536 291.832,314.872 192.504,314.872 179.912,261.888 
	58.144,329.816 70.736,482.872 187.472,482.872 235,482.872 249.336,482.872 299.064,482.872 413.6,482.872 "/>
<path style="fill:#68350C;" d="M326.256,90.872c0,40.12-30.216,72-67.504,72h-33.168c-37.28,0-67.504-31.88-67.504-72l0,0
	c0-40.136,30.216-72,67.504-72h33.168C296.032,18.872,326.256,50.736,326.256,90.872L326.256,90.872z"/>
<polygon style="fill:#F9BDA0;" points="302.504,290.872 181.832,290.872 189.88,186.872 294.456,186.872 "/>
<polygon style="fill:#E28F71;" points="302.504,290.872 241.976,290.872 181.832,186.872 294.456,186.872 "/>
<path style="fill:#FCCCB9;" d="M323.648,110.344c0,70.872-35.72,135-81.472,135c-45.768,0-81.472-64.128-81.472-135
	c0-70.88,35.704-82.68,81.472-82.68C287.928,27.664,323.648,39.464,323.648,110.344z"/>
<path style="fill:#F9BDA0;" d="M242.176,27.664c45.752,0,81.472,11.8,81.472,82.68c0,70.872-35.72,135-81.472,135"/>
<polygon style="fill:#E28F71;" points="240.192,376.104 168.08,302.24 142.048,272.448 186.736,257.072 242.176,289.224 
	297.6,257.072 342.288,272.448 316.256,302.24 244.144,376.104 242.112,379.56 "/>
<polygon style="fill:#F9BDA0;" points="240.192,357.376 168.08,302.24 142.048,272.448 186.736,257.072 242.176,289.224 
	297.6,257.072 342.288,272.448 316.256,302.24 244.144,357.376 242.112,360.84 "/>
<g>
	<path style="fill:#68350C;" d="M161.16,99.6c-4.328-1.896-11.472-22.736-7.656-31.424c3.84-8.704,18.456-6.2,22.768-4.296
		c4.344,1.904,7.936,12.784,0.936,19.192"/>
	<path style="fill:#68350C;" d="M323.144,99.416c4.344-1.912,11.528-22.744,7.72-31.432c-3.816-8.68-18.408-6.168-22.752-4.256
		c-4.328,1.912-7.952,12.808-0.952,19.192"/>
	<path style="fill:#68350C;" d="M254.568,53.456c0,0,32.904-0.912,75.16,34.496c0,0,22.184-64.496-64.488-76.496L254.568,53.456z"/>
</g>
<path style="fill:#491D05;" d="M265.24,11.456l-10.672,42c0,0,32.904-0.912,75.16,34.496"/>
<g>
	<rect x="346.168" y="370.872" style="fill:#CE499E;" width="16" height="48"/>
	<rect x="330.168" y="386.872" style="fill:#CE499E;" width="48" height="16"/>
</g>
<path style="fill:#9B541F;" d="M267.472,45.872c0,0-60.048,39.208-100.688,34.936c-40.648-4.272-19.312-49.6,12.688-65.6
	s84-20,100-1.336S267.472,45.872,267.472,45.872z"/>
<path style="fill:#7C4615;" d="M279.472,13.872c16,18.664-12,32-12,32S207.424,85.08,166.784,80.808
	c-40.648-4.272-19.312-49.6,12.688-65.6"/>
<g>
</g>
<g>
</g>
<g>
</g>
<g>
</g>
<g>
</g>
<g>
</g>
<g>
</g>
<g>
</g>
<g>
</g>
<g>
</g>
<g>
</g>
<g>
</g>
<g>
</g>
<g>
</g>
<g>
</g>
</svg>
