<?xml version="1.0" encoding="iso-8859-1"?>
<!-- Generator: Adobe Illustrator 19.0.0, SVG Export Plug-In . SVG Version: 6.00 Build 0)  -->
<svg version="1.1" id="Layer_1" xmlns="http://www.w3.org/2000/svg" xmlns:xlink="http://www.w3.org/1999/xlink" x="0px" y="0px"
	 viewBox="0 0 466.6 466.6" style="enable-background:new 0 0 466.6 466.6;" xml:space="preserve">
<path style="fill:#BC3991;" d="M351.968,284.704c0,98.672-57.544,178.664-118.656,178.664c-61.128,0-118.672-79.992-118.672-178.664
	S172.184,106.04,233.312,106.04C294.424,106.04,351.968,186.032,351.968,284.704z"/>
<polygon style="fill:#D8ADA4;" points="434.248,334.392 281.304,287.152 281.304,274.6 185.304,274.6 185.304,287.16 
	32.352,334.392 40.104,466.6 40.104,466.6 41.304,466.6 425.304,466.6 427.424,466.6 427.424,466.6 "/>
<polygon style="fill:#CC9789;" points="434.248,334.392 281.304,287.152 281.304,274.6 185.304,274.6 185.304,287.16 
	32.352,334.392 103.224,466.6 103.224,466.6 42,466.6 425.304,466.6 427.424,466.6 427.424,466.6 "/>
<g>
	<polygon style="fill:#BC3991;" points="348.808,250.6 117.8,250.6 134.296,138.6 332.296,138.6 	"/>
	<path style="fill:#BC3991;" d="M337.968,133.456c0,35.344-51.264,64-104.672,64c-53.376,0-104.656-28.656-104.656-64
		s51.28-64,104.656-64C286.704,69.456,337.968,98.112,337.968,133.456z"/>
</g>
<rect x="185.304" y="178.6" style="fill:#CC9789;" width="96" height="112"/>
<polygon style="fill:#BF8377;" points="281.304,280.136 281.304,186.6 186.28,186.6 234.512,337.208 "/>
<path style="fill:#CC9789;" d="M308.264,102.112c0,72.24-36.624,137.616-74.944,137.616s-74.96-65.376-74.96-137.616
	S195,17.824,233.32,17.824S308.264,29.872,308.264,102.112z"/>
<g>
	<path style="fill:#BF8377;" d="M233.32,17.824c38.32,0,74.944,12.048,74.944,84.288S271.64,239.728,233.32,239.728"/>
	
		<rect x="163.95" y="104.811" transform="matrix(-0.982 -0.1888 0.1888 -0.982 416.8108 291.3254)" style="fill:#BF8377;" width="116.662" height="41.999"/>
</g>
<path style="fill:#E27ABA;" d="M243.736,13.072c0,0-69.656,53.328,89.92,117.568c0,0,3.064-70.688-23-101.504
	c-26.08-30.8-66.44-27-66.44-27L243.736,13.072z"/>
<path style="fill:#F99BDA;" d="M255.44,2.4c0,0,77.408,72.672-122.424,133.608c0,0-11.784-75.976,18.984-108.528
	c30.76-32.552,85.92-27.144,85.92-27.144L255.44,2.4z"/>
<path style="fill:#E27ABA;" d="M237.92,0.336L255.432,2.4c0,0,124.872,121.896-122.424,133.608"/>
<path style="fill:#BC3991;" d="M103.232,415.2c0.856,2.432-0.44,5.088-2.864,5.936l0,0c-2.44,0.84-5.104-0.44-5.944-2.872
	l-32.392-93.2c-0.848-2.44,0.44-5.096,2.872-5.936l0,0c2.44-0.84,5.096,0.44,5.936,2.872L103.232,415.2z"/>
<path style="fill:#A52B83;" d="M363.36,415.2c-0.84,2.432,0.448,5.088,2.872,5.936l0,0c2.44,0.84,5.096-0.44,5.936-2.872
	l32.392-93.2c0.856-2.44-0.432-5.096-2.864-5.936l0,0c-2.44-0.84-5.096,0.44-5.928,2.872L363.36,415.2z"/>
<path style="fill:#BC3991;" d="M237.52,466.6c5.552-24-22.496-60.872-63.696-70.048c-41.936-9.344-81.528,7.552-88.432,38.536
	c-2.424,10.88-0.408,23.512,4.936,31.512H237.52z"/>
<path style="fill:#A52B83;" d="M229.096,466.6c-5.56-24,22.496-60.872,63.688-70.048c41.936-9.344,81.512,7.552,88.424,38.536
	c2.432,10.88,0.416,23.512-4.928,31.512H229.096z"/>
<g>
</g>
<g>
</g>
<g>
</g>
<g>
</g>
<g>
</g>
<g>
</g>
<g>
</g>
<g>
</g>
<g>
</g>
<g>
</g>
<g>
</g>
<g>
</g>
<g>
</g>
<g>
</g>
<g>
</g>
</svg>
