<?xml version="1.0" encoding="iso-8859-1"?>
<!-- Generator: Adobe Illustrator 19.0.0, SVG Export Plug-In . SVG Version: 6.00 Build 0)  -->
<svg version="1.1" id="Layer_1" xmlns="http://www.w3.org/2000/svg" xmlns:xlink="http://www.w3.org/1999/xlink" x="0px" y="0px"
	 viewBox="0 0 484.336 484.336" style="enable-background:new 0 0 484.336 484.336;" xml:space="preserve">
<g>
	<path style="fill:#0456A0;" d="M378.168,90.168c0,4.424-3.576,8-8,8h-80c-4.424,0-8-3.576-8-8l0,0c0-4.424,3.576-8,8-8h80
		C374.592,82.168,378.168,85.744,378.168,90.168L378.168,90.168z"/>
	<ellipse style="fill:#0456A0;" cx="242.168" cy="276.488" rx="90" ry="29.504"/>
</g>
<polygon style="fill:#895C50;" points="324.08,442.168 162.088,442.168 154.088,274.168 332.08,274.168 "/>
<path style="fill:#1A9AD3;" d="M461.272,313.872L339.72,272.64l2.568,1.504l-15.896-6.472c-6.344,20.728-41.584,42.84-84.216,42.84
	c-42.648,0-77.872-21.96-84.208-42.688l-15.92,6.688l2.576-1.104l-121.56,40.456L0,482.168h30.736h156.736H235h14.328h49.736
	h154.528h30.736L461.272,313.872z"/>
<path style="fill:#1088C4;" d="M90.168,482.168h97.304H235h14.328h49.736h154.528h30.736l-23.064-168.296L339.712,272.64
	l2.568,1.504l-15.896-6.472c-6.344,28.728-41.584,42.84-84.216,42.84c-42.648,0-75.648-20.184-84.208-42.688l-15.92,6.688
	l2.576-1.104L23.064,313.864"/>
<path style="fill:#1176C1;" d="M234.168,482.168h15.168h49.736H453.6h30.736l-23.064-168.296L339.72,272.64l0,0l-13.328-4.96
	c-6.352,20.72-41.584,42.84-84.224,42.84"/>
<polyline style="fill:#0966BA;" points="418.168,482.168 453.6,482.168 484.336,482.168 462.384,312.272 "/>
<polygon style="fill:#A87160;" points="303.408,292.776 184.44,275.024 190.792,194.168 295.368,194.168 "/>
<polygon style="fill:#895C50;" points="303.424,292.776 255.616,308.688 182.752,194.168 295.376,194.168 "/>
<path style="fill:#A87160;" d="M322.008,121.944c0-70.032-31.84-98.368-79.84-98.648v-0.032v0.016v-0.016v0.032
	c-48,0.28-79.84,28.616-79.84,98.648s31.84,133.352,79.84,134.856v0.144c0,0,0-0.064,0-0.072c0,0.008,0,0.072,0,0.072V256.8
	C290.168,255.296,322.008,191.976,322.008,121.944z"/>
<path style="fill:#895C50;" d="M242.168,258.168v-1.224c0,0,0-0.064,0-0.072c0,0.008,0,0.072,0,0.072V256.8
	c48-1.504,79.84-64.832,79.84-134.856s-31.84-98.368-79.84-98.648v-0.032v0.016v-0.016v2.904"/>
<g>
	<path style="fill:#00233F;" d="M197.976,204.76c-0.2-0.224-0.312-0.376-0.312-0.376S197.736,204.608,197.976,204.76z"/>
	<path style="fill:#00233F;" d="M288.192,204.76c0.2-0.224,0.312-0.376,0.312-0.376S288.424,204.608,288.192,204.76z"/>
</g>
<path style="fill:#5E3A1C;" d="M178.392,92.312c0,0,6.232,18.704-2.512,29.936c0,0-2.496,1.248-3.096,6.856
	c-0.64,5.616,5.968,21.984,12.512,53.792c2.168,10.544,8.032,39.152,25.512,29.168l4.152,1.872c0,0-4.8,24.328,27.2,23.704v21.832
	c0,0-32.2,3.112-54.656-28.072c-22.472-31.176-25.816-74.456-25.184-99.408c0.64-24.952-5.984-38.464-0.984-47.192
	C166.328,76.072,178.392,92.312,178.392,92.312z"/>
<path style="fill:#3A210D;" d="M305.944,92.312c0,0-6.232,18.704,2.496,29.936c0,0,2.496,1.248,3.112,6.856
	c0.64,5.616-5.968,21.984-12.512,53.792c-2.16,10.536-8.048,39.152-25.504,29.168l-4.152,1.872c0,0,4.784,24.328-27.216,23.704
	v21.832c0,0,32.216,3.112,54.656-28.072c22.456-31.176,25.952-75.688,25.344-100.64c-0.64-24.952,5.816-37.224,0.832-45.96
	C318.008,76.072,305.944,92.312,305.944,92.312z"/>
<path style="fill:#1A9AD3;" d="M322.168,98.168V40.616c0-23.008-25.448-38.448-48.432-38.448h-63.144
	c-22.992,0-48.424,15.44-48.424,38.448v57.552H322.168z"/>
<path style="fill:#1088C4;" d="M162.328,41.944l79.616,56.224h80.224V40.616c0-23.008-25.448-38.448-48.432-38.448h-63.568"/>
<g>
	<circle style="fill:#D1C23D;" cx="147.528" cy="282.648" r="5.672"/>
	<circle style="fill:#D1C23D;" cx="148.512" cy="268.328" r="4.008"/>
	<circle style="fill:#D1C23D;" cx="149.504" cy="297.312" r="5.672"/>
	<circle style="fill:#D1C23D;" cx="155.128" cy="314.968" r="5.664"/>
	<circle style="fill:#D1C23D;" cx="164.504" cy="328.976" r="5.664"/>
	<circle style="fill:#D1C23D;" cx="176.504" cy="342.312" r="5.664"/>
	<circle style="fill:#D1C23D;" cx="189.168" cy="355.608" r="5.664"/>
	<circle style="fill:#D1C23D;" cx="203.208" cy="364.968" r="5.664"/>
</g>
<g>
	<circle style="fill:#D1A61E;" cx="336.824" cy="282.648" r="5.664"/>
	<circle style="fill:#D1A61E;" cx="335.824" cy="268.328" r="4"/>
	<circle style="fill:#D1A61E;" cx="334.824" cy="297.312" r="5.664"/>
	<circle style="fill:#D1A61E;" cx="329.168" cy="314.968" r="5.664"/>
	<circle style="fill:#D1A61E;" cx="319.832" cy="328.976" r="5.664"/>
	<circle style="fill:#D1A61E;" cx="307.848" cy="342.312" r="5.664"/>
	<circle style="fill:#D1A61E;" cx="295.168" cy="355.608" r="5.664"/>
	<circle style="fill:#D1A61E;" cx="281.16" cy="364.968" r="5.664"/>
</g>
<path style="fill:#D1C23D;" d="M234.168,466.168v-16.344c-8-0.344-14.328-2.424-18.72-4.96l3.944-13.52
	c4.856,2.656,11.904,5.08,19.424,5.08c6.592,0,11.208-2.528,11.208-7.16c0-4.392-3.624-7.168-12.184-10.064
	c-12.36-4.16-22-9.936-22-21.144c0-10.168,10.328-18.144,18.328-20.56v-15.328h16v14.512c8,0.344,11.84,1.968,15.656,3.816
	l-3.904,13.064c-3.016-1.272-8.6-3.936-16.928-3.936c-7.504,0-10.08,3.232-10.08,6.472c0,3.816,3.976,6.24,13.808,9.936
	c13.752,4.856,20.656,11.208,20.656,21.616c0,10.28-11.2,19.064-19.2,21.376v17.144H234.168z"/>
<g>
	<path style="fill:#D1A61E;" d="M261.92,393.56l3.904-13.064c-0.544-0.264-1.448-0.696-2.04-0.944c0,0.072,0-0.08,0,0
		c0,4.704-1.688,9.336-2.968,13.536C260.992,393.168,261.76,393.496,261.92,393.56z"/>
	<path style="fill:#D1A61E;" d="M253.208,407.84c-4.264,5.2-9.704,9.04-15.832,11.168c0.168,0.064,0.336,0.128,0.512,0.184
		c8.56,2.888,12.248,5.672,12.248,10.064c0,4.624-4.496,7.16-11.096,7.16c-7.512,0-14.8-2.424-19.656-5.08l-3.944,13.52
		c4.392,2.536,10.72,4.616,18.72,4.96v16.352h16v-17.152c8-2.312,19.168-11.096,19.168-21.376
		C269.336,418.48,263.632,412.464,253.208,407.84z"/>
</g>
<g>
</g>
<g>
</g>
<g>
</g>
<g>
</g>
<g>
</g>
<g>
</g>
<g>
</g>
<g>
</g>
<g>
</g>
<g>
</g>
<g>
</g>
<g>
</g>
<g>
</g>
<g>
</g>
<g>
</g>
</svg>
