<?xml version="1.0" encoding="iso-8859-1"?>
<!-- Generator: Adobe Illustrator 19.0.0, SVG Export Plug-In . SVG Version: 6.00 Build 0)  -->
<svg version="1.1" id="Layer_1" xmlns="http://www.w3.org/2000/svg" xmlns:xlink="http://www.w3.org/1999/xlink" x="0px" y="0px"
	 viewBox="0 0 499.656 499.656" style="enable-background:new 0 0 499.656 499.656;" xml:space="preserve">
<g>
	<path style="fill:#042635;" d="M354.492,167.304c0,35.344-51.264,64-104.672,64c-53.376,0-104.656-28.656-104.656-64
		s51.28-64,104.656-64C303.228,103.304,354.492,131.96,354.492,167.304z"/>
	<ellipse style="fill:#042635;" cx="223.164" cy="255.632" rx="70" ry="46.344"/>
</g>
<g>
	<rect x="57.828" y="411.656" style="fill:#F9BDA0;" width="384" height="88"/>
	<rect x="201.828" y="219.656" style="fill:#F9BDA0;" width="96" height="200"/>
	<rect x="201.828" y="307.656" style="fill:#F9BDA0;" width="96" height="128"/>
</g>
<polygon style="fill:#EAA78C;" points="297.828,313.984 297.828,219.656 202.804,219.656 251.036,354.656 "/>
<path style="fill:#FCCCB9;" d="M324.788,135.96c0,72.24-36.624,137.616-74.944,137.616s-74.96-65.376-74.96-137.616
	s36.64-84.288,74.96-84.288S324.788,63.712,324.788,135.96z"/>
<path style="fill:#F9BDA0;" d="M249.844,51.664c38.32,0,74.944,12.048,74.944,84.288s-36.624,137.624-74.944,137.624"/>
<polygon style="fill:#EAA78C;" points="205.556,320.152 49.364,368.232 53.052,499.656 246.348,455.192 "/>
<polyline style="fill:#FCCCB9;" points="49.364,368.232 53.052,499.656 246.348,455.192 "/>
<g>
	<polygon style="fill:#EAA78C;" points="294.116,320.152 450.292,368.232 446.604,499.656 253.292,455.192 	"/>
	<polyline style="fill:#EAA78C;" points="450.292,368.232 446.604,499.656 253.292,455.192 	"/>
</g>
<g>
	<path style="fill:#042635;" d="M260.26,46.912c0,0-69.656,53.328,89.92,117.568c0,0,3.064-70.688-23-101.504
		c-26.08-30.8-66.44-27-66.44-27L260.26,46.912z"/>
	<path style="fill:#042635;" d="M285.212,37.8c0,0,89.064,86.832-135.672,132.048c0,0-11.784-75.976,18.984-108.528
		c30.76-32.552,85.92-27.144,85.92-27.144L285.212,37.8z"/>
</g>
<rect x="57.828" y="411.656" style="fill:#125389;" width="384" height="88"/>
<rect x="57.828" y="419.656" style="fill:#042635;" width="384" height="80"/>
<g>
	<polygon style="fill:#A02BBC;" points="243.844,499.656 195.636,320.16 48.82,365.488 53.052,499.656 	"/>
	<polygon style="fill:#A02BBC;" points="243.844,499.656 195.636,320.16 48.82,365.488 69.052,499.656 	"/>
</g>
<polygon style="fill:#8720A0;" points="243.844,499.656 195.636,320.16 48.82,365.488 101.052,499.656 "/>
<polygon style="fill:#6E0787;" points="255.812,499.656 304.02,320.16 450.836,365.488 446.604,499.656 "/>
<polygon style="fill:#58036D;" points="255.812,499.656 400.948,468.144 450.836,365.488 446.604,499.656 "/>
<g>
	<circle style="fill:#042635;" cx="249.828" cy="448.616" r="5.336"/>
	<circle style="fill:#042635;" cx="249.828" cy="476.216" r="5.336"/>
</g>
<g>
	<path style="fill:#A02BBC;" d="M188.604,455.912c0,1.656-1.344,3-3,3H90.26c-1.656,0-3-1.344-3-3l0,0c0-1.656,1.344-3,3-3h95.344
		C187.26,452.912,188.604,454.256,188.604,455.912L188.604,455.912z"/>
	<path style="fill:#A02BBC;" d="M414.604,455.912c0,1.656-1.344,3-3,3H316.26c-1.656,0-3-1.344-3-3l0,0c0-1.656,1.344-3,3-3h95.344
		C413.26,452.912,414.604,454.256,414.604,455.912L414.604,455.912z"/>
	<path style="fill:#A02BBC;" d="M188.604,471.912c0,1.656-1.344,3-3,3H90.26c-1.656,0-3-1.344-3-3l0,0c0-1.656,1.344-3,3-3h95.344
		C187.26,468.912,188.604,470.256,188.604,471.912L188.604,471.912z"/>
	<path style="fill:#A02BBC;" d="M414.604,471.912c0,1.656-1.344,3-3,3H316.26c-1.656,0-3-1.344-3-3l0,0c0-1.656,1.344-3,3-3h95.344
		C413.26,468.912,414.604,470.256,414.604,471.912L414.604,471.912z"/>
</g>
<path style="fill:#0E69A8;" d="M316.996,307.304c0,26.504-30.064,48-67.168,48c-37.096,0-67.168-21.496-67.168-48s30.072-8,67.168-8
	C286.932,299.304,316.996,280.792,316.996,307.304z"/>
<path style="fill:#125389;" d="M316.996,307.304c0,26.504-30.064,48-67.168,48c-37.096,0-67.168-21.496-67.168-48
	s30.072,21.328,67.168,21.328C286.932,328.632,316.996,280.792,316.996,307.304z"/>
<g>
	<polygon style="fill:#E5B342;" points="349.1,423.28 338.476,412.648 310.412,412.648 321.044,419.432 332.852,419.432 
		336.692,423.28 	"/>
	<polygon style="fill:#E5B342;" points="358.132,434.504 349.564,425.936 326.948,425.936 335.508,431.408 345.036,431.408 
		348.132,434.504 	"/>
	<polygon style="fill:#E5B342;" points="338.46,435.384 343.196,440.112 355.66,440.112 350.948,437.096 345.684,437.096 
		343.988,435.384 	"/>
	<polygon style="fill:#E5B342;" points="364.996,423.28 375.62,412.648 403.676,412.648 393.044,419.432 381.244,419.432 
		377.388,423.28 	"/>
	<polygon style="fill:#E5B342;" points="355.964,434.504 364.524,425.936 387.148,425.936 378.588,431.408 369.052,431.408 
		365.964,434.504 	"/>
	<polygon style="fill:#E5B342;" points="375.636,435.384 370.9,440.112 358.428,440.112 363.148,437.096 368.404,437.096 
		370.108,435.384 	"/>
</g>
<polygon style="fill:#0E69A8;" points="302.948,300.632 323.62,260.632 357.62,258.632 348.948,284.632 313.62,298.632 "/>
<polygon style="fill:#125389;" points="294.948,322.632 313.62,298.632 355.62,301.968 378.948,323.968 349.62,329.968 
	312.948,308.632 "/>
<polygon style="fill:#8720A0;" points="255.348,65 267.708,24.024 306.86,0 356.788,58.704 319.412,104.432 "/>
<polygon style="fill:#6E0787;" points="255.348,65 267.708,24.024 323.604,67.296 356.788,58.704 319.412,104.432 "/>
<polygon style="fill:#58036D;" points="255.348,65.184 292.604,67.656 323.604,67.656 356.788,58.888 319.412,104.616 "/>
<g>
	<path style="fill:#FFC114;" d="M299.74,51.88c-1.008,1.016-2.488,1.168-3.296,0.36l0,0c-0.832-0.824-0.656-2.296,0.36-3.312
		l17.36-17.368c1.016-1.016,2.496-1.176,3.312-0.36l0,0c0.816,0.816,0.656,2.288-0.36,3.304L299.74,51.88z"/>
	<path style="fill:#FFC114;" d="M295.284,54.992c-0.544,0.544-1.352,0.624-1.792,0.184l0,0c-0.44-0.44-0.36-1.24,0.184-1.792
		l9.392-9.392c0.544-0.544,1.344-0.624,1.792-0.184l0,0c0.44,0.44,0.352,1.232-0.192,1.784L295.284,54.992z"/>
	<polygon style="fill:#FFC114;" points="301.364,45.056 290.78,34.464 292.132,33.112 306.948,39.48 	"/>
	<polygon style="fill:#FFC114;" points="303.62,47.296 314.212,57.896 315.564,56.536 309.188,41.712 	"/>
	<polygon style="fill:#FFC114;" points="293.38,53.96 287.62,50.752 288.356,50.016 296.404,50.928 	"/>
	<polygon style="fill:#FFC114;" points="294.716,55.296 297.924,61.048 298.652,60.32 297.74,52.264 	"/>
</g>
<g>
</g>
<g>
</g>
<g>
</g>
<g>
</g>
<g>
</g>
<g>
</g>
<g>
</g>
<g>
</g>
<g>
</g>
<g>
</g>
<g>
</g>
<g>
</g>
<g>
</g>
<g>
</g>
<g>
</g>
</svg>
