<?xml version="1.0" encoding="iso-8859-1"?>
<!-- Generator: Adobe Illustrator 19.0.0, SVG Export Plug-In . SVG Version: 6.00 Build 0)  -->
<svg version="1.1" id="Layer_1" xmlns="http://www.w3.org/2000/svg" xmlns:xlink="http://www.w3.org/1999/xlink" x="0px" y="0px"
	 viewBox="0 0 496 496" style="enable-background:new 0 0 496 496;" xml:space="preserve">
<rect x="56" y="400" style="fill:#F9BDA0;" width="384" height="96"/>
<path style="fill:#AD7004;" d="M153.072,147.832l75.056-9.688l4.544,65.568l-28.04,20.52l4.232,22.712c0,0-33.336,12.608-44-0.416
	c-10.664-13.032-15.328-92.04-16.664-93.72C146.864,151.128,153.072,147.832,153.072,147.832z"/>
<path style="fill:#8C5703;" d="M148.2,152.816c-1.336-1.688,4.864-4.984,4.864-4.984l75.056-9.688l4.544,65.568l-28.04,20.52
	l4.232,22.712"/>
<path style="fill:#AD7004;" d="M342.944,147.832l-75.064-9.688l-4.536,65.568l28.04,20.52l-4.232,22.712c0,0,33.336,12.608,44-0.416
	c10.664-13.032,15.328-92.04,16.664-93.72C349.144,151.128,342.944,147.832,342.944,147.832z"/>
<path style="fill:#8C5703;" d="M347.816,152.816c1.328-1.688-4.864-4.984-4.864-4.984l-75.064-9.688l-4.536,65.568l28.04,20.52
	l-4.232,22.712"/>
<rect x="200" y="216" style="fill:#F9BDA0;" width="96" height="200"/>
<polygon style="fill:#EAA78C;" points="296,309.4 296,216 200.976,216 249.208,350.536 "/>
<path style="fill:#FCCCB9;" d="M322.96,131.376c0,72.24-36.624,137.616-74.944,137.616c-38.312,0-74.968-65.376-74.968-137.616
	s36.656-84.288,74.968-84.288C286.336,47.088,322.96,59.136,322.96,131.376z"/>
<g>
	<path style="fill:#F9BDA0;" d="M248.016,47.088c38.32,0,74.944,12.048,74.944,84.288s-36.624,137.616-74.944,137.616"/>
	<polygon style="fill:#F9BDA0;" points="203.72,315.568 47.544,363.648 51.224,496 244.512,450.608 	"/>
</g>
<polyline style="fill:#FCCCB9;" points="47.544,363.648 51.224,496 244.512,450.608 "/>
<polygon style="fill:#F9BDA0;" points="292.296,315.568 448.456,363.648 444.776,496 251.456,450.608 "/>
<polyline style="fill:#EAA78C;" points="448.456,363.648 444.776,496 251.456,450.608 "/>
<path style="fill:#C68605;" d="M231.048,33.16c0,0-114.016,119.504,117.312,126.744c0,0,3.056-70.688-23.008-101.504
	c-26.08-30.8-66.448-27-66.448-27L231.048,33.16z"/>
<path style="fill:#E5A81F;" d="M264.032,33.216c0,0,5,73.44-116.312,132.048c0,0-11.792-75.976,18.984-108.528
	c30.752-32.552,85.904-27.144,85.904-27.144L264.032,33.216z"/>
<rect x="56" y="400" style="fill:#039388;" width="384" height="96"/>
<rect x="56" y="416" style="fill:#046970;" width="384" height="80"/>
<polygon style="fill:#19DDAA;" points="242.016,496 193.808,316.04 46.992,361.6 51.224,496 "/>
<polygon style="fill:#09C699;" points="242.016,496 193.808,316.04 46.992,361.6 67.224,496 "/>
<polygon style="fill:#039388;" points="242.016,496 193.808,316.04 46.992,361.6 99.224,496 "/>
<polygon style="fill:#1DB591;" points="242.016,496 123.704,471.632 46.992,361.6 99.224,496 "/>
<polygon style="fill:#039388;" points="253.984,496 302.192,316.04 449.008,361.6 444.776,496 "/>
<polygon style="fill:#046970;" points="253.984,496 393.032,459.632 449.008,361.6 444.776,496 "/>
<path style="fill:#19DDAA;" d="M310.376,205.864c0,31.712-27.944,70.464-62.392,70.464c-34.432,0-62.352-38.752-62.352-70.464
	c0-31.72,27.92-11.144,62.352-11.144C282.432,194.728,310.376,174.152,310.376,205.864z"/>
<path style="fill:#09C699;" d="M185.632,205.864c0-31.72,27.92-11.144,62.352-11.144c34.448,0,62.392-20.576,62.392,11.144
	c0,31.712-27.944,70.464-62.392,70.464"/>
<path style="fill:#039388;" d="M247.984,194.728c34.448,0,62.392-20.576,62.392,11.144c0,31.712-27.944,70.464-62.392,70.464"/>
<path style="fill:#19DDAA;" d="M247.984,82.76c34.192,0,64.832-0.264,86.104-2.832C332.512,39.224,315.24,8,274.168,0H221.84
	c-41.088,8-58.344,39.224-59.92,79.928C183.176,82.496,213.816,82.76,247.984,82.76z"/>
<path style="fill:#09C699;" d="M163,79.928c21.264,2.568,51.352,3.512,85.528,3.512c34.192,0,64.568-0.6,85.832-3.168
	C332.784,39.56,315.24,8,274.168,0H224"/>
<path style="fill:#039388;" d="M249.064,84.12c34.192,0,64.296-0.944,85.56-3.512C333.056,39.904,315.24,8,274.168,0H224"/>
<circle style="fill:#A4FFE5;" cx="192.88" cy="195.496" r="3.968"/>
<path style="fill:#0C537A;" d="M193.896,195.624c-0.176,0.6-0.824,0.936-1.424,0.76l-14.432-4.36
	c-0.608-0.184-0.936-0.816-0.768-1.424l0,0c0.184-0.6,0.816-0.944,1.424-0.76l14.432,4.36
	C193.736,194.392,194.08,195.024,193.896,195.624L193.896,195.624z"/>
<circle style="fill:#A4FFE5;" cx="194.512" cy="209.52" r="3.592"/>
<path style="fill:#0C537A;" d="M195.432,209.632c-0.168,0.544-0.752,0.856-1.288,0.696l-13.072-3.952
	c-0.552-0.168-0.848-0.736-0.696-1.28l0,0c0.168-0.544,0.744-0.856,1.288-0.696l13.08,3.952
	C195.288,208.512,195.592,209.096,195.432,209.632L195.432,209.632z"/>
<circle style="fill:#A4FFE5;" cx="303.112" cy="195.496" r="3.96"/>
<path style="fill:#0C537A;" d="M302.096,195.624c0.192,0.6,0.832,0.936,1.432,0.76l14.432-4.36c0.608-0.184,0.936-0.816,0.768-1.424
	l0,0c-0.184-0.6-0.816-0.944-1.424-0.76l-14.432,4.36C302.264,194.392,301.92,195.024,302.096,195.624L302.096,195.624z"/>
<circle style="fill:#A4FFE5;" cx="301.48" cy="209.52" r="3.592"/>
<path style="fill:#0C537A;" d="M300.568,209.632c0.168,0.544,0.744,0.856,1.288,0.696l13.064-3.952
	c0.552-0.168,0.848-0.736,0.696-1.28l0,0c-0.168-0.544-0.744-0.856-1.28-0.696l-13.08,3.952
	C300.712,208.512,300.408,209.096,300.568,209.632L300.568,209.632z"/>
<g>
	<rect x="240" y="16" style="fill:#19DDAA;" width="16" height="48"/>
	<rect x="224" y="32" style="fill:#19DDAA;" width="48" height="16"/>
	<rect x="336" y="416" style="fill:#19DDAA;" width="16" height="48"/>
	<rect x="320" y="432" style="fill:#19DDAA;" width="48" height="16"/>
</g>
<g>
</g>
<g>
</g>
<g>
</g>
<g>
</g>
<g>
</g>
<g>
</g>
<g>
</g>
<g>
</g>
<g>
</g>
<g>
</g>
<g>
</g>
<g>
</g>
<g>
</g>
<g>
</g>
<g>
</g>
</svg>
