<?xml version="1.0" encoding="iso-8859-1"?>
<!-- Generator: Adobe Illustrator 19.0.0, SVG Export Plug-In . SVG Version: 6.00 Build 0)  -->
<svg version="1.1" id="Layer_1" xmlns="http://www.w3.org/2000/svg" xmlns:xlink="http://www.w3.org/1999/xlink" x="0px" y="0px"
	 viewBox="0 0 484.336 484.336" style="enable-background:new 0 0 484.336 484.336;" xml:space="preserve">
<path style="fill:#3A666D;" d="M338.168,144.06c0,5.528-2.48,10-8,10l0,0c-5.528,0-8-4.472-8-10v-14c0-5.512,2.472-10,8-10l0,0
	c5.52,0,8,4.488,8,10V144.06z"/>
<ellipse style="fill:#2B525B;" cx="242.168" cy="83.404" rx="92.336" ry="82.672"/>
<polygon style="fill:#F9BDA0;" points="324.08,443.604 162.088,443.604 154.088,275.604 332.08,275.604 "/>
<path style="fill:#905DC1;" d="M461.272,315.132L339.72,273.82l2.568,1.472l-15.896-6.496
	c-6.344,20.736-41.584,42.832-84.216,42.832c-42.648,0-77.872-21.968-84.208-42.704l-15.92,6.696l2.576-1.096l-121.56,40.6
	L0,483.604h30.736h156.736H235h14.328h49.736h154.528h30.736L461.272,315.132z"/>
<path style="fill:#744196;" d="M90.168,483.604h97.304H235h14.328h49.736h154.528h30.736l-23.064-168.472L339.712,273.82
	l2.568,1.472l-15.896-6.496c-6.896,21.32-41.584,42.832-84.216,42.832c-42.648,0-76.096-20.896-84.208-42.704l-15.92,6.696
	l2.576-1.096l-121.552,40.6"/>
<polyline style="fill:#5B2D7F;" points="418.168,483.604 453.6,483.604 484.336,483.604 462.384,313.7 "/>
<polygon style="fill:#F9BDA0;" points="303.408,294.052 184.44,276.388 190.792,195.604 295.368,195.604 "/>
<polygon style="fill:#E28F71;" points="303.424,294.052 255.616,310.06 182.752,195.604 295.376,195.604 "/>
<path style="fill:#FCCCB9;" d="M322.008,123.044c0-70.032-31.84-98.36-79.84-98.64v-0.032v0.016v-0.016v0.032
	c-48,0.28-79.84,28.608-79.84,98.64s31.84,133.36,79.84,134.856v0.144v-0.064v0.064V257.9
	C290.168,256.404,322.008,193.076,322.008,123.044z"/>
<path style="fill:#F9BDA0;" d="M242.168,259.604v-1.56v-0.064v0.064V257.9c48-1.504,79.84-64.832,79.84-134.856
	s-31.84-98.36-79.84-98.64v-0.032v0.016v-0.016v3.232"/>
<path style="fill:#77502A;" d="M162.08,101.804c-4.328-1.904-3.472-30.736,0.344-39.424c3.832-8.704,10.456-6.2,14.768-4.296
	c4.344,1.904,23.936,20.784,16.936,27.184"/>
<g>
	<path style="fill:#00233F;" d="M197.976,205.868c-0.2-0.232-0.312-0.376-0.312-0.376S197.736,205.716,197.976,205.868z"/>
	<path style="fill:#00233F;" d="M288.192,205.868c0.2-0.232,0.312-0.376,0.312-0.376S288.424,205.716,288.192,205.868z"/>
</g>
<path style="fill:#B77F0F;" d="M257.944,64.076c0,0,8,41,63,48c0,0,34-77-50-89S257.944,64.076,257.944,64.076z"/>
<path style="fill:#D39D24;" d="M280.944,55.076c0,0-35,73-112,56c0,0-31-39,17-78s91.552-15.344,95.552,4.656
	S280.944,55.076,280.944,55.076z"/>
<path style="fill:#3A666D;" d="M162.168,168.404c0,9.408-6.624,9-16,9l0,0c-9.392,0-16-7.608-16-17v-45.328c0-9.392,6.608-17,16-17
	l0,0c9.392,0,16,7.608,16,17V168.404z"/>
<path style="fill:#2B525B;" d="M145.832,98.076L145.832,98.076c9.392,0,16.336,7.608,16.336,17v53.328c0,9.408-7.288,9-16.664,9l0,0
	"/>
<circle style="fill:#83B5BA;" cx="146.808" cy="134.076" r="2.664"/>
<path style="fill:#B77F0F;" d="M319.552,130.812c0.312,2.704-1.096,8.792-3.328,16.792h11.44c0.144-8,0.128-10.664,0.016-14.912
	c-0.64-24.952,8.096-37.76,3.112-46.496c-4.984-8.72-16.84-32.632-16.84-32.632s-6.232,58.928,2.496,70.168
	C316.44,123.732,318.944,125.204,319.552,130.812z"/>
<path style="fill:#D39D24;" d="M156.664,147.604h11.456c-2.24-8-3.64-14.088-3.328-16.792c0.592-5.608,3.096-7.168,3.096-7.168
	c8.752-11.232,2.512-70.088,2.512-70.088s-11.856,23.696-16.84,32.416c-5,8.736,3.752,21.8,3.112,46.752
	C156.552,136.98,156.536,139.604,156.664,147.604z"/>
<g>
	<path style="fill:#3A666D;" d="M162.168,157.604c0-1.104-0.896-2-2-2h-4c-1.104,0-2,0.896-2,2v44c0,1.104,0.896,2,2,2h4
		c1.104,0,2-0.896,2-2V157.604z"/>
	<path style="fill:#3A666D;" d="M187.208,237.26c0.784,0.784,2.048,0.784,2.832,0l0,0c0.784-0.784,0.784-2.048,0-2.832
		l-31.584-31.592c-0.776-0.768-2.056-0.768-2.832,0.016l0,0c-0.776,0.768-0.776,2.048,0,2.832L187.208,237.26z"/>
</g>
<circle style="fill:#70DD43;" cx="158.616" cy="204.724" r="5.872"/>
<path style="fill:#5BBC2E;" d="M158.616,198.804c3.248,0,5.872,2.64,5.872,5.872c0,3.248-2.624,5.872-5.872,5.872"/>
<path style="fill:#2B525B;" d="M224.824,239.596c0,5.344-4.336,12.008-9.664,12.008h-22c-5.336,0-9.664-6.664-9.664-12.008l0,0
	c0-5.328,4.328-11.992,9.664-11.992h22C220.488,227.604,224.824,234.268,224.824,239.596L224.824,239.596z"/>
<path style="fill:#3A666D;" d="M224.824,239.996L224.824,239.996c0,5.344-4.336,11.608-9.664,11.608h-22
	c-5.336,0-9.664-5.296-9.664-10.64l0,0"/>
<g>
	<rect x="234.168" y="355.604" style="fill:#239B02;" width="16" height="32"/>
	<path style="fill:#239B02;" d="M258.144,331.868c12.152-5.84,30.496-7.216,38.304-1.56l0,0c0,0,0.168,0.08,0.168,0.112l0,0
		l-0.168-0.112c0.168,10.544-13.088,22-25.232,27.856c-12.144,5.84-21.272,3.608-29.064-2.032l0.016,0.032c0,0,0-0.064,0-0.096
		c0,0-0.368-0.032-0.392-0.064l-0.08-0.048C242.16,346.34,246,337.732,258.144,331.868z"/>
</g>
<path style="fill:#34B515;" d="M241.944,356.132l0.224,0.032c0,0,0-0.064,0-0.096c0,0-0.368-0.032-0.392-0.064l-0.08-0.048
	c0.472-9.624,4.392-18.232,16.528-24.096c12.152-5.84,30.456-7.216,38.264-1.56l-0.624,0.16c0,0.032,0.624-0.184,0.624-0.16
	l0.128,0.112l-0.752,0.048"/>
<path style="fill:#239B02;" d="M226.2,331.868c-12.152-5.84-30.496-7.216-38.304-1.56l0,0c0,0.032,0-0.032,0,0
	c0,0.016-0.152,0.08-0.152,0.08l0.152-0.08c0.44,9.624,13.088,22,25.232,27.856c12.144,5.84,21.56,3.608,29.384-2.032l0.192,0.032
	c0,0,0.032-0.064,0.032-0.096c0,0,0.088-0.032,0.112-0.064l-0.072-0.048C242.328,346.34,238.336,337.732,226.2,331.868z"/>
<path style="fill:#34B515;" d="M242.712,356.132l0.096,0.032c0,0-0.016-0.064-0.016-0.096c0,0,0.064-0.032,0.088-0.064l-0.088-0.048
	c-0.456-9.624-4.456-18.232-16.592-24.096c-12.152-5.84-30.496-7.216-38.304-1.56l0,0c0,0.032-0.152,0.048-0.152,0.08
	c0,0.016,0,0,0,0l0.896,0.08"/>
<g>
	<path style="fill:#5B2D7F;" d="M242.056,406.1c3.048,0,5.504-2.472,5.504-5.512c0-6.456,6.84-11.704,13.304-11.704
		s13.304,5.248,13.304,11.704v27.016h8v-27.016c0-12.544-10.264-22.736-22.816-22.736s-22.776,10.184-22.776,22.736
		C236.576,403.636,239.008,406.1,242.056,406.1z"/>
	<path style="fill:#5B2D7F;" d="M242.288,406.1c-3.048,0-5.512-2.472-5.512-5.512c0-6.456-6.84-11.704-13.304-11.704
		s-13.304,5.248-13.304,11.704v27.016h-8v-27.016c0-12.544,10.264-22.736,22.816-22.736c12.536,0,22.776,10.184,22.776,22.736
		C247.76,403.636,245.328,406.1,242.288,406.1z"/>
</g>
<circle style="fill:#FF5512;" cx="210.488" cy="448.804" r="27"/>
<ellipse transform="matrix(0.646 -0.7633 0.7633 0.646 -262.2979 304.5043)" style="fill:#FFCDBD;" cx="197.166" cy="435.06" rx="10.464" ry="3.664"/>
<path style="fill:#CC3006;" d="M229.584,429.732c10.536,10.528,10.536,27.624,0,38.168c-10.544,10.544-27.624,10.544-38.176,0"/>
<circle style="fill:#FF5512;" cx="273.848" cy="448.804" r="26.992"/>
<ellipse transform="matrix(0.646 -0.7633 0.7633 0.646 -239.8866 352.8473)" style="fill:#FFCDBD;" cx="260.495" cy="435.068" rx="10.456" ry="3.664"/>
<path style="fill:#CC3006;" d="M292.944,429.732c10.528,10.528,10.528,27.624,0,38.168c-10.552,10.544-27.64,10.544-38.184,0"/>
<g>
</g>
<g>
</g>
<g>
</g>
<g>
</g>
<g>
</g>
<g>
</g>
<g>
</g>
<g>
</g>
<g>
</g>
<g>
</g>
<g>
</g>
<g>
</g>
<g>
</g>
<g>
</g>
<g>
</g>
</svg>
