<?xml version="1.0" encoding="iso-8859-1"?>
<!-- Generator: Adobe Illustrator 19.0.0, SVG Export Plug-In . SVG Version: 6.00 Build 0)  -->
<svg version="1.1" id="Layer_1" xmlns="http://www.w3.org/2000/svg" xmlns:xlink="http://www.w3.org/1999/xlink" x="0px" y="0px"
	 viewBox="0 0 481.456 481.456" style="enable-background:new 0 0 481.456 481.456;" xml:space="preserve">
<polygon style="fill:#F2F2F2;" points="441.36,346.64 288.416,299.408 288.416,288.728 192.416,288.728 192.416,299.416 
	39.464,346.64 48.416,480.728 48.416,480.728 48.416,480.728 432.416,480.728 432.416,480.688 434.384,481.456 "/>
<polygon style="fill:#EAEAEA;" points="441.36,346.64 288.416,299.408 288.416,288.728 192.416,288.728 192.416,299.416 
	39.464,346.64 111.744,481.456 113,480.808 49.12,480.728 432.416,480.728 432.416,480.688 434.384,481.456 "/>
<polyline style="fill:#D7DDDD;" points="250.968,480.808 49.12,480.728 432.416,480.728 432.416,480.688 434.192,480.728 
	441.992,346.64 288.416,299.408 288.416,288.728 192.416,288.728 192.416,299.416 39.464,346.464 "/>
<g>
	<polygon style="fill:#042635;" points="337.704,272.728 151.144,272.728 191.896,208.728 288.944,208.728 	"/>
	<path style="fill:#042635;" d="M345.088,145.712c0,35.344-51.272,64-104.672,64c-53.376,0-104.656-28.656-104.656-64
		s51.28-64,104.656-64C293.816,81.712,345.088,110.368,345.088,145.712z"/>
</g>
<rect x="192.416" y="192.728" style="fill:#F9BDA0;" width="96" height="120"/>
<polygon style="fill:#EAA78C;" points="288.416,292.392 288.416,192.728 193.4,192.728 241.624,410.4 "/>
<polygon style="fill:#D7DDDD;" points="289.92,307.656 240.424,467.984 190.92,307.656 240.424,314.16 "/>
<path style="fill:#FCCCB9;" d="M315.384,114.368c0,72.24-36.632,137.616-74.944,137.616c-38.32,0-74.96-65.376-74.96-137.616
	s36.64-84.288,74.96-84.288C278.752,30.08,315.384,42.128,315.384,114.368z"/>
<path style="fill:#F9BDA0;" d="M240.44,30.08c38.312,0,74.944,12.048,74.944,84.288s-36.632,137.616-74.944,137.616"/>
<g>
	<path style="fill:#042635;" d="M250.864,25.32c0,0-69.656,53.328,89.912,117.568c0,0,3.064-70.688-23-101.504
		c-26.088-30.8-66.44-27-66.44-27L250.864,25.32z"/>
	<path style="fill:#042635;" d="M275.808,16.216c0,0,64.168,71.112-135.672,132.048c0,0-11.792-75.976,18.976-108.528
		s85.928-27.144,85.928-27.144L275.808,16.216z"/>
</g>
<g>
	<rect x="152.416" y="72.728" style="fill:#042635;" width="128" height="64"/>
	<polygon style="fill:#042635;" points="328.416,136.728 289.472,136.728 269.968,72.728 328.416,72.728 	"/>
</g>
<path style="fill:#1A9AD3;" d="M240.416,35.672c24.912,0,47.6,4.432,64.96,11.68C295.056,19.616,269.888,0,240.424,0
	s-54.632,19.608-64.96,47.352C192.832,40.104,215.512,35.672,240.416,35.672z"/>
<g>
	<path style="fill:#11558C;" d="M240.416,35.672c24.912,0,47.6,4.432,64.96,11.68C295.056,19.616,269.888,16,240.424,16
		s-54.632,3.608-64.96,31.352C192.832,40.104,215.512,35.672,240.416,35.672z"/>
	<path style="fill:#11558C;" d="M248.416,312.728v19.144c0,4.144-3.856,7.504-8,7.504l0,0c-4.144,0-8-3.36-8-7.504v-19.144"/>
</g>
<polygon style="fill:#1982BC;" points="232.416,334.616 232.416,313.944 176.416,290.2 176.416,354.544 "/>
<polygon style="fill:#11558C;" points="233.592,334.24 232.416,313.944 195.752,334.544 176.416,354.544 "/>
<polygon style="fill:#1982BC;" points="248.416,334.616 248.416,313.944 304.416,290.2 304.416,354.544 "/>
<polygon style="fill:#11558C;" points="246.824,334.24 248.416,313.944 285.088,334.544 304.416,354.544 "/>
<g>
	<path style="fill:#1982BC;" d="M232.416,328.728v-15.856c0-4.144,3.856-7.504,8-7.504l0,0c4.144,0,8,3.36,8,7.504v15.856"/>
	<path style="fill:#1982BC;" d="M134.88,442.208c0.472,2.168-0.92,4.28-3.08,4.736l0,0c-2.168,0.456-4.28-0.92-4.744-3.096
		l-25.08-119.392c-0.464-2.168,0.912-4.28,3.088-4.736l0,0c2.168-0.456,4.28,0.92,4.736,3.096L134.88,442.208z"/>
	<path style="fill:#1982BC;" d="M345.952,442.208c-0.456,2.168,0.92,4.28,3.096,4.736l0,0c2.168,0.456,4.28-0.92,4.744-3.096
		l25.088-119.392c0.456-2.168-0.936-4.28-3.096-4.736l0,0c-2.168-0.456-4.28,0.92-4.744,3.096L345.952,442.208z"/>
</g>
<g>
	<circle style="fill:#11558C;" cx="143.248" cy="425.288" r="11.704"/>
	<circle style="fill:#11558C;" cx="162.4" cy="420.568" r="11.696"/>
	<circle style="fill:#11558C;" cx="183.672" cy="423.192" r="11.704"/>
	<circle style="fill:#11558C;" cx="202.256" cy="430.112" r="11.704"/>
	<circle style="fill:#11558C;" cx="216.656" cy="438.08" r="11.704"/>
	<circle style="fill:#11558C;" cx="224.096" cy="447.128" r="11.704"/>
</g>
<g>
	<circle style="fill:#1982BC;" cx="337.616" cy="425.288" r="11.704"/>
	<circle style="fill:#1982BC;" cx="318.448" cy="420.568" r="11.696"/>
	<circle style="fill:#1982BC;" cx="297.136" cy="423.192" r="11.704"/>
	<circle style="fill:#1982BC;" cx="278.56" cy="430.112" r="11.696"/>
	<circle style="fill:#1982BC;" cx="264.192" cy="438.08" r="11.704"/>
	<circle style="fill:#1982BC;" cx="256.736" cy="447.128" r="11.704"/>
	<path style="fill:#1982BC;" d="M244.152,480.728c4.888-24-19.84-54.456-56.16-62.528c-36.976-8.248-71.88,7.04-77.968,34.36
		c-2.136,9.584-0.368,20.168,4.352,28.168H244.152z"/>
</g>
<path style="fill:#11558C;" d="M236.712,480.728c-4.904-24,19.832-54.456,56.168-62.528c36.96-8.248,71.848,7.04,77.944,34.36
	c2.144,9.584,0.384,20.168-4.352,28.168H236.712z"/>
<g>
</g>
<g>
</g>
<g>
</g>
<g>
</g>
<g>
</g>
<g>
</g>
<g>
</g>
<g>
</g>
<g>
</g>
<g>
</g>
<g>
</g>
<g>
</g>
<g>
</g>
<g>
</g>
<g>
</g>
</svg>
