<?xml version="1.0" encoding="iso-8859-1"?>
<!-- Generator: Adobe Illustrator 19.0.0, SVG Export Plug-In . SVG Version: 6.00 Build 0)  -->
<svg version="1.1" id="Layer_1" xmlns="http://www.w3.org/2000/svg" xmlns:xlink="http://www.w3.org/1999/xlink" x="0px" y="0px"
	 viewBox="0 0 466.737 466.737" style="enable-background:new 0 0 466.737 466.737;" xml:space="preserve">
<rect x="41.369" y="370.737" style="fill:#F9BDA0;" width="384" height="96"/>
<path style="fill:#542F08;" d="M138.441,124.249l75.056-15.368l4.544,104.008l-28.04,32.56l4.232,36.024c0,0-33.336,20-44-0.664
	s-15.328-145.992-16.664-148.664S138.441,124.249,138.441,124.249z"/>
<path style="fill:#3D1F03;" d="M133.569,132.154c-1.336-2.672,4.864-7.896,4.864-7.896l75.056-15.368l4.544,104.008l-28.04,32.56
	l4.232,36.024"/>
<path style="fill:#542F08;" d="M328.313,124.249l-75.064-15.368l-4.536,104.016l28.04,32.56l-4.232,36.024c0,0,33.336,20,44-0.664
	s15.328-145.992,16.664-148.664C334.513,129.482,328.313,124.249,328.313,124.249z"/>
<path style="fill:#3D1F03;" d="M333.185,132.154c1.328-2.672-4.864-7.896-4.864-7.896l-75.064-15.368l-4.544,104.008l28.04,32.56
	l-4.232,36.024"/>
<rect x="185.369" y="186.738" style="fill:#F9BDA0;" width="96" height="200"/>
<polygon style="fill:#EAA78C;" points="281.369,280.145 281.369,186.738 186.345,186.738 234.577,321.273 "/>
<path style="fill:#FCCCB9;" d="M308.329,102.122c0,72.24-36.624,137.616-74.944,137.616c-38.312,0-74.968-65.376-74.968-137.616
	s36.656-84.288,74.968-84.288C271.705,17.834,308.329,29.882,308.329,102.122z"/>
<g>
	<path style="fill:#F9BDA0;" d="M233.385,17.834c38.32,0,74.944,12.048,74.944,84.288s-36.624,137.616-74.944,137.616"/>
	<polygon style="fill:#F9BDA0;" points="189.089,286.313 32.913,334.393 36.593,466.737 229.881,421.353 	"/>
</g>
<polyline style="fill:#FCCCB9;" points="32.913,334.393 36.593,466.737 229.881,421.353 "/>
<polygon style="fill:#F9BDA0;" points="277.665,286.313 433.825,334.393 430.145,466.737 236.825,421.353 "/>
<polyline style="fill:#EAA78C;" points="433.825,334.393 430.145,466.737 236.825,421.353 "/>
<path style="fill:#663D0C;" d="M216.417,3.906c0,0,23.248,115.096,117.312,126.744c0,0,3.056-70.688-23.008-101.504
	c-26.08-30.8-66.448-27-66.448-27L216.417,3.906z"/>
<path style="fill:#894D0C;" d="M268.753,3.962c0,0,18.976,90.176-135.664,132.048c0,0-11.792-75.976,18.984-108.528
	c30.752-32.56,85.904-27.144,85.904-27.144L268.753,3.962z"/>
<path style="fill:#663D0C;" d="M237.977,0.338l30.776,3.624c0,0,18.976,90.176-135.664,132.048"/>
<circle style="fill:#BADADD;" cx="199.593" cy="133.93" r="19.784"/>
<path style="fill:#B72D08;" d="M199.601,157.721c-13.12,0-23.792-10.672-23.792-23.792c0-13.112,10.672-23.784,23.792-23.784
	c13.112,0,23.776,10.664,23.776,23.784C223.377,147.049,212.713,157.721,199.601,157.721z M199.601,118.154
	c-8.704,0-15.792,7.08-15.792,15.784s7.08,15.792,15.792,15.792c8.696,0,15.776-7.08,15.776-15.792
	C215.377,125.234,208.305,118.154,199.601,118.154z"/>
<path style="fill:#B72D08;" d="M177.369,138.738h-16c-2.208,0-4-1.792-4-4s1.792-4,4-4h16c2.208,0,4,1.792,4,4
	S179.577,138.738,177.369,138.738z"/>
<circle style="fill:#A7D3D6;" cx="267.129" cy="133.938" r="19.784"/>
<path style="fill:#B72D08;" d="M267.145,157.721c-13.12,0-23.792-10.664-23.792-23.784s10.672-23.792,23.792-23.792
	c13.112,0,23.784,10.672,23.784,23.792C290.921,147.058,280.257,157.721,267.145,157.721z M267.145,118.154
	c-8.704,0-15.792,7.08-15.792,15.792c0,8.704,7.08,15.784,15.792,15.784c8.704,0,15.784-7.08,15.784-15.784
	C282.921,125.234,275.849,118.154,267.145,118.154z"/>
<g>
	<path style="fill:#B72D08;" d="M305.369,138.738h-16c-2.208,0-4-1.792-4-4s1.792-4,4-4h16c2.208,0,4,1.792,4,4
		S307.577,138.738,305.369,138.738z"/>
	<path style="fill:#B72D08;" d="M246.313,144.482c-2.208,0-4-1.792-4-4c0-4.936-4.016-8.944-8.96-8.944
		c-4.928,0-8.936,4.008-8.936,8.944c0,2.208-1.792,4-4,4s-4-1.792-4-4c0-9.344,7.6-16.944,16.936-16.944
		c9.352,0,16.96,7.6,16.96,16.944C250.313,142.689,248.529,144.482,246.313,144.482z"/>
	<rect x="41.369" y="370.737" style="fill:#B72D08;" width="384" height="96"/>
</g>
<rect x="41.369" y="386.737" style="fill:#931B03;" width="384" height="80"/>
<polygon style="fill:#037193;" points="227.385,466.737 179.177,286.785 32.361,332.345 36.593,466.737 "/>
<polygon style="fill:#0C537A;" points="227.385,466.737 179.177,286.785 32.361,332.345 52.593,466.737 "/>
<g>
	<polygon style="fill:#00233F;" points="227.385,466.737 179.177,286.785 32.361,332.345 84.593,466.737 	"/>
	<polygon style="fill:#00233F;" points="239.353,466.737 287.561,286.785 434.377,332.345 430.145,466.737 	"/>
</g>
<path style="fill:#BADADD;" d="M366.057,409.817c0,1.128-2.088,2.04-4.656,2.04h-54.68c-2.584,0-4.664-0.912-4.664-2.04l0,0
	c0-1.128,2.08-2.04,4.664-2.04h54.68C363.969,407.777,366.057,408.689,366.057,409.817L366.057,409.817z"/>
<g>
</g>
<g>
</g>
<g>
</g>
<g>
</g>
<g>
</g>
<g>
</g>
<g>
</g>
<g>
</g>
<g>
</g>
<g>
</g>
<g>
</g>
<g>
</g>
<g>
</g>
<g>
</g>
<g>
</g>
</svg>
