<?xml version="1.0" encoding="iso-8859-1"?>
<!-- Generator: Adobe Illustrator 19.0.0, SVG Export Plug-In . SVG Version: 6.00 Build 0)  -->
<svg version="1.1" id="Layer_1" xmlns="http://www.w3.org/2000/svg" xmlns:xlink="http://www.w3.org/1999/xlink" x="0px" y="0px"
	 viewBox="0 0 478.745 478.745" style="enable-background:new 0 0 478.745 478.745;" xml:space="preserve">
<path style="fill:#4C2A11;" d="M319.376,214.033c0,22.488-18.224,40.712-40.712,40.712h-86.576
	c-22.488,0-40.712-18.224-40.712-40.712v-54.576c0-22.488,18.224-40.712,40.712-40.712h86.576c22.488,0,40.712,18.224,40.712,40.712
	V214.033z"/>
<polygon style="fill:#EAA78C;" points="443.448,340.297 287.376,292.233 287.376,278.745 191.376,278.745 191.376,292.241 
	35.296,340.297 44.824,477.489 44.696,478.745 47.376,478.745 431.376,478.745 431.376,476.705 434.88,477.489 "/>
<polygon style="fill:#5FC46F;" points="443.448,340.297 287.376,292.233 287.376,278.745 191.376,278.745 191.376,292.241 
	35.296,340.297 108.88,478.401 110.072,478.745 44.696,478.745 431.376,478.745 431.376,476.705 434.88,477.489 "/>
<polygon style="fill:#46AA5B;" points="443.448,340.297 287.376,292.233 287.376,278.745 191.376,278.745 191.376,292.241 
	96.592,337.081 108.88,478.401 110.072,478.745 44.696,478.745 431.376,478.745 431.376,476.705 434.88,477.489 "/>
<polygon style="fill:#BF215A;" points="303.376,298.177 287.376,292.233 287.376,278.745 191.376,278.745 191.376,292.241 
	175.376,301.369 175.376,478.745 303.376,478.745 "/>
<polyline style="fill:#A81350;" points="247.376,478.745 303.376,478.745 303.376,298.177 287.376,292.233 287.376,278.745 
	191.376,278.745 "/>
<path style="fill:#5E3A1C;" d="M345.888,135.817c0,35.968-52.168,65.136-106.52,65.136c-54.32,0-106.504-29.168-106.504-65.136
	c0-35.96,52.184-65.128,106.504-65.128C293.72,70.689,345.888,99.857,345.888,135.817z"/>
<rect x="191.376" y="182.745" style="fill:#F9BDA0;" width="96" height="112"/>
<polygon style="fill:#EAA78C;" points="287.376,285.089 287.376,190.745 191.528,190.745 240.192,343.585 "/>
<path style="fill:#FCCCB9;" d="M315.656,103.921c0,73.512-37.264,140.048-76.264,140.048s-76.28-66.528-76.28-140.048
	s37.28-85.784,76.28-85.784S315.656,30.401,315.656,103.921z"/>
<path style="fill:#F9BDA0;" d="M239.392,18.145c39,0,76.264,12.256,76.264,85.784c0,73.512-37.264,140.048-76.264,140.048"/>
<path style="fill:#5E3A1C;" d="M249.992,13.297c0,0-70.888,54.272,91.504,119.648c0,0,3.12-71.936-23.408-103.288
	C291.552-1.687,250.48,2.177,250.48,2.177L249.992,13.297z"/>
<path style="fill:#77502A;" d="M275.384,4.033c0,0,65.288,72.36-138.072,134.376c0,0-11.984-77.312,19.32-110.448
	s87.44-27.616,87.44-27.616L275.384,4.033z"/>
<path style="fill:#5E3A1C;" d="M244.072,0.345l31.312,3.688c0,0,97.424,160.728-138.072,134.376"/>
<g>
	<polyline style="fill:#EAA78C;" points="375.376,478.745 431.376,478.745 434.752,478.745 434.848,477.489 443.448,340.297 	"/>
	<path style="fill:#EAA78C;" d="M287.376,292.233v-13.488h-96v13.496l-41.16,12.688c5.64,28.528,43.36,50.608,89.12,50.608
		s83.536-22.08,89.176-50.616L287.376,292.233z"/>
</g>
<circle style="fill:#EF8A11;" cx="307.696" cy="418.825" r="29.52"/>
<path style="fill:#CC6D05;" d="M328.568,397.913c11.528,11.528,11.528,30.216,0,41.744c-11.528,11.528-30.224,11.528-41.76,0"/>
<g>
	<path style="fill:#994C00;" d="M284.512,400.545c4.36,4.848,7.016,11.24,7.016,18.248s-2.656,13.4-7.016,18.24
		c0.88,1.12,1.84,2.168,2.88,3.152c5.176-5.624,8.344-13.152,8.344-21.392c0-8.232-3.168-15.76-8.344-21.4
		C286.352,398.377,285.392,399.433,284.512,400.545z"/>
	<path style="fill:#994C00;" d="M323.872,418.793c0-7.008,2.656-13.4,6.992-18.248c-0.872-1.112-1.832-2.168-2.856-3.152
		c-5.192,5.64-8.368,13.168-8.368,21.4c0,8,2.992,15.52,8.384,21.376c1.016-0.968,1.968-2.016,2.84-3.128
		C326.344,432.009,323.872,425.601,323.872,418.793z"/>
	<path style="fill:#994C00;" d="M278.176,418.745c0,0.704,0.056,4,0.104,4h58.832c0.048,0,0.104-3.296,0.104-4
		c0-0.72-0.056-4-0.104-4H278.28C278.224,414.745,278.176,418.025,278.176,418.745z"/>
	<path style="fill:#994C00;" d="M303.376,389.385v58.824c0,0.056,3.288,0.104,4.008,0.104c0.712,0,3.992-0.048,3.992-0.104v-58.824
		c0-0.064-3.28-0.12-3.992-0.12C306.664,389.265,303.376,389.321,303.376,389.385z"/>
</g>
<g>
</g>
<g>
</g>
<g>
</g>
<g>
</g>
<g>
</g>
<g>
</g>
<g>
</g>
<g>
</g>
<g>
</g>
<g>
</g>
<g>
</g>
<g>
</g>
<g>
</g>
<g>
</g>
<g>
</g>
</svg>
